<?xml version="1.0" encoding="utf-8"?>
<!-- Svg Vector Icons : http://www.onlinewebfonts.com/icon -->
<!DOCTYPE svg PUBLIC "-//W3C//DTD SVG 1.1//EN" "http://www.w3.org/Graphics/SVG/1.1/DTD/svg11.dtd">
<svg version="1.1" xmlns="http://www.w3.org/2000/svg" xmlns:xlink="http://www.w3.org/1999/xlink" x="0px" y="0px" viewBox="0 0 256 256" enable-background="new 0 0 256 256" xml:space="preserve">
<metadata> Svg Vector Icons : http://www.onlinewebfonts.com/icon </metadata>
<g><g><path fill="#00DAF3" d="M10,185.8l54.7-72.3l6.3,4.8l-54.7,72.3L10,185.8L10,185.8z"/><path fill="#00DAF3" d="M196,78.6l45.3,87.2l-7,3.6L189,82.2L196,78.6z"/><path fill="#00DAF3" d="M53.8,114.9c0,7.9,6.4,14.3,14.3,14.3s14.3-6.4,14.3-14.3c0-7.9-6.4-14.3-14.3-14.3S53.8,107,53.8,114.9L53.8,114.9z"/><path fill="#00DAF3" d="M137.4,191.8l0.6,0.3l56.5-122.6l-7.2-3.3l-55.8,121.1L137.4,191.8z"/><path fill="#00DAF3" d="M141,185.4l-64-64l-5.6,5.6l66,66L141,185.4z"/><path fill="#00DAF3" d="M174.6,77.2c0,7.9,6.4,14.3,14.3,14.3c7.9,0,14.3-6.4,14.3-14.3s-6.4-14.3-14.3-14.3C181,62.9,174.6,69.3,174.6,77.2z"/><path fill="#00DAF3" d="M246,133.5h-8V131h8V133.5z M229.2,133.5h-8.8V131h8.8V133.5z M211.7,133.5h-8.8V131h8.8V133.5z M194.2,133.5h-8.8V131h8.8V133.5z M176.6,133.5h-8.8V131h8.8V133.5z M159.1,133.5h-8.8V131h8.8V133.5z M141.6,133.5h-8.8V131h8.8V133.5z M124.1,133.5h-8.8V131h8.8V133.5z M106.5,133.5h-8.8V131h8.8V133.5z M89,133.5h-8.8V131H89V133.5z M71.5,133.5h-8.8V131h8.8V133.5z M53.9,133.5h-8.8V131h8.8V133.5z M36.4,133.5h-8.8V131h8.8V133.5L36.4,133.5z M18.9,133.5h-8.8V131h8.8V133.5L18.9,133.5z"/></g></g>
</svg>