<!DOCTYPE svg PUBLIC "-//W3C//DTD SVG 1.1//EN" "http://www.w3.org/Graphics/SVG/1.1/DTD/svg11.dtd">
<!-- Uploaded to: SVG Repo, www.svgrepo.com, Transformed by: SVG Repo Mixer Tools -->
<svg height="800px" width="800px" version="1.1" id="Layer_1" xmlns="http://www.w3.org/2000/svg" xmlns:xlink="http://www.w3.org/1999/xlink" viewBox="0 0 512 512" xml:space="preserve" fill="#000000" stroke="#000000">
<g id="SVGRepo_bgCarrier" stroke-width="0"/>
<g id="SVGRepo_tracerCarrier" stroke-linecap="round" stroke-linejoin="round"/>
<g id="SVGRepo_iconCarrier"> <g> <polygon style="fill:#8AEEF9;" points="108.475,329.766 403.525,329.766 403.525,86.783 108.475,86.783 "/> <path style="fill:#0CD8EE;" d="M282.034,399.186h-52.068c-4.799,0-8.678-3.879-8.678-8.678v-60.746h69.424v60.746 C290.712,395.307,286.833,399.186,282.034,399.186"/> <g> <polygon style="fill:#077783;" points="238.644,503.326 273.356,503.326 273.356,399.19 238.644,399.19 "/> <path style="fill:#077783;" d="M325.424,86.78H186.576V8.678c0-4.799,3.879-8.678,8.678-8.678h121.492 c4.799,0,8.678,3.879,8.678,8.678V86.78z"/> <path style="fill:#077783;" d="M160.542,390.508h-17.356c-4.799,0-8.678-3.879-8.678-8.678v-52.068h34.712v52.068 C169.22,386.629,165.341,390.508,160.542,390.508"/> <path style="fill:#077783;" d="M368.814,390.508h-17.356c-4.799,0-8.678-3.879-8.678-8.678v-52.068h34.712v52.068 C377.492,386.629,373.612,390.508,368.814,390.508"/> <path style="fill:#077783;" d="M360.136,52.068h17.356c4.799,0,8.678,3.879,8.678,8.678V86.78h-34.712V60.746 C351.458,55.947,355.337,52.068,360.136,52.068"/> <path style="fill:#077783;" d="M134.508,52.068h17.356c4.799,0,8.678,3.879,8.678,8.678V86.78h-34.712V60.746 C125.831,55.947,129.71,52.068,134.508,52.068"/> </g> <g> <path style="fill:#0CD8EE;" d="M412.203,147.525H99.797c-4.799,0-8.678-3.879-8.678-8.678s3.879-8.678,8.678-8.678h312.407 c4.799,0,8.678,3.879,8.678,8.678S417.002,147.525,412.203,147.525"/> <path style="fill:#0CD8EE;" d="M412.203,182.237H99.797c-4.799,0-8.678-3.879-8.678-8.678c0-4.799,3.879-8.678,8.678-8.678 h312.407c4.799,0,8.678,3.879,8.678,8.678C420.881,178.358,417.002,182.237,412.203,182.237"/> <path style="fill:#0CD8EE;" d="M412.203,216.949H99.797c-4.799,0-8.678-3.879-8.678-8.678c0-4.799,3.879-8.678,8.678-8.678 h312.407c4.799,0,8.678,3.879,8.678,8.678C420.881,213.07,417.002,216.949,412.203,216.949"/> <path style="fill:#0CD8EE;" d="M412.203,251.661H99.797c-4.799,0-8.678-3.879-8.678-8.678s3.879-8.678,8.678-8.678h312.407 c4.799,0,8.678,3.879,8.678,8.678S417.002,251.661,412.203,251.661"/> <path style="fill:#0CD8EE;" d="M412.203,286.373H99.797c-4.799,0-8.678-3.879-8.678-8.678c0-4.799,3.879-8.678,8.678-8.678 h312.407c4.799,0,8.678,3.879,8.678,8.678C420.881,282.494,417.002,286.373,412.203,286.373"/> </g> <path style="fill:#8AEEF9;" d="M299.39,373.153h-86.78c-4.799,0-8.678-3.879-8.678-8.678c0-4.799,3.879-8.678,8.678-8.678h86.78 c4.799,0,8.678,3.879,8.678,8.678C308.068,369.273,304.189,373.153,299.39,373.153"/> <path style="fill:#8AEEF9;" d="M394.847,512H117.153c-4.799,0-8.678-3.879-8.678-8.678c0-4.799,3.879-8.678,8.678-8.678h277.695 c4.799,0,8.678,3.879,8.678,8.678C403.525,508.121,399.646,512,394.847,512"/> </g> </g>
</svg>