<?xml version="1.0" encoding="UTF-8" standalone="no"?>
<svg 
  version="1.1" 
  xmlns="http://www.w3.org/2000/svg" 
  xmlns:xlink="http://www.w3.org/1999/xlink" 
  xmlns:svg="http://www.w3.org/2000/svg"
  xmlns:rdf="http://www.w3.org/1999/02/22-rdf-syntax-ns#"
  xmlns:cc="http://creativecommons.org/ns#"
  xmlns:dc="http://purl.org/dc/elements/1.1/"
  viewBox="0 0 768 768"
  width="32"
  height="32"
>
<style>svg {background-color: white; }</style>"
<metadata id="metadata1">
Created by https://svgstud.io and licensed under CC-BY-SA 4.0 license. Please attribute https://svgstud.io
</metadata>
<metadata id="prompt">
simple psychosomatologist's logo with A and R letters
</metadata>
<metadata id="version">
7
</metadata>
<metadata id="metadata2">
<rdf:RDF>
<cc:Work
    rdf:about="">
    <cc:license
    rdf:resource="http://creativecommons.org/licenses/by-sa/4.0/" />
    <dc:creator>
        <cc:Agent>
            <dc:title>https://svgstud.io</dc:title>
        </cc:Agent>
    </dc:creator>
</cc:Work>
<cc:License
    rdf:about="http://creativecommons.org/licenses/by-sa/4.0/">
    <cc:permits
    rdf:resource="http://creativecommons.org/ns#Reproduction" />
    <cc:permits
    rdf:resource="http://creativecommons.org/ns#Distribution" />
    <cc:requires
    rdf:resource="http://creativecommons.org/ns#Notice" />
    <cc:requires
    rdf:resource="http://creativecommons.org/ns#Attribution" />
    <cc:permits
    rdf:resource="http://creativecommons.org/ns#DerivativeWorks" />
    <cc:requires
    rdf:resource="http://creativecommons.org/ns#ShareAlike" />
</cc:License>
</rdf:RDF>
</metadata>
<metadata id="uid">
d9fa0cffb076cb5f2efb6da4589338e134b5813d25f98f13dbf810f84bd87e87
</metadata>
<path stroke="none" fill="#00DAF3" fill-rule="evenodd" d="M291.00,557.00C197.00,557.00 197.00,557.00 197.00,554.63C197.00,553.32 199.18,548.94 201.84,544.88C204.50,540.82 208.89,535.45 211.59,532.95C214.29,530.44 219.88,526.12 224.00,523.34C228.12,520.57 243.20,511.42 257.50,503.01C271.80,494.61 286.32,485.74 289.76,483.31C293.21,480.87 297.84,476.48 300.05,473.55C302.26,470.62 304.97,465.67 306.07,462.55C307.16,459.43 308.53,453.37 309.11,449.07C309.71,444.59 309.98,431.07 309.74,417.38C309.49,402.58 308.87,392.08 308.12,389.76C307.34,387.34 303.17,382.03 296.33,374.76C290.52,368.56 283.02,359.45 279.68,354.50C276.33,349.55 271.64,341.06 269.25,335.63C266.85,330.20 263.82,321.72 262.49,316.78C261.17,311.84 259.56,303.23 258.91,297.65C258.17,291.34 257.95,281.44 258.33,271.50C258.72,260.98 259.63,252.41 260.97,246.50C262.09,241.55 263.74,235.25 264.63,232.50C265.51,229.75 267.57,224.42 269.19,220.66C270.82,216.90 274.12,210.60 276.53,206.66C278.94,202.72 284.07,195.82 287.92,191.32C291.78,186.82 298.05,180.62 301.86,177.54C305.68,174.46 312.56,169.70 317.15,166.96C321.74,164.22 330.00,160.23 335.50,158.09C341.00,155.95 349.10,153.36 353.50,152.35C359.81,150.89 365.29,150.52 379.50,150.59C395.77,150.68 398.46,150.95 407.50,153.40C413.00,154.89 422.00,158.27 427.50,160.91C433.00,163.55 440.20,167.73 443.50,170.19C446.80,172.66 451.85,176.81 454.72,179.41C457.60,182.01 462.17,187.46 464.88,191.52C467.60,195.57 470.80,201.50 472.00,204.70C473.20,207.89 475.52,217.25 477.15,225.50C478.79,233.75 481.22,248.15 482.56,257.50C484.23,269.21 485.66,275.78 487.14,278.60C488.61,281.39 489.08,283.54 488.63,285.35C488.07,287.57 487.41,288.00 484.56,288.00C482.35,288.00 480.07,288.91 478.08,290.59C476.12,292.23 475.00,294.11 475.00,295.73C475.00,298.20 475.15,298.26 479.98,297.69C484.33,297.17 485.15,297.37 486.48,299.27C487.32,300.47 488.00,302.66 488.00,304.15C488.00,306.03 487.07,307.53 484.97,309.02C482.26,310.95 482.01,311.56 482.60,314.84C482.95,316.85 485.02,322.72 487.20,327.87C489.37,333.02 491.54,339.70 492.03,342.70C492.66,346.57 492.51,350.57 491.50,356.34C490.72,360.83 488.51,371.02 486.59,379.00C484.68,386.98 481.30,398.75 479.09,405.16C476.87,411.57 473.99,419.23 472.69,422.17C471.39,425.11 468.22,429.62 465.65,432.19C462.62,435.22 458.96,437.62 455.25,439.01C452.10,440.19 447.38,441.40 444.77,441.71C442.15,442.02 439.50,442.89 438.88,443.65C438.08,444.61 437.88,450.74 438.20,464.26C438.56,479.48 438.99,484.15 440.29,486.63C441.30,488.57 444.90,491.64 449.71,494.69C454.00,497.40 468.92,506.34 482.88,514.56C496.95,522.85 510.68,531.69 513.69,534.41C516.68,537.11 520.29,541.60 521.70,544.40C523.12,547.19 524.63,550.70 525.05,552.19C525.55,553.92 525.41,555.24 524.66,555.86C523.95,556.46 500.94,556.87 464.67,556.93C409.06,557.03 405.86,556.94 406.18,555.28C406.39,554.20 410.44,551.54 416.66,548.39C422.23,545.57 433.70,541.00 442.15,538.24C450.59,535.48 460.99,532.42 465.25,531.43C469.51,530.44 472.96,529.38 472.91,529.07C472.86,528.76 465.70,524.93 456.99,520.56C442.79,513.43 440.98,512.76 439.33,514.04C438.32,514.82 433.90,518.36 429.50,521.90C425.10,525.45 419.83,529.93 417.78,531.85C415.07,534.40 413.94,534.96 413.60,533.92C413.34,533.14 412.96,515.68 412.77,495.12C412.42,457.73 412.42,457.73 409.96,455.79C408.61,454.73 402.10,450.37 395.50,446.12C388.90,441.86 377.84,433.83 370.92,428.26C364.00,422.70 355.07,414.65 351.09,410.38C347.10,406.12 341.29,398.88 338.17,394.31C335.05,389.74 332.16,386.00 331.75,386.00C331.34,386.00 331.00,396.69 331.00,409.75C330.99,422.81 330.52,438.68 329.95,445.00C329.38,451.32 328.23,460.47 327.41,465.33C326.59,470.18 324.85,477.07 323.56,480.63C322.27,484.20 320.37,488.05 319.35,489.19C318.33,490.33 315.82,492.33 313.77,493.63C311.72,494.94 299.57,501.78 286.77,508.84C273.97,515.90 257.31,525.37 249.75,529.88C242.19,534.39 236.00,538.50 236.00,539.02C236.00,539.56 238.04,539.72 240.75,539.40C243.36,539.09 255.18,537.54 267.00,535.94C278.82,534.35 294.12,532.53 301.00,531.90C307.88,531.28 320.70,530.99 329.50,531.26C341.95,531.65 346.94,532.23 352.00,533.85C355.57,535.00 362.14,538.18 366.59,540.92C371.04,543.66 377.00,547.99 379.84,550.54C382.68,553.10 385.00,555.59 385.00,556.09C385.00,556.63 346.60,557.00 291.00,557.00zM388.84,541.00C388.59,541.00 387.00,539.54 385.29,537.75C383.59,535.96 379.67,530.96 376.59,526.64C372.91,521.47 370.32,516.50 369.03,512.14C367.95,508.49 365.94,498.52 364.57,490.00C363.20,481.48 361.39,468.88 360.54,462.00C359.69,455.12 358.75,448.04 358.45,446.25C358.15,444.42 358.34,443.00 358.89,443.00C359.43,443.00 365.28,450.19 371.89,458.97C378.49,467.76 384.39,475.86 384.99,476.97C385.58,478.09 386.48,484.96 386.99,492.25C387.49,499.54 388.21,513.49 388.59,523.25C388.97,533.01 389.08,541.00 388.84,541.00zM445.74,425.72C450.03,425.50 452.84,424.78 454.74,423.39C456.26,422.29 458.51,419.40 459.75,416.98C460.99,414.56 462.00,411.12 462.00,409.33C462.00,406.37 461.67,406.03 458.25,405.41C456.19,405.03 452.41,403.68 449.85,402.40C447.29,401.12 444.21,398.81 443.00,397.28C440.81,394.50 440.81,394.50 455.21,394.00C466.71,393.60 470.14,393.14 472.30,391.73C473.79,390.75 475.00,389.27 475.00,388.44C475.00,387.61 474.00,386.56 472.77,386.11C471.54,385.66 461.29,385.51 449.98,385.78C431.51,386.22 429.24,386.10 427.71,384.57C426.77,383.63 426.00,382.27 426.00,381.55C426.00,380.63 428.38,380.11 434.25,379.77C440.78,379.39 444.75,378.42 453.34,375.12C459.30,372.82 465.82,370.86 467.84,370.75C469.85,370.65 473.41,370.93 475.75,371.37C479.97,372.17 480.00,372.15 480.00,369.24C480.00,367.58 479.13,365.53 478.00,364.50C476.32,362.98 475.57,362.87 473.42,363.85C472.01,364.50 470.43,364.77 469.93,364.45C469.42,364.14 469.00,362.51 469.00,360.84C469.00,357.80 469.00,357.80 463.16,358.48C458.90,358.98 456.32,358.74 453.66,357.63C450.47,356.30 450.00,355.67 450.00,352.72C450.00,350.86 450.31,349.03 450.68,348.65C451.06,348.28 452.52,349.07 453.93,350.41C456.50,352.85 456.50,352.85 462.50,350.30C466.77,348.48 470.45,347.71 475.26,347.62C480.86,347.52 482.12,347.19 482.60,345.68C482.92,344.68 482.92,342.81 482.60,341.52C482.27,340.24 479.09,334.59 475.53,328.97C471.97,323.35 468.06,316.22 466.86,313.13C464.90,308.12 464.64,305.41 464.47,288.50C464.30,272.13 463.90,267.70 461.55,256.50C460.05,249.35 457.48,240.02 455.84,235.76C454.20,231.51 451.07,225.33 448.87,222.04C446.67,218.76 442.32,214.03 439.19,211.54C436.06,209.05 430.49,205.42 426.80,203.48C423.12,201.53 416.59,199.04 412.30,197.94C408.01,196.84 399.77,195.67 394.00,195.35C388.09,195.02 379.40,195.26 374.12,195.92C368.95,196.55 363.78,197.61 362.62,198.27C360.75,199.32 361.26,199.56 367.00,200.26C370.57,200.70 377.04,201.76 381.37,202.61C385.71,203.46 390.77,204.88 392.62,205.76C394.48,206.65 396.00,207.94 396.00,208.65C396.00,209.35 395.44,210.39 394.75,210.96C394.06,211.54 391.25,213.47 388.51,215.25C384.11,218.11 382.73,219.96 377.01,230.65C373.43,237.33 369.30,244.30 367.83,246.15C366.37,247.99 362.27,252.59 358.72,256.37C353.61,261.81 350.59,266.51 344.22,278.87C339.80,287.47 335.24,297.58 334.09,301.36C332.94,305.13 332.00,308.76 332.00,309.44C332.00,310.12 337.51,313.84 344.25,317.72C350.99,321.59 360.55,327.11 365.50,329.98C370.45,332.85 376.75,336.93 379.50,339.04C382.25,341.16 386.19,344.55 388.25,346.56C390.31,348.58 392.00,350.63 392.00,351.11C392.00,351.60 390.93,352.00 389.61,352.00C388.30,352.00 383.24,350.86 378.36,349.47C373.49,348.08 366.46,345.38 362.75,343.46C356.00,339.97 356.00,339.97 356.00,342.74C356.00,344.26 356.86,348.51 357.91,352.17C358.95,355.84 360.98,361.16 362.40,363.99C363.83,366.83 366.63,371.61 368.62,374.62C370.62,377.62 372.01,380.33 371.71,380.62C371.41,380.92 370.12,380.60 368.84,379.92C367.55,379.23 363.69,375.97 360.25,372.68C354.55,367.21 354.00,366.90 354.00,369.16C354.00,370.52 354.73,374.08 355.61,377.07C356.50,380.06 358.30,384.63 359.62,387.23C361.02,390.00 364.13,393.64 367.10,395.99C369.90,398.20 375.19,401.69 378.85,403.73C382.51,405.78 391.80,410.10 399.50,413.32C407.20,416.54 419.35,420.72 426.50,422.60C436.22,425.16 441.08,425.95 445.74,425.72zM322.03,358.97C322.87,358.99 324.56,358.30 325.78,357.44C327.79,356.03 328.00,355.05 328.00,347.05C328.00,342.20 327.29,334.46 326.42,329.86C325.54,325.26 323.52,317.41 321.92,312.40C320.31,307.40 317.64,301.42 315.97,299.12C314.30,296.82 311.49,294.02 309.72,292.91C307.25,291.36 305.27,290.98 301.22,291.28C296.86,291.60 295.33,292.26 292.47,295.03C290.56,296.88 288.10,300.80 287.00,303.74C285.90,306.67 285.00,311.44 285.00,314.33C285.00,317.22 285.69,322.23 286.53,325.47C287.38,328.70 289.25,333.53 290.70,336.19C292.15,338.85 294.82,342.77 296.64,344.90C298.46,347.02 302.28,350.26 305.14,352.09C307.99,353.92 312.62,356.21 315.41,357.18C318.21,358.14 321.19,358.95 322.03,358.97zM322.15,347.00C321.13,347.00 318.79,345.98 316.94,344.74C315.09,343.49 312.13,340.57 310.35,338.24C308.38,335.66 306.86,332.26 306.45,329.53C305.97,326.34 306.29,323.62 307.57,320.09C309.04,315.99 309.12,314.86 308.05,313.56C307.34,312.70 305.74,312.00 304.50,312.00C303.26,312.00 301.66,312.71 300.94,313.58C300.15,314.53 299.66,317.60 299.71,321.33C299.75,325.08 300.60,329.55 301.88,332.75C303.22,336.12 303.56,338.00 302.83,338.00C302.20,338.00 300.07,336.29 298.10,334.21C296.12,332.12 293.71,328.18 292.75,325.46C291.78,322.73 290.99,318.09 291.00,315.15C291.00,312.21 291.73,308.26 292.63,306.37C293.52,304.49 295.38,302.06 296.76,300.97C298.14,299.89 300.50,299.00 302.00,299.00C303.50,299.00 305.89,299.91 307.31,301.03C308.73,302.15 311.49,306.26 313.45,310.16C315.40,314.07 317.00,318.09 317.00,319.10C317.00,320.11 316.28,322.45 315.39,324.31C313.93,327.36 313.93,327.96 315.33,330.67C316.18,332.32 318.48,335.58 320.44,337.93C322.40,340.27 324.00,343.27 324.00,344.59C324.00,346.27 323.44,347.00 322.15,347.00zM422.70,319.90C418.74,319.84 414.12,319.46 412.43,319.06C410.74,318.66 407.96,317.63 406.25,316.77C404.53,315.92 400.18,313.03 396.57,310.36C392.95,307.69 390.00,305.05 390.00,304.50C390.00,303.95 393.49,301.40 397.75,298.84C402.01,296.28 407.42,293.23 409.77,292.06C412.11,290.90 416.31,289.51 419.09,288.98C422.24,288.39 425.73,288.37 428.32,288.95C431.13,289.57 433.49,291.01 435.51,293.33C437.17,295.23 439.34,299.06 440.34,301.83C441.34,304.60 442.01,307.91 441.83,309.19C441.61,310.72 440.83,311.50 439.50,311.50C438.22,311.50 437.00,312.63 436.11,314.65C435.35,316.39 433.64,318.30 432.31,318.90C430.99,319.51 426.66,319.95 422.70,319.90zM417.90,310.74C422.74,310.56 424.56,310.07 425.40,308.74C426.24,307.40 426.13,306.33 424.94,304.24C423.55,301.80 422.83,301.51 418.44,301.62C415.72,301.69 411.02,302.27 408.00,302.90C404.98,303.53 401.84,304.47 401.03,304.97C400.22,305.48 399.87,306.21 400.26,306.59C400.65,306.98 403.33,308.12 406.23,309.14C409.68,310.34 413.71,310.89 417.90,310.74zM382.75,289.36C381.19,289.74 380.00,289.62 380.00,289.08C380.00,288.55 384.37,284.75 389.71,280.62C395.04,276.49 401.91,271.86 404.96,270.31C409.99,267.76 411.46,267.50 421.00,267.51C428.04,267.52 433.33,268.09 437.06,269.24C440.12,270.18 444.16,271.98 446.03,273.24C448.06,274.61 449.81,276.85 450.37,278.79C451.00,280.98 450.93,282.85 450.17,284.52C449.55,285.88 448.32,287.00 447.43,287.00C446.54,287.00 441.03,285.37 435.19,283.37C425.43,280.03 423.93,279.79 416.54,280.30C410.95,280.68 404.99,282.04 397.00,284.76C390.68,286.92 384.26,288.98 382.75,289.36zM319.44,267.00C319.83,267.00 322.70,264.61 325.82,261.70C328.95,258.78 334.65,253.96 338.50,250.99C342.35,248.03 350.00,241.68 355.50,236.89C361.00,232.10 367.73,225.90 370.46,223.09C373.19,220.29 374.92,218.00 374.30,218.00C373.69,218.00 368.98,219.37 363.84,221.04C358.70,222.72 351.39,225.93 347.59,228.18C343.80,230.43 337.95,235.04 334.59,238.42C331.24,241.79 326.57,247.98 324.21,252.16C321.85,256.34 319.65,261.39 319.33,263.38C319.00,265.37 319.06,267.00 319.44,267.00zM302.13,255.44C302.56,254.37 304.36,249.92 306.13,245.55C307.90,241.18 312.06,233.53 315.37,228.55C318.70,223.56 325.68,215.23 330.95,209.98C336.20,204.74 343.65,198.49 347.50,196.08C351.35,193.68 359.45,188.48 365.50,184.52C371.55,180.57 379.00,175.92 382.06,174.20C385.11,172.48 390.27,170.38 393.52,169.54C396.76,168.69 402.36,168.01 405.96,168.02C409.56,168.03 415.65,168.70 419.50,169.52C423.35,170.33 427.39,171.00 428.47,171.00C430.29,171.00 430.26,170.87 428.10,169.36C426.82,168.46 422.56,166.61 418.63,165.25C413.16,163.35 408.69,162.66 399.43,162.26C390.40,161.87 385.29,162.17 379.09,163.42C374.53,164.34 368.40,166.00 365.45,167.11C362.50,168.21 356.58,171.39 352.29,174.17C348.01,176.95 339.97,183.79 334.44,189.36C328.90,194.94 322.00,202.88 319.10,207.00C316.19,211.12 312.28,217.52 310.41,221.22C308.54,224.91 305.88,231.30 304.50,235.41C303.12,239.53 301.59,245.73 301.11,249.20C300.63,252.66 300.48,255.92 300.79,256.44C301.10,256.96 301.70,256.51 302.13,255.44z" />

</svg>