<svg version="1.1" id="Layer_1" xmlns="http://www.w3.org/2000/svg" xmlns:xlink="http://www.w3.org/1999/xlink" x="0px" y="0px"
	 width="100%" viewBox="0 0 512 512" enable-background="new 0 0 512 512" xml:space="preserve">
<path fill="#00DAF3" opacity="1.000000" stroke="none" 
	d="
M383.051147,297.944763 
	C424.883789,274.402435 473.443390,296.957520 480.769806,343.953064 
	C486.305542,379.462158 462.435059,409.786041 430.140350,416.155853 
	C392.271881,423.625061 357.572662,399.067474 353.072052,360.889191 
	C349.948242,334.390228 360.210083,313.077759 383.051147,297.944763 
M433.163940,326.271179 
	C420.889252,319.158722 408.818512,319.846039 397.797424,328.458313 
	C387.721436,336.331909 383.431152,347.016296 386.431335,359.821259 
	C390.298798,376.327606 404.724457,385.532684 418.958710,384.414398 
	C433.181122,383.297028 444.174805,373.596832 447.432098,360.826935 
	C450.824341,347.527771 445.997375,335.430511 433.163940,326.271179 
z"/>
<path fill="#00DAF3" opacity="1.000000" stroke="none" 
	d="
M120.613846,366.580414 
	C149.520950,343.941406 189.691605,349.010712 212.483292,377.911530 
	C233.977768,405.167480 228.460770,446.077789 200.279938,468.403107 
	C173.064194,489.963928 132.467743,484.570618 109.766411,456.378174 
	C88.413010,429.859772 93.261696,388.787659 120.613846,366.580414 
M139.117340,394.606628 
	C128.538406,405.854462 126.511314,419.617493 133.590271,432.133118 
	C140.636185,444.590363 153.689194,450.498627 167.817490,447.625641 
	C182.152618,444.710571 194.330414,428.769165 192.547394,414.981537 
	C190.878586,402.077240 184.310089,392.572540 172.029419,387.741211 
	C160.009460,383.012482 149.231873,385.893188 139.117340,394.606628 
z"/>
<path fill="#00DAF3" opacity="1.000000" stroke="none" 
	d="
M373.870483,67.805191 
	C397.933136,77.092247 412.724884,93.949249 416.671417,119.138092 
	C422.106598,153.828247 400.051514,185.378357 366.380676,192.082428 
	C328.387451,199.647110 294.442291,175.840012 289.139984,137.511475 
	C284.312592,102.616188 306.932739,72.343552 340.465790,65.722588 
	C351.605530,63.523083 362.642853,64.297714 373.870483,67.805191 
M380.555725,114.040016 
	C371.311005,99.511040 356.174927,94.011467 341.580322,99.878624 
	C327.031372,105.727440 318.967560,120.492958 322.423615,135.730530 
	C325.926147,151.173035 339.131409,161.413574 354.355713,160.462234 
	C377.386078,159.023132 391.503662,134.920853 380.555725,114.040016 
z"/>
<path fill="#00DAF3" opacity="1.000000" stroke="none" 
	d="
M66.260902,153.892670 
	C25.012501,130.341980 20.775179,74.599487 57.717705,45.641613 
	C95.022598,16.399691 152.028641,38.148758 160.359436,84.801712 
	C167.003952,122.011398 142.741867,155.895569 105.311638,161.003754 
	C91.852531,162.840561 78.741127,160.596283 66.260902,153.892670 
M95.735168,65.392639 
	C94.432602,65.652458 93.132347,65.924599 91.827110,66.170242 
	C73.874146,69.548882 62.778065,85.633728 66.301941,103.176422 
	C69.810585,120.643295 86.510605,131.406982 104.167259,127.581787 
	C119.926048,124.167763 130.966476,107.462532 127.842644,91.758728 
	C124.744514,76.184235 113.506035,66.697090 95.735168,65.392639 
z"/>
<path fill="#00A6B8" opacity="1.000000" stroke="none" 
	d="
M282.140564,205.176819 
	C285.934540,199.472580 289.592682,194.108200 293.077576,188.633560 
	C294.944946,185.700043 296.528900,184.610764 299.582550,187.553146 
	C306.325500,194.050430 314.480774,198.584167 323.523560,203.188934 
	C288.282776,256.056488 253.306335,308.527527 218.001877,361.490601 
	C209.527756,353.522736 200.654144,347.788696 190.328003,342.882996 
	C221.084579,296.746338 251.508575,251.108551 282.140564,205.176819 
z"/>
<path fill="#00A6B8" opacity="1.000000" stroke="none" 
	d="
M331.352844,357.315430 
	C336.135895,355.471252 338.193817,356.812958 338.283386,361.701324 
	C338.447418,370.653656 342.105347,378.804840 344.892456,387.261871 
	C341.355255,389.865448 337.228577,389.970459 333.467163,390.928650 
	C304.304077,398.357849 275.101959,405.634186 245.895370,412.891296 
	C243.694016,413.438263 240.390427,415.087799 240.139328,410.928894 
	C239.549805,401.164429 236.686554,392.027679 232.479782,382.099426 
	C265.707733,373.781555 298.340759,365.612640 331.352844,357.315430 
z"/>
<path fill="#00A6B8" opacity="1.000000" stroke="none" 
	d="
M181.907501,90.851135 
	C194.689774,92.496857 207.037338,94.105522 219.391190,95.664230 
	C234.216873,97.534828 249.053619,99.318626 263.873016,101.237213 
	C268.123383,101.787491 272.501862,101.658852 277.271057,103.551918 
	C275.105804,113.753426 272.782166,124.052834 273.402924,134.692932 
	C268.318390,136.366714 263.759155,134.557602 259.266083,134.032501 
	C232.869354,130.947495 206.510452,127.538528 180.141281,124.219078 
	C178.658676,124.032448 177.208923,123.554527 175.724884,123.416122 
	C172.931396,123.155609 172.553101,121.704971 173.222382,119.282112 
	C175.713379,110.264656 177.060440,101.083611 176.562180,91.952827 
	C178.132416,90.166603 179.874466,90.839188 181.907501,90.851135 
z"/>
<path fill="#00A6B8" opacity="1.000000" stroke="none" 
	d="
M406.048645,254.155457 
	C407.839233,260.591278 409.510834,266.640594 411.419434,273.547546 
	C400.482819,274.938965 390.263336,277.396301 381.054382,282.136444 
	C378.457611,280.937927 378.573456,278.655487 378.050537,276.857178 
	C371.932922,255.818619 365.978516,234.732376 359.801758,213.711380 
	C358.557434,209.476593 359.210846,207.852570 364.027405,207.524750 
	C371.000854,207.050125 377.658112,204.757614 384.094818,201.965958 
	C385.888611,201.187973 387.572479,200.000000 390.521606,200.157593 
	C395.614349,217.877518 400.771973,235.823242 406.048645,254.155457 
z"/>
</svg>