<svg version="1.1" id="Layer_1" xmlns="http://www.w3.org/2000/svg" xmlns:xlink="http://www.w3.org/1999/xlink" x="0px" y="0px"
	 width="100%" viewBox="0 0 281 239" enable-background="new 0 0 281 239" xml:space="preserve">
<path fill="none" opacity="1.000000" stroke="none" 
	d="
M192.000000,240.000000 
	C128.000000,240.000000 64.500015,240.000000 1.000017,240.000000 
	C1.000011,160.333344 1.000011,80.666702 1.000006,1.000038 
	C94.666634,1.000026 188.333267,1.000026 281.999939,1.000013 
	C281.999939,80.666634 281.999939,160.333267 281.999969,239.999939 
	C252.166672,240.000000 222.333328,240.000000 192.000000,240.000000 
M67.453506,37.941578 
	C28.964035,71.460045 17.155037,124.539818 38.307484,168.948807 
	C73.769417,243.400192 174.745514,258.148315 230.128174,196.936600 
	C270.445831,152.375519 268.938049,84.644394 224.634735,42.581429 
	C180.472305,0.652211 115.289635,-1.000516 67.453506,37.941578 
z"/>
<path fill="#FF0101" opacity="1.000000" stroke="none" 
	d="
M67.718117,37.705887 
	C115.289635,-1.000516 180.472305,0.652211 224.634735,42.581429 
	C268.938049,84.644394 270.445831,152.375519 230.128174,196.936600 
	C174.745514,258.148315 73.769417,243.400192 38.307484,168.948807 
	C17.155037,124.539818 28.964035,71.460045 67.718117,37.705887 
z"/>
</svg>