<?xml version="1.0" encoding="utf-8"?>
<!-- Svg Vector Icons : http://www.onlinewebfonts.com/icon -->
<!DOCTYPE svg PUBLIC "-//W3C//DTD SVG 1.1//EN" "http://www.w3.org/Graphics/SVG/1.1/DTD/svg11.dtd">
<svg version="1.1" xmlns="http://www.w3.org/2000/svg" xmlns:xlink="http://www.w3.org/1999/xlink" x="0px" y="0px" viewBox="0 0 256 256" enable-background="new 0 0 256 256" xml:space="preserve">
<metadata> Svg Vector Icons : http://www.onlinewebfonts.com/icon </metadata>
<g> <path fill="#00DAF3" d="M120.6,10h-14.7v22.1C52,38,10,83.8,10,139.1c0,59,47.9,106.9,106.9,106.9c43.5,0,81.1-25.8,97.3-63.4 l17,4.4c8.1-13.3,14.8-31.7,14.8-54.6C246,64.6,187,10,120.6,10L120.6,10z M116.9,231.3c-50.9,0-92.2-41.3-92.2-92.2 c0-46.5,36.1-85.5,81.1-92.2v98.8l93.7,32.5C187,209.9,151.6,231.3,116.9,231.3L116.9,231.3z M220.9,169.3l-100.3-33.9V24.8 c57.5,0,109.9,49.4,109.9,107.7C230.5,147.2,226.8,159,220.9,169.3L220.9,169.3z"/></g>
</svg>