<?xml version="1.0" encoding="UTF-8" standalone="no"?>
<svg 
  version="1.1" 
  xmlns="http://www.w3.org/2000/svg" 
  xmlns:xlink="http://www.w3.org/1999/xlink" 
  xmlns:svg="http://www.w3.org/2000/svg"
  xmlns:rdf="http://www.w3.org/1999/02/22-rdf-syntax-ns#"
  xmlns:cc="http://creativecommons.org/ns#"
  xmlns:dc="http://purl.org/dc/elements/1.1/"
  viewBox="0 0 768 768"
  width="768"
  height="768"
>
<style>svg {background-color: white; }</style>"
<metadata id="metadata1">
Created by https://svgstud.io and licensed under CC-BY-SA 4.0 license. Please attribute https://svgstud.io
</metadata>
<metadata id="prompt">
Rostro facial biometrico
</metadata>
<metadata id="version">
7
</metadata>
<metadata id="metadata2">
<rdf:RDF>
<cc:Work
    rdf:about="">
    <cc:license
    rdf:resource="http://creativecommons.org/licenses/by-sa/4.0/" />
    <dc:creator>
        <cc:Agent>
            <dc:title>https://svgstud.io</dc:title>
        </cc:Agent>
    </dc:creator>
</cc:Work>
<cc:License
    rdf:about="http://creativecommons.org/licenses/by-sa/4.0/">
    <cc:permits
    rdf:resource="http://creativecommons.org/ns#Reproduction" />
    <cc:permits
    rdf:resource="http://creativecommons.org/ns#Distribution" />
    <cc:requires
    rdf:resource="http://creativecommons.org/ns#Notice" />
    <cc:requires
    rdf:resource="http://creativecommons.org/ns#Attribution" />
    <cc:permits
    rdf:resource="http://creativecommons.org/ns#DerivativeWorks" />
    <cc:requires
    rdf:resource="http://creativecommons.org/ns#ShareAlike" />
</cc:License>
</rdf:RDF>
</metadata>
<metadata id="uid">
0955995a086795fac277aac947c27df04beed1742560d248b67bee06a3f6230c
</metadata>
<path stroke="none" fill="#00DAF3" fill-rule="evenodd" d="M398.50,752.62C394.10,752.68 389.26,752.54 387.75,752.30C385.93,752.01 384.85,751.13 384.54,749.68C384.29,748.48 383.37,742.73 382.50,736.90C381.63,731.07 380.04,722.60 378.96,718.08C377.88,713.56 375.49,706.63 373.65,702.68C371.81,698.73 368.23,692.80 365.70,689.50C363.17,686.20 358.25,680.46 354.76,676.75C351.28,673.04 347.88,670.00 347.21,670.00C346.55,670.00 346.00,670.67 346.00,671.50C346.00,672.33 345.75,673.00 345.43,673.00C345.12,673.00 343.94,672.50 342.79,671.89C340.76,670.80 340.73,670.92 341.39,677.64C341.75,681.41 342.46,689.23 342.96,695.00C343.46,700.77 344.19,715.35 344.58,727.39C345.30,749.29 345.30,749.29 338.26,748.59C334.39,748.21 327.74,747.07 323.48,746.06C319.23,745.04 315.36,743.60 314.89,742.86C314.42,742.11 314.02,729.58 314.01,715.00C313.99,700.42 313.53,680.99 312.97,671.82C312.38,662.04 311.33,653.35 310.44,650.82C309.60,648.44 306.80,644.33 304.21,641.67C301.62,639.02 298.29,636.21 296.81,635.43C294.92,634.43 293.91,634.33 293.44,635.10C293.07,635.70 293.10,658.87 293.51,686.59C294.03,722.24 293.93,737.00 293.18,737.00C292.59,737.00 288.27,735.61 283.59,733.92C278.91,732.23 273.26,729.52 271.04,727.91C267.00,724.99 267.00,724.99 266.98,696.74C266.97,681.21 266.52,656.80 265.99,642.50C265.45,628.20 264.53,612.90 263.93,608.50C263.33,604.10 261.94,597.80 260.84,594.50C259.74,591.20 257.58,586.48 256.04,584.00C254.51,581.52 250.56,575.23 247.28,570.00C243.99,564.77 236.77,551.95 231.25,541.50C225.72,531.05 219.29,518.00 216.96,512.50C214.63,507.00 210.73,496.65 208.31,489.50C205.89,482.35 201.94,468.85 199.53,459.50C197.12,450.15 194.25,436.43 193.14,429.00C192.03,421.57 190.41,408.30 189.53,399.50C188.65,390.70 186.82,373.15 185.47,360.50C184.12,347.85 182.35,330.52 181.55,322.00C180.74,313.48 179.56,295.25 178.91,281.50C178.27,267.75 178.00,246.38 178.32,234.00C178.70,219.11 179.43,209.16 180.47,204.59C181.33,200.79 184.05,192.90 186.52,187.06C188.98,181.22 191.70,175.45 192.56,174.22C193.41,173.00 194.54,172.00 195.06,172.00C195.59,172.00 196.05,177.51 196.12,184.75C196.18,191.76 196.54,198.85 196.92,200.50C197.58,203.46 197.61,203.44 199.24,198.50C200.14,195.75 202.29,187.43 204.02,180.00C205.74,172.57 208.43,161.10 210.00,154.50C211.57,147.90 215.09,135.97 217.83,128.00C220.57,120.03 224.81,108.78 227.26,103.00C229.71,97.22 233.31,89.33 235.27,85.45C237.22,81.57 242.01,72.92 245.91,66.22C249.81,59.52 253.00,53.63 253.00,53.12C253.00,52.60 251.99,52.44 250.75,52.75C249.51,53.06 243.53,58.31 237.46,64.41C230.45,71.45 224.01,79.15 219.80,85.50C216.16,91.00 211.59,98.42 209.65,102.00C207.70,105.58 202.76,116.83 198.67,127.00C194.58,137.18 188.63,151.48 185.46,158.80C181.46,168.00 179.37,171.77 178.65,171.05C178.01,170.41 177.67,164.50 177.76,155.75C177.84,147.91 178.59,136.73 179.41,130.91C180.23,125.08 182.26,116.61 183.91,112.09C185.56,107.57 189.02,100.00 191.60,95.26C194.19,90.52 199.80,81.43 204.08,75.07C208.36,68.71 215.54,59.24 220.02,54.03C224.51,48.82 227.66,44.39 227.02,44.17C226.39,43.96 223.08,45.16 219.67,46.84C216.26,48.52 209.20,53.44 203.99,57.77C198.77,62.10 190.93,69.44 186.58,74.07C182.22,78.71 176.06,85.98 172.91,90.23C169.75,94.48 164.90,101.70 162.13,106.28C159.37,110.86 153.96,120.89 150.11,128.57C146.27,136.25 141.77,146.57 140.12,151.52C138.47,156.46 136.61,163.48 135.98,167.12C135.35,170.75 135.03,175.03 135.25,176.62C135.65,179.43 135.71,179.39 137.55,175.00C138.59,172.53 141.03,167.37 142.97,163.54C144.91,159.71 147.13,156.39 147.89,156.16C149.02,155.82 149.17,156.86 148.66,161.62C148.32,164.85 147.52,175.38 146.89,185.00C146.21,195.34 146.01,209.66 146.41,220.00C146.77,229.62 147.52,243.35 148.07,250.50C148.61,257.65 149.97,271.82 151.09,282.00C152.20,292.18 154.47,309.95 156.13,321.50C157.79,333.05 162.47,360.77 166.52,383.10C170.58,405.43 175.30,429.28 177.02,436.10C178.74,442.92 181.75,453.45 183.70,459.50C185.64,465.55 188.95,474.77 191.04,480.00C193.13,485.23 197.85,496.25 201.54,504.50C205.22,512.75 210.66,525.52 213.62,532.88C216.58,540.23 219.00,547.16 219.00,548.28C219.00,550.28 218.97,550.28 216.88,548.40C215.72,547.36 210.36,540.20 204.98,532.50C199.59,524.80 192.37,513.77 188.93,508.00C185.49,502.23 178.28,488.50 172.93,477.50C167.57,466.50 161.55,453.08 159.55,447.67C157.55,442.27 154.37,432.49 152.48,425.94C150.60,419.39 147.72,407.62 146.10,399.77C144.47,391.92 142.22,379.84 141.10,372.93C139.98,366.02 137.95,349.82 136.58,336.93C135.21,324.04 133.34,304.73 132.43,294.02C131.52,283.31 130.36,273.45 129.85,272.11C129.17,270.33 128.63,269.97 127.82,270.78C127.21,271.39 125.89,279.00 124.90,287.70C123.91,296.39 123.06,303.95 123.02,304.50C122.97,305.05 122.51,304.76 121.98,303.86C121.45,302.96 120.54,298.91 119.94,294.86C119.35,290.81 118.49,270.85 118.05,250.50C117.61,230.15 116.81,212.41 116.29,211.08C115.69,209.56 115.07,209.08 114.63,209.79C114.24,210.42 113.07,214.88 112.02,219.71C110.97,224.55 109.30,235.03 108.32,243.00C106.82,255.04 106.52,265.30 106.52,303.50C106.52,341.62 106.82,352.07 108.32,364.50C109.31,372.75 111.00,384.08 112.08,389.67C113.16,395.26 115.84,405.99 118.04,413.52C120.24,421.04 123.65,431.50 125.62,436.75C127.59,442.01 131.77,451.75 134.92,458.40C138.07,465.06 144.16,476.35 148.47,483.50C152.77,490.65 158.52,499.81 161.25,503.85C163.97,507.90 170.64,516.73 176.06,523.48C181.49,530.23 189.21,539.07 193.24,543.13C197.26,547.18 206.72,555.62 214.25,561.88C226.71,572.22 228.14,573.75 229.98,578.66C231.09,581.64 232.00,584.96 232.00,586.05C232.00,587.84 231.23,587.64 223.75,583.88C219.21,581.60 213.03,578.16 210.00,576.24C206.97,574.33 200.22,569.35 195.00,565.18C189.78,561.01 180.16,552.40 173.64,546.05C167.11,539.70 158.68,530.63 154.89,525.90C151.10,521.18 146.62,515.33 144.93,512.90C143.24,510.48 139.44,504.82 136.48,500.33C133.52,495.84 128.40,487.07 125.10,480.83C121.80,474.60 117.07,464.42 114.58,458.22C112.09,452.01 108.29,441.43 106.14,434.70C103.99,427.97 100.85,416.39 99.18,408.98C97.50,401.57 95.21,389.20 94.09,381.50C92.98,373.80 91.60,361.70 91.03,354.60C90.46,347.51 90.00,328.61 90.01,312.60C90.02,296.60 90.47,276.98 91.01,269.00C91.56,261.02 92.47,250.45 93.03,245.50C93.60,240.55 95.21,229.07 96.61,220.00C98.01,210.93 100.28,198.78 101.65,193.00C103.02,187.22 105.69,177.45 107.59,171.28C109.49,165.11 113.23,154.97 115.90,148.74C118.56,142.51 123.12,133.16 126.03,127.96C128.93,122.76 134.12,114.45 137.56,109.50C140.99,104.55 147.44,96.16 151.89,90.85C156.33,85.54 163.47,77.97 167.74,74.03C172.01,70.09 179.67,63.71 184.76,59.86C189.85,56.01 200.43,49.04 208.26,44.37C216.09,39.70 230.38,31.91 240.00,27.05C249.62,22.20 262.86,15.91 269.40,13.07C275.95,10.23 286.46,6.12 292.76,3.95C304.22,0.00 304.22,0.00 412.15,0.00C520.07,-0.00 520.07,-0.00 531.78,4.59C538.23,7.12 547.77,11.44 553.00,14.21C558.23,16.97 566.33,21.86 571.00,25.06C575.68,28.26 584.08,35.07 589.69,40.19C595.29,45.31 602.31,52.42 605.28,56.00C608.26,59.58 612.81,65.65 615.39,69.50C617.97,73.34 622.55,81.32 625.57,87.23C628.59,93.13 632.66,102.10 634.62,107.16C636.57,112.22 639.90,123.14 642.01,131.43C644.12,139.72 647.02,153.03 648.45,161.00C649.88,168.97 652.60,188.55 654.50,204.50C656.40,220.45 658.64,242.28 659.48,253.00C660.32,263.73 661.48,284.43 662.05,299.00C662.79,317.68 662.78,334.94 662.02,357.50C661.42,375.10 660.49,395.35 659.95,402.50C659.40,409.65 657.87,428.32 656.54,444.00C655.21,459.68 653.40,482.18 652.52,494.00C651.64,505.82 649.79,526.30 648.42,539.50C647.04,552.70 644.60,572.50 642.99,583.50C641.38,594.50 639.40,607.33 638.59,612.00C637.78,616.67 635.03,633.25 632.48,648.84C629.93,664.43 627.21,679.30 626.44,681.89C625.67,684.47 623.49,688.41 621.59,690.63C619.49,693.08 615.84,695.68 612.31,697.25C609.12,698.67 603.03,700.37 598.78,701.05C593.66,701.85 584.76,702.08 572.28,701.72C561.95,701.42 550.58,700.64 547.00,699.98C543.42,699.32 540.00,698.26 539.38,697.64C538.55,696.80 538.59,693.89 539.55,686.50C540.26,681.00 541.35,670.20 541.97,662.50C542.59,654.80 543.37,635.90 543.70,620.50C544.02,605.10 543.97,589.91 543.57,586.75C543.18,583.59 542.49,581.00 542.05,581.00C541.61,581.00 540.54,583.81 539.69,587.25C538.83,590.69 537.67,597.10 537.10,601.50C536.53,605.90 535.35,617.38 534.47,627.00C533.60,636.62 532.25,649.23 531.48,655.00C530.71,660.77 529.54,667.30 528.89,669.50C527.71,673.50 527.71,673.50 526.78,670.50C526.27,668.85 525.54,654.60 525.17,638.82C524.79,623.05 524.14,609.81 523.73,609.40C523.32,608.98 521.58,609.96 519.86,611.57C518.15,613.18 512.90,618.77 508.21,624.00C503.52,629.23 497.10,637.41 493.96,642.18C490.81,646.95 487.50,653.02 486.60,655.66C485.70,658.30 482.00,675.77 478.38,694.48C474.67,713.63 471.69,731.78 471.56,736.00C471.34,743.50 471.34,743.50 467.42,744.81C465.26,745.53 460.69,746.38 457.25,746.70C451.00,747.29 451.00,747.29 451.00,724.79C451.00,712.42 450.71,699.53 450.36,696.15C450.00,692.77 449.35,690.00 448.91,690.00C448.47,690.00 445.43,692.22 442.17,694.94C438.91,697.65 432.54,704.29 428.03,709.69C423.52,715.08 417.99,722.63 415.75,726.46C413.51,730.28 410.89,735.91 409.93,738.96C408.97,742.01 407.81,746.30 407.34,748.50C406.50,752.50 406.50,752.50 398.50,752.62zM593.77,681.00C594.20,681.00 596.22,679.62 598.27,677.93C600.32,676.24 603.09,672.97 604.42,670.68C605.75,668.38 607.79,663.58 608.95,660.00C610.11,656.42 611.93,649.00 613.00,643.50C614.08,638.00 615.84,627.20 616.91,619.50C617.99,611.80 619.57,597.17 620.41,587.00C621.26,576.83 622.47,561.08 623.11,552.00C623.75,542.92 624.32,520.42 624.38,502.00C624.50,469.89 624.41,468.17 622.21,460.61C620.96,456.27 618.56,449.26 616.89,445.04C615.22,440.81 612.78,436.04 611.46,434.43C609.07,431.50 609.07,431.50 609.56,444.00C610.02,455.56 609.94,456.28 608.57,453.50C607.75,451.85 606.10,448.14 604.91,445.25C603.73,442.36 602.34,440.00 601.84,440.00C601.34,440.00 601.18,442.14 601.48,444.75C601.78,447.36 602.46,454.90 602.99,461.50C603.51,468.10 604.23,481.38 604.59,491.00C604.95,500.62 604.72,520.20 604.09,534.50C603.45,548.80 602.03,571.98 600.92,586.00C599.82,600.02 598.04,618.02 596.98,626.00C595.91,633.98 593.90,647.92 592.52,657.00C591.14,666.08 590.00,674.79 590.00,676.36C590.00,678.49 590.38,679.07 591.50,678.64C592.41,678.29 593.00,678.64 593.00,679.53C593.00,680.34 593.35,681.00 593.77,681.00zM401.06,653.43C408.52,653.19 417.29,652.31 420.56,651.48C423.83,650.65 429.69,648.41 433.59,646.51C437.49,644.61 446.71,639.03 454.09,634.12C461.46,629.21 471.72,621.79 476.89,617.64C482.05,613.49 490.80,605.91 496.33,600.80C501.87,595.68 511.97,584.98 518.79,577.00C525.61,569.02 534.05,558.21 537.55,552.97C541.05,547.72 545.01,540.97 546.34,537.97C547.66,534.96 549.51,530.28 550.43,527.56C551.35,524.84 553.18,518.48 554.50,513.42C555.81,508.36 558.25,496.63 559.93,487.36C561.60,478.09 564.30,459.70 565.93,446.50C567.57,433.30 569.15,419.57 569.46,416.00C569.77,412.43 571.12,398.02 572.46,384.00C573.81,369.98 575.20,352.20 575.56,344.50C575.93,336.49 575.74,325.63 575.12,319.12C574.25,309.97 573.42,306.41 570.91,300.96C569.20,297.24 566.34,292.79 564.57,291.07C562.12,288.69 560.12,287.80 556.19,287.34C552.68,286.92 550.55,287.13 549.50,288.00C548.63,288.72 548.20,290.07 548.53,291.08C548.85,292.11 548.06,294.51 546.68,296.69C545.35,298.79 541.74,302.88 538.65,305.79C535.18,309.06 529.90,312.57 524.77,315.01C520.22,317.18 513.58,319.75 510.00,320.71C505.50,321.92 499.82,322.46 491.50,322.45C483.16,322.45 477.21,321.88 472.00,320.58C467.88,319.55 460.55,317.03 455.73,314.96C450.91,312.90 445.40,310.02 443.48,308.55C441.57,307.09 440.00,305.47 440.00,304.95C440.00,304.41 444.32,304.00 449.91,304.00C455.36,304.00 465.37,304.73 472.16,305.62C479.99,306.64 487.79,307.03 493.50,306.68C498.45,306.38 506.94,305.22 512.37,304.11C518.20,302.92 523.60,301.16 525.55,299.83C527.36,298.58 528.65,297.24 528.40,296.84C528.15,296.44 525.82,296.76 523.23,297.54C520.63,298.33 517.15,298.98 515.50,298.98C512.50,298.99 512.50,298.99 515.25,296.75C516.75,295.51 519.12,292.95 520.50,291.06C521.87,289.16 523.00,286.58 523.00,285.33C523.00,284.00 521.96,282.36 520.50,281.41C519.12,280.51 518.00,279.15 518.00,278.38C518.00,277.62 517.39,277.00 516.63,277.00C515.88,277.00 514.32,279.58 513.16,282.75C512.00,285.91 509.20,290.75 506.93,293.50C504.66,296.25 501.61,299.14 500.15,299.91C498.69,300.69 494.31,301.53 490.42,301.79C485.61,302.09 481.53,301.72 477.71,300.60C473.62,299.41 471.40,298.07 469.59,295.70C468.22,293.91 466.19,290.43 465.07,287.97C463.96,285.51 463.03,282.26 463.02,280.75C463.01,278.73 462.50,278.00 461.11,278.00C460.07,278.00 457.03,279.96 454.36,282.35C451.69,284.74 448.49,287.23 447.25,287.88C446.01,288.54 445.00,289.49 445.00,290.00C445.00,290.51 445.93,291.79 447.07,292.85C448.21,293.91 451.21,295.36 453.74,296.07C457.43,297.10 457.96,297.50 456.42,298.11C455.36,298.52 449.55,298.88 443.50,298.91C437.45,298.94 431.87,298.57 431.09,298.08C429.91,297.33 429.89,296.67 430.96,294.10C431.66,292.41 436.60,286.85 441.93,281.76C447.26,276.67 454.52,270.80 458.06,268.72C461.60,266.65 467.35,264.06 470.82,262.98C474.30,261.90 479.92,260.57 483.32,260.02C486.72,259.47 491.98,259.01 495.02,259.01C498.06,259.00 503.54,259.83 507.21,260.85C510.92,261.88 514.45,262.34 515.17,261.90C516.06,261.35 515.02,260.46 511.87,259.06C509.34,257.94 503.79,256.51 499.53,255.88C493.63,255.00 489.77,255.01 483.28,255.92C478.59,256.57 471.26,258.39 466.98,259.95C462.71,261.51 456.47,264.64 453.13,266.91C449.78,269.18 442.91,274.63 437.85,279.02C432.73,283.46 427.74,287.00 426.58,287.01C425.44,287.01 423.21,287.68 421.64,288.51C420.06,289.33 418.60,290.00 418.39,290.00C418.17,290.00 418.00,288.29 418.00,286.19C418.00,284.10 417.37,281.52 416.61,280.48C415.29,278.68 414.89,278.92 409.28,284.79C406.02,288.20 402.82,291.00 402.18,291.00C401.53,291.00 401.00,291.48 401.00,292.06C401.00,292.64 400.55,292.84 400.00,292.50C399.44,292.15 399.00,287.39 399.00,281.65C399.00,275.81 399.64,268.96 400.49,265.69C401.31,262.54 403.17,257.61 404.63,254.73C406.08,251.85 409.01,247.06 411.13,244.09C413.54,240.72 415.00,237.55 415.00,235.70C415.00,234.07 415.53,230.97 416.18,228.81C416.82,226.65 419.12,222.87 421.29,220.41C423.46,217.95 426.41,215.35 427.86,214.63C429.31,213.91 433.88,212.76 438.00,212.06C442.12,211.37 448.88,210.19 453.00,209.43C457.12,208.67 464.55,207.55 469.50,206.94C474.45,206.33 486.60,205.83 496.50,205.83C509.41,205.82 516.76,206.29 522.50,207.48C526.90,208.39 533.65,210.68 537.51,212.57C541.36,214.46 544.83,216.00 545.21,216.00C545.60,216.00 545.28,214.20 544.50,212.00C543.72,209.80 540.93,204.08 538.29,199.29C534.76,192.87 530.74,187.72 523.00,179.67C517.23,173.66 508.90,165.85 504.50,162.30C500.10,158.76 493.57,154.11 490.00,151.96C486.43,149.82 476.07,145.11 467.00,141.49C457.93,137.86 444.65,133.09 437.50,130.88C430.35,128.66 413.70,124.22 400.50,121.01C387.30,117.79 371.10,113.96 364.50,112.50C357.90,111.04 348.45,108.48 343.50,106.80C338.55,105.13 331.80,102.40 328.50,100.74C325.20,99.08 319.17,95.48 315.10,92.73C311.04,89.99 304.22,84.41 299.96,80.34C295.70,76.27 291.16,71.39 289.86,69.48C288.56,67.57 286.82,66.01 285.99,66.01C285.15,66.00 281.48,68.70 277.82,72.01C274.16,75.31 268.26,81.50 264.71,85.76C261.17,90.02 256.12,96.82 253.50,100.87C250.89,104.93 246.36,113.26 243.44,119.40C240.53,125.53 236.13,136.61 233.66,144.02C231.20,151.44 227.81,162.68 226.14,169.00C224.47,175.32 221.67,188.06 219.92,197.29C218.18,206.53 216.92,214.26 217.13,214.47C217.35,214.68 221.12,213.09 225.51,210.93C230.77,208.35 236.06,206.62 241.00,205.87C245.92,205.13 255.03,204.96 267.50,205.39C277.95,205.75 293.02,206.92 301.00,207.99C308.98,209.06 318.20,210.39 321.50,210.95C324.80,211.51 329.98,212.64 333.00,213.46C337.20,214.60 339.42,215.96 342.39,219.22C344.53,221.58 347.11,225.30 348.12,227.50C349.13,229.70 349.97,233.65 349.98,236.28C350.00,240.36 350.61,241.82 354.15,246.28C356.43,249.15 359.30,253.75 360.52,256.50C361.75,259.25 363.06,263.80 363.45,266.62C363.89,269.86 363.59,275.00 362.61,280.62C361.77,285.50 360.33,292.76 359.43,296.74C358.53,300.73 357.38,303.74 356.89,303.43C356.40,303.13 356.00,301.36 356.00,299.49C356.00,297.62 355.52,293.86 354.93,291.13C353.87,286.16 353.87,286.16 346.31,285.45C338.75,284.74 338.75,284.74 329.13,276.40C323.83,271.81 316.49,266.46 312.80,264.50C309.12,262.55 302.59,260.03 298.30,258.92C293.62,257.70 285.50,256.66 278.00,256.31C270.11,255.95 263.47,256.16 260.00,256.90C256.98,257.53 253.83,258.47 253.01,258.98C251.91,259.67 251.81,260.21 252.63,261.03C253.46,261.86 255.17,261.73 259.13,260.54C262.08,259.65 267.91,258.66 272.07,258.33C276.42,257.99 282.59,258.24 286.57,258.94C290.38,259.60 297.10,261.85 301.50,263.95C305.90,266.04 311.75,269.38 314.50,271.38C317.25,273.37 322.99,278.44 327.27,282.64C331.54,286.84 335.31,291.38 335.65,292.72C336.02,294.21 335.72,295.70 334.88,296.54C334.12,297.29 331.25,298.02 328.50,298.17C325.75,298.31 319.74,298.33 315.14,298.21C306.78,298.00 306.78,298.00 311.89,293.41C314.70,290.88 317.00,288.00 317.00,286.99C317.00,285.99 315.09,283.77 312.75,282.05C310.42,280.33 307.65,279.05 306.60,279.21C305.39,279.39 304.19,280.95 303.33,283.44C302.59,285.60 300.41,289.39 298.49,291.85C296.57,294.31 295.00,296.64 295.00,297.01C295.00,297.39 293.10,298.55 290.77,299.60C287.83,300.92 284.27,301.50 279.02,301.50C273.27,301.50 270.69,301.02 268.06,299.48C266.12,298.34 263.20,295.07 261.37,291.98C259.59,288.96 257.60,284.36 256.96,281.75C256.32,279.14 255.31,277.00 254.70,277.00C254.10,277.00 251.87,278.20 249.74,279.68C247.62,281.15 245.46,283.14 244.94,284.10C244.24,285.42 244.67,286.65 246.72,289.08C248.21,290.85 251.24,293.63 253.46,295.26C257.50,298.22 257.50,298.22 254.00,297.49C252.07,297.09 247.63,295.46 244.11,293.88C240.60,292.30 237.47,291.00 237.17,291.00C236.86,291.00 238.16,292.61 240.05,294.59C241.95,296.56 245.07,298.99 247.00,299.98C248.93,300.97 254.84,302.72 260.14,303.87C265.45,305.02 273.32,306.04 277.64,306.13C281.96,306.23 292.79,305.50 301.69,304.53C310.81,303.53 319.53,303.07 321.67,303.47C325.45,304.18 325.45,304.18 321.48,306.64C319.29,307.99 314.62,310.43 311.11,312.05C307.60,313.67 301.07,316.19 296.61,317.63C290.59,319.59 285.65,320.39 277.46,320.75C269.54,321.10 264.18,320.78 258.46,319.61C254.08,318.71 247.76,316.64 244.42,315.01C240.75,313.22 234.89,308.82 229.66,303.92C224.88,299.45 220.39,296.02 219.68,296.29C218.96,296.57 217.84,298.58 217.19,300.76C216.54,302.95 216.00,309.40 216.00,315.12C216.00,320.83 216.70,331.57 217.56,339.00C218.41,346.43 220.00,358.12 221.09,365.00C222.18,371.88 224.14,382.90 225.46,389.50C226.77,396.10 228.54,405.32 229.39,410.00C230.24,414.68 232.30,427.73 233.98,439.00C235.66,450.27 237.97,465.35 239.12,472.50C240.27,479.65 242.75,491.57 244.64,499.00C246.53,506.43 250.14,518.75 252.66,526.39C255.19,534.03 259.92,545.50 263.18,551.89C266.44,558.28 274.29,571.29 280.63,580.81C290.15,595.12 294.52,600.58 305.82,612.22C313.35,619.98 322.83,628.97 326.89,632.22C330.96,635.47 338.30,640.14 343.20,642.60C348.10,645.06 356.40,648.22 361.63,649.61C366.87,651.00 374.83,652.53 379.32,653.01C383.82,653.48 393.60,653.67 401.06,653.43zM577.88,650.00C578.36,650.00 579.67,647.86 580.78,645.25C581.89,642.64 583.75,635.90 584.91,630.29C586.06,624.67 587.54,613.27 588.20,604.97C589.12,593.25 589.12,586.90 588.19,576.68C587.53,569.43 585.64,554.76 584.00,544.09C582.36,533.41 580.78,524.45 580.51,524.17C580.23,523.89 579.78,523.89 579.50,524.16C579.23,524.44 578.56,539.25 578.02,557.08C577.47,574.91 577.02,603.11 577.01,619.75C577.01,636.43 577.39,650.00 577.88,650.00zM392.00,588.69C384.02,588.80 375.81,588.47 373.73,587.96C371.66,587.44 368.22,586.13 366.09,585.05C363.96,583.96 358.65,580.38 354.28,577.09C349.92,573.81 342.52,566.93 337.83,561.81C333.14,556.69 328.75,551.45 328.07,550.16C327.39,548.88 327.07,547.60 327.35,547.32C327.63,547.04 330.48,547.78 333.68,548.97C336.88,550.16 342.20,552.64 345.50,554.47C348.80,556.30 354.65,558.71 358.50,559.83C362.53,561.00 370.17,562.11 376.50,562.45C382.55,562.78 394.03,562.60 402.01,562.05C411.78,561.38 418.47,560.39 422.45,559.02C425.71,557.90 430.88,555.58 433.94,553.87C437.00,552.17 440.96,549.67 442.75,548.33C444.54,546.99 446.00,545.47 446.00,544.95C446.00,544.43 443.78,544.00 441.07,544.00C438.35,544.00 432.84,543.28 428.82,542.40C424.79,541.52 417.45,540.74 412.50,540.65C405.44,540.53 402.08,540.99 396.89,542.78C390.29,545.07 390.29,545.07 381.39,543.14C376.50,542.08 368.16,540.69 362.85,540.04C354.10,538.99 352.38,539.07 344.52,540.94C339.75,542.07 333.22,543.00 330.01,543.00C325.61,543.00 322.63,542.27 317.84,540.00C314.35,538.35 310.78,537.00 309.89,537.00C309.00,537.00 306.62,538.12 304.60,539.50C302.57,540.88 300.25,542.00 299.43,542.00C298.62,542.00 297.45,540.88 296.82,539.50C295.96,537.62 295.98,536.02 296.89,532.97C297.56,530.75 300.03,526.92 302.38,524.46C304.73,522.01 307.52,520.00 308.58,520.01C309.66,520.01 311.24,521.32 312.20,523.01C313.69,525.62 314.46,526.00 318.33,526.00C320.76,526.00 324.50,525.28 326.63,524.41C328.76,523.53 336.57,520.07 344.00,516.71C353.93,512.21 358.97,510.49 363.06,510.19C367.91,509.84 369.55,510.25 375.79,513.39C379.73,515.38 384.27,517.00 385.89,517.00C387.51,517.00 392.12,515.42 396.14,513.50C400.16,511.57 404.82,510.00 406.51,510.00C408.20,510.00 412.04,510.64 415.04,511.42C418.04,512.21 427.25,515.63 435.50,519.02C447.01,523.76 452.06,525.33 457.20,525.73C463.69,526.24 463.99,526.16 467.06,523.09C470.09,520.07 470.34,519.99 472.64,521.50C473.96,522.36 476.32,524.84 477.88,527.00C479.44,529.15 481.29,532.28 481.98,533.94C482.66,535.60 482.97,537.65 482.65,538.48C482.32,539.32 481.26,540.00 480.28,539.99C479.30,539.99 477.15,539.09 475.50,538.00C473.85,536.91 471.34,536.01 469.92,536.01C468.50,536.00 465.30,537.35 462.81,539.00C460.32,540.65 454.43,546.61 449.73,552.25C445.02,557.89 437.33,566.45 432.64,571.27C425.45,578.65 422.70,580.72 415.30,584.27C406.50,588.50 406.50,588.50 392.00,588.69zM388.76,478.96C385.87,478.94 381.04,478.05 378.04,476.97C375.04,475.89 370.82,473.58 368.65,471.84C365.56,469.36 363.06,468.41 357.01,467.44C352.77,466.77 348.00,465.52 346.40,464.69C344.81,463.85 341.61,461.21 339.30,458.83C336.99,456.45 334.37,452.76 333.48,450.63C332.59,448.48 331.88,443.99 331.88,440.50C331.88,437.05 332.57,432.58 333.41,430.56C334.26,428.54 335.91,425.53 337.08,423.88C338.26,422.23 339.42,421.09 339.67,421.33C339.92,421.58 339.36,424.39 338.44,427.57C337.31,431.44 336.92,435.38 337.25,439.47C337.52,442.84 338.51,447.09 339.46,448.92C341.18,452.25 341.18,452.25 343.97,449.20C345.50,447.52 348.58,445.65 350.81,445.05C353.44,444.34 356.28,444.28 358.88,444.86C361.09,445.36 366.19,447.56 370.20,449.75C374.22,451.93 379.10,454.02 381.06,454.37C383.16,454.75 386.56,454.43 389.35,453.59C391.96,452.81 395.65,450.98 397.55,449.53C399.45,448.08 402.56,446.25 404.47,445.45C406.38,444.65 409.91,444.00 412.32,444.00C414.73,444.00 418.23,444.51 420.10,445.14C421.97,445.76 424.47,447.16 425.67,448.23C427.83,450.18 427.83,450.18 429.55,447.56C430.88,445.53 431.14,443.66 430.70,439.36C430.36,436.04 428.68,430.75 426.54,426.25C424.57,422.10 423.15,418.51 423.39,418.28C423.63,418.04 425.69,419.54 427.98,421.60C430.27,423.67 433.08,427.19 434.23,429.43C435.54,431.99 436.49,436.16 436.78,440.67C437.17,446.63 436.88,448.61 435.07,452.36C433.87,454.84 431.05,458.53 428.81,460.55C426.58,462.57 422.75,465.11 420.32,466.18C417.89,467.26 414.68,468.06 413.20,467.96C411.71,467.87 409.48,467.84 408.24,467.89C407.00,467.95 403.29,470.47 400.00,473.50C394.31,478.73 393.76,479.00 388.76,478.96zM641.25,408.00C641.86,408.00 642.04,406.36 641.71,403.90C641.41,401.65 638.47,394.34 635.18,387.65C631.89,380.97 625.16,369.43 620.24,362.00C615.31,354.57 609.16,346.25 606.57,343.50C601.86,338.50 601.86,338.50 602.44,343.50C602.75,346.25 604.78,352.20 606.95,356.72C609.11,361.24 612.99,368.44 615.57,372.72C618.15,377.00 623.20,384.77 626.79,390.00C630.38,395.23 634.87,401.41 636.78,403.75C638.68,406.09 640.70,408.00 641.25,408.00zM642.66,339.00C643.40,339.00 644.00,338.29 644.00,337.43C644.00,336.56 641.92,332.64 639.39,328.72C636.85,324.80 632.01,318.84 628.64,315.48C625.26,312.12 619.80,307.55 616.50,305.33C613.20,303.11 609.00,300.52 607.16,299.57C605.32,298.63 603.58,298.09 603.29,298.38C603.00,298.67 607.27,304.66 612.79,311.70C618.31,318.74 624.33,325.89 626.16,327.60C628.00,329.30 632.16,332.56 635.41,334.85C638.66,337.13 641.93,339.00 642.66,339.00zM640.25,304.99C640.66,305.00 640.99,304.44 640.99,303.75C640.98,303.06 639.13,299.12 636.88,295.00C634.64,290.88 630.53,284.35 627.75,280.50C624.97,276.65 620.18,270.58 617.10,267.02C614.02,263.45 608.12,256.97 604.00,252.62C599.88,248.26 593.82,242.46 590.54,239.72C587.27,236.98 584.42,235.23 584.22,235.83C584.03,236.42 585.69,240.53 587.92,244.95C590.14,249.37 593.13,254.84 594.56,257.09C595.98,259.34 596.89,261.45 596.57,261.76C596.26,262.08 594.33,261.82 592.30,261.20C590.27,260.58 588.40,260.27 588.15,260.52C587.90,260.76 590.78,263.95 594.55,267.59C598.32,271.23 605.25,277.17 609.95,280.80C614.65,284.42 621.65,290.13 625.50,293.49C629.35,296.85 634.08,300.80 636.00,302.28C637.92,303.77 639.84,304.98 640.25,304.99zM491.50,296.29C493.15,296.00 495.71,295.14 497.19,294.39C498.67,293.63 500.58,292.01 501.44,290.78C502.30,289.56 503.00,288.21 503.00,287.78C503.00,287.35 501.76,287.00 500.25,287.00C498.74,287.01 496.03,287.91 494.23,289.00C492.43,290.10 490.29,291.00 489.48,291.00C488.66,291.00 488.00,290.47 488.00,289.83C488.00,289.18 487.26,287.83 486.35,286.83C485.43,285.82 483.61,285.00 482.28,285.00C480.95,285.00 479.00,285.47 477.93,286.04C476.87,286.60 476.00,287.88 476.00,288.88C476.00,289.88 476.83,291.44 477.85,292.37C478.87,293.29 481.68,294.67 484.10,295.43C486.52,296.20 489.85,296.58 491.50,296.29zM284.05,295.00C285.73,295.00 288.42,294.32 290.03,293.48C291.65,292.65 293.65,290.65 294.48,289.03C295.32,287.42 296.00,284.73 296.00,283.05C296.00,280.80 295.54,280.01 294.25,280.02C293.29,280.03 289.91,282.54 286.75,285.60C283.59,288.67 281.00,292.03 281.00,293.08C281.00,294.55 281.71,295.00 284.05,295.00zM278.23,290.00C279.79,290.00 281.31,289.36 281.61,288.58C281.91,287.80 281.67,286.25 281.08,285.15C280.49,284.04 279.08,282.84 277.95,282.49C276.83,282.13 275.25,282.38 274.45,283.04C273.65,283.70 273.00,285.00 273.00,285.92C273.00,286.85 273.54,288.14 274.20,288.80C274.86,289.46 276.67,290.00 278.23,290.00zM475.95,284.98C476.80,284.98 478.16,284.55 478.96,284.04C480.10,283.33 480.20,282.48 479.44,280.32C478.90,278.78 477.66,277.37 476.68,277.18C475.70,276.99 474.25,277.38 473.45,278.04C472.65,278.70 472.00,280.00 472.00,280.92C472.00,281.85 472.54,283.14 473.20,283.80C473.86,284.46 475.10,284.99 475.95,284.98zM501.78,282.92C503.84,282.97 505.28,282.44 505.64,281.49C505.96,280.66 505.63,279.25 504.90,278.38C504.17,277.50 502.65,276.43 501.53,276.01C500.42,275.58 498.71,275.65 497.75,276.15C496.79,276.66 496.00,278.14 496.00,279.45C496.00,280.76 496.56,282.06 497.25,282.34C497.94,282.62 499.98,282.88 501.78,282.92zM280.03,274.00C280.64,274.00 282.00,273.53 283.07,272.96C284.13,272.40 285.00,271.05 285.00,269.96C285.00,268.56 284.32,268.00 282.62,268.00C281.31,268.00 279.69,268.67 279.01,269.49C278.33,270.31 278.04,271.66 278.36,272.49C278.68,273.32 279.43,274.00 280.03,274.00zM218.63,256.00C218.94,256.00 223.89,254.39 229.64,252.43C236.37,250.13 241.05,249.06 242.79,249.43C244.28,249.74 247.97,249.33 251.00,248.51C254.03,247.68 260.13,246.72 264.56,246.37C269.00,246.02 277.82,246.27 284.17,246.92C290.52,247.58 298.36,248.73 301.60,249.48C304.84,250.23 307.61,250.72 307.77,250.57C307.92,250.41 307.80,249.66 307.50,248.89C307.20,248.13 304.60,245.75 301.73,243.61C298.85,241.47 292.00,237.56 286.50,234.93C281.00,232.30 271.55,228.69 265.50,226.91C257.94,224.69 251.64,223.54 245.34,223.22C237.01,222.81 235.66,223.01 230.37,225.43C227.17,226.90 223.69,228.86 222.64,229.80C221.58,230.73 219.66,233.75 218.37,236.50C216.83,239.77 216.02,243.34 216.01,246.82C216.00,249.74 216.47,253.00 217.04,254.07C217.60,255.13 218.32,256.00 218.63,256.00zM537.13,255.96C538.02,255.98 539.33,255.30 540.04,254.45C541.10,253.18 541.02,252.26 539.60,249.30C538.66,247.31 538.26,245.42 538.72,245.09C539.17,244.77 540.33,243.26 541.30,241.75C542.26,240.24 543.74,239.00 544.59,239.00C545.62,239.00 546.03,238.25 545.82,236.79C545.64,235.53 543.33,232.92 540.50,230.77C537.75,228.68 532.64,226.07 529.14,224.98C525.62,223.88 519.97,223.00 516.46,223.00C511.95,223.00 505.65,224.29 494.58,227.46C486.04,229.91 476.65,233.05 473.73,234.44C470.80,235.82 466.19,239.07 463.49,241.66C458.57,246.38 458.57,246.38 461.54,247.22C463.28,247.72 468.58,247.59 474.44,246.90C480.60,246.17 489.09,245.99 496.76,246.42C505.17,246.88 511.60,247.85 516.82,249.43C521.04,250.71 526.98,252.70 530.00,253.84C533.02,254.99 536.23,255.94 537.13,255.96zM640.17,251.00C640.65,251.00 640.77,249.76 640.43,248.25C640.10,246.74 639.15,243.05 638.33,240.06C637.51,237.07 635.34,231.67 633.52,228.06C631.69,224.45 627.84,218.35 624.97,214.50C622.09,210.65 616.78,204.12 613.16,200.00C609.55,195.88 601.39,187.16 595.04,180.64C588.69,174.11 577.21,163.32 569.53,156.65C559.97,148.34 556.10,144.41 557.28,144.19C558.22,144.00 561.55,144.60 564.67,145.51C567.80,146.42 574.41,149.19 579.36,151.68C584.31,154.16 591.89,158.39 596.20,161.07C600.52,163.74 609.69,170.22 616.59,175.47C623.48,180.71 629.32,185.00 629.57,185.00C629.82,185.00 629.34,183.35 628.50,181.34C627.65,179.32 624.39,173.81 621.23,169.09C617.72,163.85 610.26,155.27 602.00,146.98C594.58,139.54 584.74,130.46 580.15,126.81C575.55,123.16 565.52,116.45 557.85,111.91C550.17,107.36 543.67,103.27 543.39,102.82C543.11,102.37 543.47,101.97 544.19,101.94C544.91,101.91 550.67,101.93 557.00,101.98C567.98,102.07 568.84,102.23 575.94,105.58C582.10,108.48 583.05,108.72 581.46,106.96C580.40,105.79 577.49,103.33 574.99,101.49C572.49,99.66 566.86,96.74 562.47,95.01C558.09,93.29 547.75,88.70 539.50,84.83C531.25,80.95 520.23,75.73 515.00,73.23C508.87,70.29 506.14,68.52 507.31,68.25C508.31,68.02 512.99,68.34 517.72,68.97C522.45,69.60 531.31,71.41 537.41,72.98C543.51,74.56 553.90,77.84 560.50,80.28C567.10,82.71 576.15,86.55 580.62,88.80C585.08,91.05 591.76,95.20 595.45,98.03C599.14,100.86 602.38,102.96 602.65,102.68C602.92,102.41 602.26,100.46 601.18,98.35C600.09,96.23 597.06,91.58 594.43,88.00C591.79,84.42 584.89,76.61 579.07,70.64C573.26,64.67 564.45,56.75 559.50,53.05C554.55,49.35 547.12,44.28 543.00,41.80C538.88,39.32 533.08,36.06 530.12,34.56C527.17,33.06 520.87,30.36 516.12,28.55C511.38,26.75 501.65,23.89 494.50,22.20C487.35,20.51 477.45,18.43 472.50,17.57C467.55,16.71 461.48,16.02 459.00,16.03C454.50,16.05 454.50,16.05 458.25,18.22C460.31,19.41 462.00,20.98 462.00,21.70C462.00,22.62 460.30,23.00 456.19,23.00C453.00,23.00 443.21,22.12 434.44,21.04C425.67,19.97 412.20,18.62 404.50,18.05C396.80,17.48 380.82,17.06 369.00,17.12C357.18,17.19 346.15,17.55 344.50,17.92C341.91,18.52 341.77,18.70 343.50,19.26C344.60,19.61 349.32,20.41 354.00,21.03C358.68,21.64 365.43,22.76 369.00,23.51C372.57,24.27 378.88,26.04 383.00,27.46C387.12,28.87 395.00,31.19 400.50,32.61C406.00,34.02 415.45,36.22 421.50,37.49C427.55,38.76 435.09,40.78 438.25,41.97C441.41,43.17 444.00,44.54 444.00,45.03C444.00,45.51 442.37,46.22 440.38,46.59C438.38,46.96 431.36,46.95 424.77,46.57C418.19,46.18 404.40,44.53 394.15,42.89C383.89,41.25 370.88,39.64 365.22,39.30C355.96,38.76 355.01,38.86 355.58,40.34C355.92,41.24 358.07,42.47 360.35,43.06C362.63,43.66 366.98,44.85 370.00,45.70C373.02,46.55 378.31,48.51 381.74,50.06C386.37,52.14 387.83,53.27 387.40,54.40C386.96,55.53 388.29,56.60 392.40,58.42C395.48,59.78 398.00,61.36 398.00,61.94C398.00,62.60 394.83,63.00 389.61,63.00C384.99,63.00 376.65,62.53 371.07,61.96C365.29,61.37 357.19,59.69 352.22,58.06C347.42,56.49 337.72,53.11 330.66,50.55C323.60,47.98 317.13,46.02 316.28,46.19C315.28,46.39 316.70,48.07 320.35,50.97C323.43,53.43 325.62,55.78 325.22,56.18C324.81,56.59 320.22,56.29 315.03,55.50C309.83,54.72 305.34,54.34 305.04,54.64C304.74,54.95 306.30,56.77 308.50,58.69C310.70,60.62 314.58,63.25 317.12,64.54C319.66,65.84 329.33,68.91 338.62,71.38C347.90,73.84 358.88,76.54 363.00,77.37C367.12,78.20 374.10,79.35 378.50,79.92C382.90,80.50 394.60,81.66 404.50,82.51C414.40,83.36 426.55,84.49 431.50,85.03C436.45,85.57 441.85,86.27 443.50,86.59C445.15,86.91 448.19,87.59 450.25,88.12C452.31,88.65 454.00,89.47 454.00,89.96C454.00,90.44 451.73,91.32 448.95,91.92C446.17,92.51 434.81,93.01 423.70,93.03C408.28,93.05 403.97,93.33 405.50,94.18C406.60,94.79 407.71,95.48 407.97,95.70C408.23,95.93 407.78,96.53 406.97,97.04C406.16,97.55 404.49,97.98 403.25,97.98C402.01,97.99 401.00,98.45 401.00,99.00C401.00,99.55 401.18,100.00 401.40,100.00C401.62,100.00 408.70,101.14 417.15,102.54C425.59,103.93 436.10,106.03 440.50,107.19C444.90,108.35 453.23,111.31 459.00,113.76C464.77,116.21 471.58,119.28 474.13,120.57C476.68,121.86 485.45,125.67 493.63,129.03C501.81,132.40 514.35,138.22 521.50,141.98C528.65,145.73 539.47,151.44 545.54,154.66C551.61,157.89 558.82,162.17 561.56,164.18C564.30,166.19 567.38,168.77 568.42,169.91C569.46,171.06 569.85,172.00 569.28,172.00C568.71,172.00 566.34,171.32 564.00,170.50C561.66,169.68 559.58,169.00 559.37,169.00C559.17,169.00 559.00,169.43 559.00,169.96C559.00,170.49 562.84,173.98 567.53,177.71C575.15,183.78 575.79,184.53 573.53,184.82C572.14,184.99 571.01,185.44 571.01,185.82C571.02,186.19 574.50,188.75 578.76,191.50C583.01,194.25 590.83,199.98 596.14,204.24C601.45,208.50 608.88,215.50 612.65,219.79C616.42,224.09 623.96,232.87 629.40,239.30C634.85,245.74 639.69,251.00 640.17,251.00zM534.19,125.88C531.61,125.82 527.32,125.40 524.66,124.95C522.00,124.51 516.61,123.17 512.69,121.97C508.77,120.78 503.07,118.52 500.03,116.95C494.50,114.10 494.50,114.10 498.50,114.07C500.70,114.05 506.40,114.67 511.16,115.45C515.92,116.24 521.77,117.39 524.16,118.02C526.55,118.65 531.08,120.31 534.23,121.71C537.38,123.11 539.72,124.65 539.42,125.13C539.12,125.61 536.77,125.95 534.19,125.88z" />

</svg>