<?xml version="1.0" standalone="no"?>
<!DOCTYPE svg PUBLIC "-//W3C//DTD SVG 20010904//EN"
 "http://www.w3.org/TR/2001/REC-SVG-20010904/DTD/svg10.dtd">
<svg version="1.0" xmlns="http://www.w3.org/2000/svg"
 width="512.000000pt" height="512.000000pt" viewBox="0 0 512.000000 512.000000"
 preserveAspectRatio="xMidYMid meet">
<metadata>
Created by potrace 1.16, written by Peter Selinger 2001-2019
</metadata>
<g transform="translate(0.000000,512.000000) scale(0.100000,-0.100000)"
fill="#8b5cf6" stroke="none">
<path d="M2895 4050 c183 -13 200 -17 320 -79 187 -97 503 -308 564 -378 36
-40 102 -151 98 -164 -1 -3 3 -12 9 -20 18 -23 62 -170 70 -231 3 -32 9 -56
13 -54 15 9 12 -177 -4 -231 -23 -79 -81 -132 -375 -348 -135 -99 -294 -217
-355 -263 -74 -56 -126 -87 -160 -97 -59 -17 -161 -28 -505 -55 -188 -15 -279
-27 -348 -45 -52 -14 -103 -25 -114 -25 -11 0 -62 41 -121 98 -56 53 -118 108
-137 121 -19 13 0 -8 42 -48 94 -88 205 -224 213 -262 l6 -28 47 36 c59 45
140 81 222 98 80 17 615 49 664 39 45 -8 59 -33 51 -87 -10 -62 -15 -77 -28
-77 -7 0 -33 -11 -59 -24 -43 -21 -48 -21 -65 -7 -16 15 -17 15 0 -5 9 -11 17
-26 17 -32 0 -7 5 -12 10 -12 14 0 13 -23 -1 -37 -9 -9 -21 -7 -49 7 -53 27
-70 47 -70 80 0 25 -5 30 -36 36 -82 15 -223 -24 -283 -79 -47 -44 -51 -69
-51 -341 0 -140 -2 -261 -5 -269 -5 -11 -18 -8 -68 16 -34 17 -69 34 -77 39
-8 4 -25 12 -38 18 -12 5 -42 19 -66 30 -25 11 -51 20 -58 20 -8 0 -19 5 -26
12 -19 19 -14 -4 8 -40 14 -22 26 -32 36 -28 8 3 12 1 9 -4 -13 -21 91 -73
310 -156 77 -30 135 -54 128 -54 -20 0 -264 89 -358 131 -27 12 -53 22 -57 21
-5 -1 -8 2 -8 7 0 5 -15 5 -32 2 l-33 -7 0 -71 c0 -62 3 -75 24 -97 l25 -26
-32 11 c-21 7 -34 20 -38 35 -3 13 -14 24 -23 24 -9 0 -27 6 -41 13 -14 7 -47
21 -75 32 -27 10 -70 31 -95 45 -209 125 -198 120 -195 97 6 -45 19 -83 39
-111 20 -26 145 -129 211 -171 123 -80 359 -173 555 -219 164 -39 341 -75 390
-81 25 -3 63 -8 85 -11 144 -21 561 -39 570 -25 5 8 41 8 70 0 6 -2 26 2 45 9
31 10 143 32 178 34 6 1 12 5 12 8 0 4 21 13 46 19 25 7 56 18 68 26 13 8 26
12 29 8 4 -3 7 -1 7 6 0 7 5 9 10 6 6 -3 10 -1 10 4 0 6 6 11 14 11 7 0 32 20
55 45 22 24 41 42 41 40 0 -3 26 21 58 53 33 31 57 59 56 61 -2 2 3 16 10 30
45 86 63 156 44 167 -4 3 -5 11 -1 19 3 8 1 15 -4 15 -4 0 -19 18 -33 40 -14
22 -29 40 -35 40 -6 0 -16 9 -23 20 -7 11 -18 20 -25 20 -8 0 -43 10 -78 21
-35 12 -73 22 -84 23 -11 1 -26 5 -34 10 -7 5 -75 11 -150 13 -75 2 -143 7
-151 9 -8 3 58 53 165 123 99 65 188 127 198 138 10 11 30 51 46 87 27 65 28
68 13 110 -17 48 -21 31 61 259 70 193 85 307 63 488 -14 124 -32 189 -55 204
-20 11 -62 -24 -81 -68 -10 -23 -23 -91 -29 -152 -7 -60 -14 -112 -16 -116 -3
-3 -18 -9 -35 -13 -26 -5 -29 -8 -21 -23 6 -10 15 -52 20 -93 6 -41 13 -86 17
-100 5 -21 1 -19 -27 15 -42 50 -95 102 -125 122 -22 14 -29 13 -93 -12 -80
-30 -248 -132 -401 -243 -157 -113 -183 -136 -231 -203 -33 -44 -45 -55 -47
-41 -5 31 62 176 110 239 95 122 181 190 548 435 180 120 267 173 272 165 4
-7 8 -41 9 -77 l2 -65 8 75 c4 41 13 93 20 115 15 51 74 170 106 213 19 26 24
42 21 73 -4 42 0 46 21 27 8 -7 -1 15 -19 49 -35 68 -116 163 -183 215 -40 31
-39 29 16 -32 69 -77 114 -164 122 -240 6 -51 5 -58 -25 -95 -17 -22 -33 -42
-36 -44 -7 -7 -34 21 -28 30 3 5 1 9 -3 9 -18 0 -63 52 -63 74 0 13 11 35 25
50 19 21 33 26 70 26 l47 0 -28 48 c-47 81 -162 229 -205 263 -40 32 -41 32
-35 8 5 -21 5 -21 -4 -4 -5 11 -14 32 -20 47 -7 21 -82 76 -312 229 -167 111
-332 216 -368 233 -64 30 -68 31 -230 33 l-165 1 120 -8z m1132 -1212 c-3 -8
-6 -5 -6 6 -1 11 2 17 5 13 3 -3 4 -12 1 -19z m172 -375 c0 -5 -4 -17 -9 -28
-8 -18 -9 -17 -9 8 -1 15 4 27 9 27 6 0 10 -3 9 -7z m-246 -122 c46 -43 97
-121 80 -121 -5 0 -8 -56 -8 -123 0 -138 -5 -152 -61 -163 -29 -5 -37 -14 -58
-61 -14 -30 -36 -68 -48 -86 -13 -18 -23 -35 -23 -38 0 -3 -35 -39 -78 -79
-43 -40 -75 -75 -72 -78 3 -3 24 12 48 34 23 21 31 26 17 11 -14 -16 -43 -43
-65 -60 -26 -20 -33 -23 -21 -9 28 33 4 27 -28 -7 -35 -37 -64 -46 -62 -20 1
10 -2 17 -7 16 -4 -1 -16 12 -26 28 -10 17 -32 45 -48 64 l-30 35 -74 -49
c-41 -27 -101 -64 -134 -82 -66 -36 -63 -41 11 -18 86 26 74 15 -22 -21 -65
-23 -66 -25 -24 -19 25 3 56 8 70 11 19 3 16 0 -10 -12 -19 -9 -59 -18 -88
-21 -41 -5 -50 -8 -37 -15 19 -11 125 5 179 27 19 8 51 29 71 46 36 32 50 34
40 7 -14 -35 -282 -127 -304 -105 -22 22 -12 57 19 71 17 7 28 15 25 17 -2 3
21 20 53 39 186 111 290 196 339 278 35 59 23 64 -18 8 -18 -25 -34 -46 -36
-46 -2 0 8 23 24 51 30 56 64 85 88 75 14 -5 14 -8 -1 -31 -15 -24 -15 -25 8
-34 13 -5 30 -16 37 -24 7 -9 20 -13 28 -10 13 5 15 2 10 -12 -6 -15 -5 -16 8
-5 16 13 19 8 15 -25 -2 -18 2 -16 29 9 17 17 31 25 31 19 0 -16 -64 -99 -129
-167 -38 -41 -46 -52 -25 -38 86 59 242 255 266 334 24 81 -30 157 -114 160
-76 3 -303 -135 -519 -315 -135 -112 -192 -177 -251 -284 -21 -37 -38 -63 -38
-57 0 21 -43 7 -67 -22 -31 -39 -103 -205 -103 -238 0 -32 14 -62 43 -94 l21
-22 -35 6 c-54 9 -75 23 -89 60 -9 21 -32 46 -62 67 l-48 32 6 190 c8 278 27
319 126 267 29 -15 59 -27 66 -27 6 0 11 -3 10 -6 -4 -9 23 -39 35 -39 6 0 2
7 -9 15 -10 8 -14 15 -8 15 6 0 19 -10 30 -22 10 -12 13 -18 6 -14 -9 5 -12 3
-10 -6 2 -8 -14 -51 -36 -96 -41 -88 -46 -125 -6 -44 32 65 154 225 207 272
62 54 385 268 583 385 91 54 194 117 229 141 53 35 68 41 80 32 9 -7 0 6 -19
27 -20 22 -45 51 -55 65 -20 25 -20 25 0 10 11 -7 42 -34 68 -59z m-273 -165
c0 -2 -69 -48 -152 -102 -84 -53 -208 -135 -276 -181 -68 -46 -121 -79 -117
-74 14 24 176 137 322 224 87 53 172 105 188 117 31 21 35 23 35 16z m95 -146
c-7 -34 -25 -40 -25 -9 0 13 4 18 12 13 8 -5 9 2 5 27 -5 26 -4 30 4 16 6 -10
7 -31 4 -47z m32 13 c-3 -10 -5 -2 -5 17 0 19 2 27 5 18 2 -10 2 -26 0 -35z
m-71 8 c-1 -16 -5 -27 -10 -24 -4 3 -5 -4 -2 -15 7 -21 -20 -100 -30 -89 -3 3
0 15 6 27 6 12 10 24 7 26 -2 2 -10 -7 -17 -21 -7 -14 -20 -25 -29 -25 -11 0
-13 3 -4 8 7 4 26 38 43 75 17 37 32 67 34 67 2 0 3 -13 2 -29z m101 -23 c-3
-7 -5 -2 -5 12 0 14 2 19 5 13 2 -7 2 -19 0 -25z m-40 -30 c-3 -8 -6 -5 -6 6
-1 11 2 17 5 13 3 -3 4 -12 1 -19z m53 -37 c-6 -22 -14 -42 -19 -45 -4 -3 -1
19 8 49 18 62 28 58 11 -4z m-30 12 c-11 -17 -11 -17 -6 0 3 10 6 24 7 30 0 9
2 9 5 0 3 -7 0 -20 -6 -30z m-66 2 c-4 -8 -8 -15 -10 -15 -2 0 -4 7 -4 15 0 8
4 15 10 15 5 0 7 -7 4 -15z m27 -22 c-12 -20 -14 -14 -5 12 4 9 9 14 11 11 3
-2 0 -13 -6 -23z m-941 -280 c0 -7 -58 36 -66 49 -4 7 9 -1 29 -16 20 -16 37
-30 37 -33z m577 -71 c-21 -23 -22 -33 -2 -26 11 5 13 2 9 -10 -8 -22 -21 -20
-29 5 -7 20 22 66 33 54 3 -3 -2 -13 -11 -23z m63 -78 c0 -11 -33 -34 -78 -54
-63 -29 -65 -24 -5 10 28 16 54 34 58 40 7 11 25 14 25 4z m-283 -110 c-3 -3
-12 -4 -19 -1 -8 3 -5 6 6 6 11 1 17 -2 13 -5z m303 -80 c-98 -99 -341 -262
-367 -246 -8 5 32 37 107 86 66 43 123 83 127 89 4 6 1 7 -8 3 -8 -4 -5 0 6 8
11 9 25 14 32 12 7 -3 15 0 19 6 5 7 2 8 -6 3 -9 -6 -11 -4 -6 4 5 7 14 10 22
7 8 -3 13 -1 11 4 -2 8 118 98 133 99 2 1 -29 -33 -70 -75z m-400 36 c0 -5
-17 -10 -37 -10 -28 0 -34 3 -23 10 20 13 60 13 60 0z m660 -20 c0 -5 -7 -10
-16 -10 -8 0 -12 5 -9 10 3 6 10 10 16 10 5 0 9 -4 9 -10z m-445 -109 c-24
-21 -150 -62 -207 -66 -62 -4 -62 -4 -12 4 55 9 169 45 194 61 19 12 38 13 25
1z m712 -208 c-13 -13 -19 -14 -29 -5 -9 9 -8 12 5 12 9 0 17 4 17 9 0 5 -10
7 -22 4 -23 -5 -23 -5 -3 10 17 14 22 14 35 1 12 -12 12 -16 -3 -31z m-242
-55 c3 -3 -1 -11 -10 -18 -12 -10 -18 -10 -30 0 -8 7 -15 17 -15 22 0 9 45 6
55 -4z m-201 -177 c15 -16 15 -20 2 -31 -9 -6 -14 -17 -13 -23 3 -16 -25 -15
-45 1 -24 20 -23 36 5 55 29 21 31 20 51 -2z"/>
<path d="M3809 1733 c-13 -16 -12 -17 4 -4 16 13 21 21 13 21 -2 0 -10 -8 -17
-17z"/>
<path d="M2925 3940 c-10 -11 -15 -26 -11 -36 8 -20 8 -19 29 24 17 36 9 42
-18 12z"/>
<path d="M3062 3928 c7 -15 15 -23 17 -17 2 6 -4 18 -13 27 -15 15 -15 15 -4
-10z"/>
<path d="M3756 3921 c-4 -5 -2 -12 3 -15 5 -4 12 -2 15 3 4 5 2 12 -3 15 -5 4
-12 2 -15 -3z"/>
<path d="M1053 3789 c-29 -10 -37 -39 -17 -58 9 -9 14 -10 10 -4 -9 16 12 55
27 50 7 -2 14 -16 17 -32 4 -23 7 -26 17 -14 17 21 -26 69 -54 58z"/>
<path d="M2301 3770 c-56 -10 -108 -23 -114 -29 -8 -8 -2 -23 21 -56 18 -25
32 -54 32 -63 0 -43 -182 -179 -224 -168 -57 14 -96 91 -63 125 19 22 -103
-57 -158 -101 l-50 -40 56 54 c67 65 146 119 164 112 7 -3 16 -1 19 4 7 12
-31 62 -48 62 -22 0 -159 -100 -224 -163 -166 -162 -234 -332 -202 -507 46
-258 324 -496 700 -600 115 -31 192 -41 329 -41 373 1 722 138 956 375 138
139 192 261 182 406 -10 139 -76 271 -196 388 -67 67 -185 157 -147 114 10
-12 16 -28 12 -38 -4 -11 11 -35 48 -75 59 -63 92 -106 121 -154 13 -21 -3
-10 -50 35 l-69 65 55 -60 c31 -33 61 -70 68 -83 7 -12 15 -21 19 -18 4 2 8
-4 8 -15 0 -10 -1 -19 -1 -19 -1 0 -19 25 -39 55 -49 70 -173 189 -256 243
-268 177 -625 249 -949 192z m189 -276 c0 -2 -17 -4 -37 -3 -29 0 -33 2 -18 8
18 7 55 4 55 -5z m-97 -11 c-7 -2 -19 -2 -25 0 -7 3 -2 5 12 5 14 0 19 -2 13
-5z m687 -35 c30 -17 78 -48 106 -69 29 -21 54 -35 58 -32 3 3 11 1 18 -4 7
-5 45 -23 83 -38 39 -16 76 -35 83 -44 6 -8 12 -11 12 -7 0 5 7 3 15 -4 8 -7
15 -10 15 -6 0 3 9 -2 20 -11 11 -10 20 -22 20 -27 0 -5 7 -17 15 -26 10 -12
16 -39 17 -81 1 -73 -6 -100 -38 -149 -13 -19 -45 -76 -71 -126 -42 -81 -86
-141 -160 -220 -12 -13 -16 -25 -10 -27 19 -6 -168 -96 -274 -131 -161 -54
-380 -85 -498 -71 -35 4 -61 12 -61 18 0 7 -10 22 -23 33 -12 12 -33 44 -47
73 -14 28 -31 51 -38 51 -21 0 -130 47 -199 86 -109 61 -60 51 69 -15 145 -73
217 -91 373 -91 447 0 794 201 811 471 2 45 1 57 -5 39 -6 -15 -9 -19 -10 -9
-2 28 -56 123 -110 194 -28 36 -51 72 -51 80 0 19 -90 72 -167 97 -64 21 -66
21 -79 3 -13 -17 -10 -21 39 -47 91 -49 162 -112 216 -193 28 -42 51 -83 51
-91 0 -11 -16 -14 -69 -14 l-69 0 -26 44 c-14 24 -50 66 -81 94 -155 142 -415
191 -671 127 l-112 -28 -61 24 c-33 13 -61 28 -61 32 0 8 85 49 128 62 19 5
22 3 22 -20 0 -14 6 -28 13 -30 7 -3 47 3 89 14 108 28 226 35 342 21 94 -11
99 -11 120 9 12 12 28 21 34 21 7 0 38 14 69 30 63 34 71 33 153 -12z m-976
-156 c14 -27 13 -29 -47 -88 -75 -73 -110 -139 -115 -217 -4 -57 -5 -58 -31
-53 -14 3 -43 8 -65 12 -38 7 -38 7 -33 45 8 59 41 119 104 189 58 63 147 140
164 140 5 0 15 -13 23 -28z m1147 -137 c11 -22 14 -31 7 -21 -7 11 -34 49 -61
85 l-48 66 42 -45 c23 -25 50 -63 60 -85z m-490 -89 c77 -17 203 -67 239 -96
16 -13 -1 -8 -45 13 -131 64 -233 87 -387 87 l-98 0 0 -27 c0 -60 -8 -68 -83
-88 -40 -11 -76 -20 -82 -20 -5 0 -17 21 -25 47 l-15 47 -58 -24 c-77 -31
-160 -82 -198 -121 -29 -30 -30 -33 -16 -60 25 -48 95 -110 111 -99 149 110
319 162 496 152 52 -3 116 -12 141 -20 42 -13 46 -13 42 2 -5 21 37 40 82 35
32 -3 90 -34 106 -57 8 -11 75 67 101 118 35 69 98 122 98 83 -1 -53 -147
-231 -192 -235 -13 -1 -48 -10 -78 -21 -55 -20 -224 -44 -435 -60 -82 -7 -124
-15 -165 -34 l-55 -25 90 -46 c70 -35 86 -47 72 -52 -34 -14 -213 57 -286 113
-20 15 -39 26 -43 25 -4 -2 -15 8 -24 22 -9 14 -31 34 -49 45 -36 22 -111 27
-117 8 -6 -18 -59 76 -61 109 -2 27 -1 28 53 30 30 1 49 0 43 -3 -21 -9 -15
-22 29 -66 27 -29 37 -35 28 -18 -12 23 -10 27 44 77 69 64 146 105 263 138
162 46 321 53 474 21z m-804 -88 c-3 -8 -6 -5 -6 6 -1 11 2 17 5 13 3 -3 4
-12 1 -19z m617 -49 c-17 -29 -52 5 -39 39 6 15 8 15 26 -7 10 -12 16 -27 13
-32z m82 -300 c22 -24 26 -33 15 -37 -8 -3 -25 -16 -38 -28 -31 -31 -47 -30
-72 5 l-21 29 35 31 c20 17 39 31 43 31 5 0 21 -14 38 -31z"/>
<path d="M3361 3084 c0 -11 3 -14 6 -6 3 7 2 16 -1 19 -3 4 -6 -2 -5 -13z"/>
<path d="M2994 2828 l-19 -23 23 19 c12 11 22 21 22 23 0 8 -8 2 -26 -19z"/>
<path d="M1990 2796 c0 -2 8 -10 18 -17 15 -13 16 -12 3 4 -13 16 -21 21 -21
13z"/>
<path d="M1534 3728 l-19 -23 23 19 c21 18 27 26 19 26 -2 0 -12 -10 -23 -22z"/>
<path d="M1365 3602 l-141 -107 3 -64 c1 -35 -1 -60 -5 -57 -3 4 -12 -16 -19
-45 -7 -28 -55 -139 -106 -247 -52 -108 -100 -212 -107 -230 -13 -33 -91 -102
-115 -102 -14 0 -25 -44 -25 -97 0 -30 3 -34 18 -28 38 16 62 16 98 -1 l39
-19 -30 -5 c-27 -5 -26 -7 16 -12 69 -8 219 -109 316 -212 133 -141 252 -337
314 -516 48 -139 33 -330 -30 -389 l-28 -26 56 6 c166 18 186 57 169 334 -3
50 -13 107 -22 129 -18 43 -21 60 -5 33 8 -14 14 -16 25 -6 8 6 17 9 20 6 10
-10 -5 -39 -16 -32 -9 5 -6 -6 21 -93 8 -25 7 -37 -2 -50 -12 -16 -12 -16 5
-1 43 39 25 176 -34 269 -16 25 -52 68 -81 95 -47 46 -50 47 -35 18 27 -53 37
-85 26 -78 -6 4 -29 -7 -52 -24 -39 -29 -43 -30 -52 -14 -5 10 -24 42 -42 70
l-33 52 59 18 60 18 -41 65 c-50 79 -103 145 -183 228 -107 112 -125 114 -42
5 61 -80 75 -105 68 -122 -8 -23 23 -40 -277 152 -77 49 -157 100 -177 114
-32 19 -38 29 -38 57 0 23 8 42 27 60 44 44 64 43 129 -6 146 -109 149 -111
152 -90 2 11 -6 106 -17 212 -25 228 -26 293 -6 423 23 151 40 181 174 308 63
60 113 109 111 108 -3 0 -68 -48 -145 -107z"/>
<path d="M4097 3662 c-22 -25 -21 -34 6 -60 l23 -22 24 25 23 25 -23 25 c-28
30 -32 30 -53 7z m39 -17 c4 -8 3 -23 0 -32 -6 -15 -8 -15 -23 -1 -16 17 -12
48 7 48 6 0 13 -7 16 -15z"/>
<path d="M2043 3633 c-39 -20 -40 -25 -11 -63 34 -47 48 -39 45 25 -1 30 -2
55 -2 54 0 0 -15 -8 -32 -16z"/>
<path d="M1383 3450 c-55 -33 -35 -80 23 -55 24 10 33 21 36 44 5 37 -11 41
-59 11z"/>
<path d="M1460 3456 c0 -2 9 -26 21 -53 19 -45 21 -47 34 -29 12 16 12 23 0
46 -14 27 -55 54 -55 36z"/>
<path d="M1002 3330 c7 -11 16 -20 20 -20 15 0 8 15 -12 28 -19 12 -20 11 -8
-8z"/>
<path d="M975 3300 c10 -11 20 -20 22 -20 2 0 -2 9 -9 20 -7 11 -17 20 -22 20
-5 0 -1 -9 9 -20z"/>
<path d="M3737 2942 c-18 -19 -23 -57 -9 -66 16 -9 33 11 39 47 6 41 -5 47
-30 19z"/>
<path d="M3820 2941 c0 -29 18 -35 22 -9 3 18 7 14 17 -20 12 -42 31 -49 31
-12 0 21 -37 60 -57 60 -7 0 -13 -9 -13 -19z"/>
<path d="M4497 2953 c-10 -10 -8 -23 4 -23 5 0 7 5 3 12 -5 8 -2 9 10 5 10 -4
15 -3 11 3 -7 12 -19 13 -28 3z"/>
<path d="M4435 2770 c-15 -16 -16 -23 -6 -33 10 -9 11 -9 6 4 -8 22 12 34 30
19 9 -7 15 -8 15 -2 0 5 -6 15 -13 21 -11 8 -18 6 -32 -9z"/>
<path d="M4542 2497 c-27 -28 -27 -39 -4 -60 26 -23 39 -21 58 9 17 24 16 26
-7 50 l-25 25 -22 -24z m32 -3 c21 -8 20 -17 -4 -32 -28 -17 -43 -6 -27 18 6
11 13 20 14 20 1 0 8 -3 17 -6z"/>
<path d="M982 2364 c-68 -47 -87 -180 -43 -306 23 -69 85 -172 160 -266 46
-58 58 -58 81 -2 l13 30 51 -43 c104 -89 199 -125 241 -93 15 12 16 16 5 16
-8 1 -28 7 -45 15 -29 13 -28 13 25 9 47 -4 51 -3 30 7 -74 33 -86 40 -60 34
14 -3 41 -8 60 -11 l35 -4 -42 19 c-52 24 -58 46 -7 25 57 -24 50 -10 -16 31
-71 43 -75 60 -5 20 58 -34 71 -26 16 11 -52 34 -52 40 -1 14 53 -27 51 -9 -3
29 -24 16 -50 37 -58 47 -8 10 8 3 34 -15 27 -18 50 -31 52 -29 8 8 -54 138
-99 207 -57 89 -145 184 -163 177 -7 -3 -13 1 -13 9 0 18 -86 69 -101 59 -8
-4 -9 -3 -5 4 4 7 3 12 -3 12 -5 0 -18 3 -28 6 -14 4 -15 4 -4 -4 8 -6 10 -15
5 -23 -4 -7 -7 -30 -5 -51 3 -40 -16 -104 -36 -126 -10 -10 -13 -6 -17 20 -14
93 -14 147 0 167 14 20 14 21 -8 21 -13 0 -34 -7 -46 -16z m138 -70 c0 -31 -4
-43 -11 -38 -7 4 -9 21 -6 40 3 20 2 34 -4 34 -6 0 -7 5 -4 10 13 21 25 -2 25
-46z m150 -213 c0 -4 -27 -28 -60 -52 -42 -31 -60 -50 -60 -66 0 -12 5 -25 10
-28 6 -3 10 -11 10 -16 0 -19 -19 2 -49 55 -34 60 -40 83 -12 49 l18 -22 64
44 c66 45 79 51 79 36z"/>
<path d="M1049 2353 c-13 -16 -12 -17 4 -4 9 7 17 15 17 17 0 8 -8 3 -21 -13z"/>
<path d="M2197 2292 c-22 -24 -21 -49 1 -61 26 -14 42 4 42 46 0 37 -18 43
-43 15z"/>
<path d="M2310 2277 c0 -40 15 -50 25 -16 5 14 1 27 -9 37 -15 15 -16 13 -16
-21z"/>
<path d="M530 1845 c0 -9 5 -15 11 -13 6 2 11 8 11 13 0 5 -5 11 -11 13 -6 2
-11 -4 -11 -13z"/>
<path d="M896 1711 c-21 -23 -20 -34 3 -55 18 -17 20 -16 45 5 20 18 23 25 14
36 -23 28 -45 33 -62 14z m33 -37 c-9 -11 -15 -12 -25 -3 -11 9 -12 15 -3 25
9 11 15 12 25 3 11 -9 12 -15 3 -25z"/>
<path d="M555 1650 c-19 -21 -7 -28 13 -8 10 10 16 8 29 -5 14 -13 15 -19 5
-29 -10 -10 -17 -10 -33 0 -30 19 -37 5 -11 -20 l22 -22 25 24 c31 29 32 44 3
64 -29 20 -31 20 -53 -4z"/>
<path d="M1550 1410 c0 -5 7 -10 16 -10 8 0 12 5 9 10 -3 6 -10 10 -16 10 -5
0 -9 -4 -9 -10z"/>
<path d="M1160 1179 c-10 -17 -9 -24 2 -35 12 -12 17 -12 33 0 16 12 18 19 9
32 -16 27 -31 28 -44 3z m35 -9 c3 -6 -1 -13 -10 -16 -19 -8 -30 0 -20 15 8
14 22 14 30 1z"/>
<path d="M1561 1111 c-8 -14 -7 -22 7 -32 15 -12 16 -12 4 2 -10 13 -10 19 2
28 11 10 17 8 25 -6 9 -16 10 -16 11 -2 0 9 -7 20 -16 23 -22 8 -22 8 -33 -13z"/>
</g>
</svg>