<svg id="Layer_1" data-name="Layer 1" xmlns="http://www.w3.org/2000/svg" xmlns:xlink="http://www.w3.org/1999/xlink" viewBox="0 0 280 281"><defs><clipPath id="clip-path"><rect y="0.47656" width="280" height="280" style="fill:none"/></clipPath></defs><g style="clip-path:url(#clip-path)"><path d="M76.8546,158.24H19.9219a14,14,0,0,0-14,14v15.417a14,14,0,0,0,14,14H76.8546" style="fill:none;stroke:#00DAF3;stroke-linejoin:round;stroke-width:10px"/><path d="M100.827,107.691H19.9219a14,14,0,0,0-14,14v15.417a14,14,0,0,0,14,14H77.928" style="fill:none;stroke:#00DAF3;stroke-linejoin:round;stroke-width:10px"/><path d="M107.983,100.56H19.9219a14.00034,14.00034,0,0,1-14-14.0004V71.1426a14,14,0,0,1,14-14H127.146a14,14,0,0,1,14,14v7.7085" style="fill:none;stroke:#00DAF3;stroke-linejoin:round;stroke-width:10px"/><rect x="5.92188" y="6.59375" width="135.22399" height="43.417" rx="14" style="fill:none;stroke:#00DAF3;stroke-linejoin:round;stroke-width:10px"/><circle cx="28.7188" cy="28.3028" r="6.72859" style="fill:#00DAF3"/><circle cx="28.7169" cy="78.8497" r="6.72859" style="fill:#00DAF3"/><circle cx="28.7188" cy="129.39999" r="6.72859" style="fill:#00DAF3"/><circle cx="28.7188" cy="179.94901" r="6.72859" style="fill:#00DAF3"/><path d="M157.604,75.8867a100.55,100.55,0,1,0,33.54,0" style="fill:none;stroke:#00DAF3;stroke-linecap:round;stroke-linejoin:round;stroke-width:10px"/><circle cx="174.373" cy="175.045" r="11.61101" style="fill:#00DAF3"/><path d="M174.375,90.8594V102.935m0,145.314v12.076" style="fill:none;stroke:#00DAF3;stroke-linecap:round;stroke-linejoin:round;stroke-width:10px"/><path d="M259.109,175.592H247.033m-145.313,0H89.6436" style="fill:none;stroke:#00DAF3;stroke-linecap:round;stroke-linejoin:round;stroke-width:10px"/><path d="M238.016,111.957l-9.07,9.069M119.811,230.162l-9.07,9.069" style="fill:none;stroke:#00DAF3;stroke-linecap:round;stroke-linejoin:round;stroke-width:5px"/><path d="M238.016,239.23l-9.07-9.069M119.811,121.026l-9.07-9.07" style="fill:none;stroke:#00DAF3;stroke-linecap:round;stroke-linejoin:round;stroke-width:5px"/><path d="M174.377,175.044l24.01-13.862" style="fill:none;stroke:#00DAF3;stroke-linecap:round;stroke-linejoin:round;stroke-width:10px"/><path d="M129.994,149.419l44.381,25.624" style="fill:none;stroke:#00DAF3;stroke-linecap:round;stroke-linejoin:round;stroke-width:10px"/><path d="M157.543,90.5319V44.201H143.676l30.703-30.703,30.703,30.703H191.214V90.5319" style="fill:none;stroke:#00DAF3;stroke-linecap:round;stroke-linejoin:round;stroke-width:10px"/></g></svg>