<?xml version="1.0" encoding="UTF-8" standalone="no"?>
<svg 
  version="1.1" 
  xmlns="http://www.w3.org/2000/svg" 
  xmlns:xlink="http://www.w3.org/1999/xlink" 
  xmlns:svg="http://www.w3.org/2000/svg"
  xmlns:rdf="http://www.w3.org/1999/02/22-rdf-syntax-ns#"
  xmlns:cc="http://creativecommons.org/ns#"
  xmlns:dc="http://purl.org/dc/elements/1.1/"
  viewBox="0 0 768 768"
  width="768"
  height="768"
>
<style>svg {background-color: white; }</style>"
<metadata id="metadata1">
Created by https://svgstud.io and licensed under CC-BY-SA 4.0 license. Please attribute https://svgstud.io
</metadata>
<metadata id="prompt">
underwater volcano
</metadata>
<metadata id="version">
7
</metadata>
<metadata id="metadata2">
<rdf:RDF>
<cc:Work
    rdf:about="">
    <cc:license
    rdf:resource="http://creativecommons.org/licenses/by-sa/4.0/" />
    <dc:creator>
        <cc:Agent>
            <dc:title>https://svgstud.io</dc:title>
        </cc:Agent>
    </dc:creator>
</cc:Work>
<cc:License
    rdf:about="http://creativecommons.org/licenses/by-sa/4.0/">
    <cc:permits
    rdf:resource="http://creativecommons.org/ns#Reproduction" />
    <cc:permits
    rdf:resource="http://creativecommons.org/ns#Distribution" />
    <cc:requires
    rdf:resource="http://creativecommons.org/ns#Notice" />
    <cc:requires
    rdf:resource="http://creativecommons.org/ns#Attribution" />
    <cc:permits
    rdf:resource="http://creativecommons.org/ns#DerivativeWorks" />
    <cc:requires
    rdf:resource="http://creativecommons.org/ns#ShareAlike" />
</cc:License>
</rdf:RDF>
</metadata>
<metadata id="uid">
c103e6c17feddc0dabe7a12f35327caab14495d5e79301c0dbd0ec8531aef739
</metadata>
<path stroke="#00DAF3" fill="#00DAF3" fill-rule="evenodd" d="M430.0,743.5C421.5,743.7 412.0,743.5 409.0,742.9C406.0,742.4 402.5,741.2 401.1,740.3C399.6,739.3 395.7,738.5 391.5,738.3C386.5,738.0 382.1,738.4 376.0,740.0C370.0,741.5 363.0,742.3 352.0,742.7C341.1,743.1 331.8,742.8 320.5,741.6C311.6,740.7 300.2,739.1 295.0,738.0C289.9,737.0 285.0,735.4 284.2,734.7C283.1,733.5 283.1,732.8 283.9,731.1C284.6,730.0 285.5,729.0 286.0,729.0C286.6,729.0 287.0,728.5 287.0,728.0C287.0,727.3 281.8,727.2 271.8,727.6C263.4,727.9 251.4,727.7 245.1,727.2C237.5,726.5 233.2,725.7 232.2,724.7C231.4,723.9 231.1,722.7 231.5,722.1C231.8,721.5 234.4,719.8 237.1,718.4C239.8,717.1 241.8,715.5 241.5,715.0C241.1,714.4 233.8,714.0 224.2,714.0C215.0,714.0 203.7,713.5 199.1,712.9C194.5,712.4 189.2,711.3 187.3,710.5C185.2,709.6 184.0,708.4 184.0,707.2C184.0,706.2 185.1,704.3 186.5,703.0C187.9,701.7 188.7,700.3 188.3,699.9C187.8,699.5 181.9,698.7 175.0,698.0C168.1,697.4 157.3,696.0 151.0,694.9C144.7,693.8 136.9,692.2 133.8,691.4C130.7,690.5 127.1,688.7 125.9,687.4C123.6,685.0 123.6,685.0 125.6,682.2C126.7,680.7 130.7,677.9 134.5,675.9C139.7,673.1 140.9,672.1 139.4,671.7C138.4,671.4 132.1,670.9 125.5,670.5C118.9,670.2 109.9,669.4 105.5,668.9C101.1,668.3 95.8,667.5 93.8,666.9C91.5,666.3 89.9,665.2 89.5,663.9C89.1,662.6 89.5,661.1 90.7,659.8C91.7,658.7 94.2,656.9 96.4,655.8C98.5,654.7 99.9,653.5 99.4,653.0C98.9,652.5 92.1,651.4 84.2,650.6C76.4,649.7 68.0,648.5 65.5,647.9C63.1,647.3 60.6,646.2 60.0,645.4C59.3,644.7 59.0,643.1 59.2,641.8C59.4,640.4 61.3,638.3 64.5,636.3C67.2,634.5 69.6,632.6 69.8,632.1C70.0,631.6 68.8,630.9 67.3,630.6C65.8,630.3 58.7,629.1 51.5,628.0C44.3,626.9 35.2,625.3 31.3,624.4C27.3,623.5 22.9,621.9 21.5,620.8C20.1,619.7 19.0,618.0 19.0,616.9C19.0,615.8 19.5,614.0 20.0,612.9C20.6,611.9 23.3,609.9 26.0,608.5C28.7,607.1 33.4,605.3 36.4,604.6C39.4,603.8 46.7,602.8 52.7,602.5C58.6,602.1 65.2,601.4 67.3,600.9C69.5,600.3 71.0,599.4 70.7,598.7C70.5,598.1 67.1,596.8 63.1,595.9C59.1,595.0 55.4,593.8 54.8,593.2C54.0,592.4 54.2,591.4 55.4,589.5C56.3,588.1 56.8,586.6 56.6,586.1C56.3,585.6 53.7,585.0 50.8,584.6C48.0,584.2 41.6,583.0 36.6,581.8C31.6,580.7 25.6,578.8 23.2,577.8C20.4,576.4 18.8,574.9 18.4,573.3C18.0,571.8 18.4,569.4 19.3,567.5C20.1,565.8 22.9,562.9 25.5,561.2C28.0,559.5 31.9,557.9 34.1,557.5C36.7,557.0 38.6,556.0 39.7,554.4C40.9,552.6 41.1,550.7 40.5,546.5C40.2,543.5 38.6,538.4 37.0,535.3C35.4,532.1 31.3,526.2 28.0,522.1C24.7,518.1 21.5,513.9 20.9,512.8C20.3,511.7 20.1,510.6 20.4,510.2C20.8,509.9 25.4,510.6 30.8,511.8C36.1,513.0 41.1,514.0 41.8,514.0C42.4,514.0 43.0,513.6 43.0,513.0C43.0,512.5 40.2,509.0 36.7,505.3C33.2,501.5 29.4,497.1 28.3,495.4C27.1,493.8 25.8,491.2 25.5,489.7C25.1,488.2 25.2,487.0 25.8,487.0C26.3,487.0 30.1,488.6 34.3,490.5C38.5,492.4 42.6,494.0 43.4,494.0C44.3,494.0 45.0,493.4 45.0,492.7C45.0,492.0 43.4,488.7 41.4,485.4C39.4,482.2 36.8,477.5 35.5,475.0C34.3,472.5 33.0,469.3 32.6,467.8C32.3,466.3 32.5,464.8 33.0,464.5C33.6,464.1 36.2,465.2 38.9,466.9C41.5,468.6 44.2,470.0 44.8,470.0C45.6,470.0 46.0,467.7 46.0,463.2C46.0,459.5 46.9,453.2 48.0,449.1C49.1,445.1 51.0,440.0 52.1,437.9C53.1,435.8 54.4,434.0 54.9,434.0C55.4,434.0 56.5,436.6 57.3,439.8C58.2,442.9 59.4,448.6 60.0,452.5C60.6,456.4 61.4,461.0 61.6,462.8C61.9,464.5 62.6,466.0 63.3,466.0C64.0,466.0 66.5,464.6 69.0,462.9C73.5,459.8 73.5,459.8 73.8,462.4C74.0,463.8 73.3,466.1 72.3,467.7C71.4,469.2 68.9,472.8 66.8,475.7C64.7,478.6 63.0,481.6 63.0,482.5C63.0,483.3 63.4,484.0 63.9,484.0C64.4,484.0 67.2,482.9 70.1,481.5C73.5,480.0 75.8,479.4 76.4,480.0C77.0,480.6 77.0,481.8 76.3,483.2C75.7,484.5 73.2,488.3 70.6,491.6C68.1,495.0 66.0,498.5 66.0,499.4C66.0,500.3 66.2,501.0 66.5,501.0C66.8,501.0 68.8,500.1 71.0,499.0C73.2,497.9 75.6,497.0 76.5,497.0C77.3,497.0 78.0,497.9 78.0,499.0C78.0,500.2 77.1,502.9 75.9,505.1C74.8,507.4 74.1,509.4 74.4,509.7C74.6,510.0 77.7,508.2 81.2,505.7C84.7,503.2 96.8,495.6 108.1,488.7C119.4,481.9 130.5,475.1 132.8,473.7C135.0,472.2 141.5,468.5 147.2,465.4C152.8,462.2 167.6,453.6 180.0,446.2C192.4,438.7 213.3,425.5 226.5,416.7C239.7,407.9 256.6,395.9 264.0,390.1C271.4,384.3 285.1,373.5 294.5,366.0C303.9,358.5 314.6,350.2 318.3,347.5C324.8,343.0 325.6,342.7 334.3,341.8C339.4,341.3 361.5,341.0 384.0,341.3C418.3,341.7 425.5,342.0 431.0,343.5C434.6,344.5 439.6,346.3 442.2,347.6C444.8,348.9 450.4,352.9 454.7,356.3C459.0,359.8 467.7,366.3 474.0,370.7C480.3,375.2 487.8,380.5 490.5,382.4C493.2,384.4 502.5,391.3 511.0,397.6C519.5,404.0 532.4,413.3 539.5,418.3C546.6,423.3 562.7,434.2 575.1,442.5C587.5,450.7 601.2,459.8 605.6,462.5C609.9,465.2 618.0,470.4 623.5,473.9C629.0,477.4 637.8,482.9 643.2,486.1C648.5,489.4 656.2,493.6 660.4,495.6C664.5,497.6 668.4,498.9 669.0,498.5C669.5,498.2 670.0,497.5 670.0,496.9C670.0,496.4 668.8,495.0 667.2,493.7C665.7,492.5 662.8,489.8 660.8,487.7C658.7,485.6 657.0,483.0 657.0,482.0C657.0,480.8 657.7,480.0 658.7,480.0C659.7,480.0 662.4,480.7 664.8,481.7C667.8,482.8 669.4,483.0 670.1,482.3C670.9,481.5 669.6,479.5 666.0,475.5C663.2,472.4 660.5,468.7 659.9,467.3C659.4,465.8 659.1,464.1 659.4,463.4C659.7,462.5 661.2,462.9 664.6,464.6C667.2,465.9 669.9,467.0 670.7,467.0C671.4,467.0 672.0,466.2 672.0,465.1C672.0,464.1 670.8,460.7 669.4,457.6C668.0,454.5 667.0,451.4 667.2,450.8C667.5,450.1 668.9,449.6 670.4,449.5C673.0,449.5 673.4,448.9 675.5,442.2C676.8,438.2 678.6,433.8 679.5,432.3C681.0,430.0 681.4,429.9 682.2,431.4C682.7,432.3 684.0,437.5 685.1,443.0C686.1,448.6 687.0,454.4 687.0,456.0C687.0,457.8 687.5,459.0 688.3,459.0C689.0,459.0 691.4,457.7 693.6,456.0C695.7,454.4 698.1,453.0 698.8,453.0C699.4,453.0 700.0,454.1 700.0,455.4C700.0,456.7 698.8,459.5 697.4,461.6C695.9,463.7 693.5,467.0 691.9,468.8C690.3,470.6 689.0,472.5 689.0,473.0C689.0,473.6 689.8,474.0 690.8,474.0C691.7,473.9 693.6,473.3 695.0,472.5C696.4,471.7 698.1,471.1 698.8,471.0C699.4,471.0 700.0,472.0 700.0,473.2C700.0,474.5 698.4,478.1 696.4,481.3C694.4,484.5 693.0,487.4 693.3,487.6C693.6,487.9 696.6,487.0 700.1,485.6C703.5,484.1 707.2,483.0 708.2,483.0C709.9,483.0 709.9,483.2 708.5,485.9C707.7,487.5 704.7,491.5 701.9,494.7C699.1,497.9 696.4,501.3 695.9,502.2C695.4,503.1 695.4,504.1 695.8,504.4C696.2,504.6 700.0,503.3 704.1,501.5C708.1,499.6 712.3,498.0 713.2,498.0C714.7,498.0 714.8,498.4 714.0,500.5C713.5,501.9 710.3,507.1 706.9,512.1C703.6,517.1 701.1,521.4 701.4,521.7C701.7,522.0 705.2,521.3 709.2,520.1C713.2,519.0 717.3,518.0 718.2,518.0C719.2,518.0 720.0,518.5 720.0,519.1C720.0,519.7 719.5,521.1 718.9,522.2C718.3,523.4 714.2,528.8 709.9,534.2C705.5,539.7 701.3,545.5 700.4,547.1C699.6,548.8 699.0,550.4 699.3,550.6C699.5,550.9 703.8,551.7 708.8,552.4C714.4,553.3 719.3,554.6 721.5,556.0C723.4,557.2 725.3,559.3 725.6,560.7C726.0,562.0 725.8,564.2 725.2,565.6C724.6,566.9 721.7,569.8 718.8,571.9C715.9,574.1 711.5,577.4 709.0,579.2C706.6,581.0 703.7,584.0 702.7,585.8C701.6,587.7 701.1,589.5 701.6,590.0C702.1,590.5 709.2,591.8 717.5,592.9C725.8,594.1 734.9,595.7 737.8,596.4C740.7,597.2 744.2,598.6 745.6,599.4C746.9,600.3 748.0,601.8 748.0,602.7C748.0,603.6 747.2,605.2 746.3,606.2C745.4,607.2 739.7,609.6 733.6,611.5C727.5,613.5 721.3,615.8 719.9,616.8C718.5,617.7 714.9,620.6 712.0,623.2C708.7,626.1 706.9,628.4 707.3,629.3C707.6,630.1 710.9,631.5 714.8,632.4C718.6,633.4 723.1,635.0 724.9,636.1C726.6,637.1 728.0,638.8 728.0,639.8C728.0,640.9 727.2,642.4 726.2,643.3C725.2,644.2 722.4,645.7 720.0,646.7C716.5,648.0 711.9,648.4 700.0,648.6C691.5,648.7 684.1,648.8 683.6,648.9C683.2,648.9 684.2,650.3 686.0,652.0C687.8,653.7 689.0,655.7 688.8,656.7C688.6,657.7 686.6,659.5 684.4,660.7C682.1,662.0 675.2,664.1 669.1,665.5C663.0,666.8 657.1,668.4 656.0,669.0C654.9,669.6 654.0,670.4 654.0,670.9C654.0,671.4 656.1,672.5 658.8,673.5C661.4,674.5 664.5,675.9 665.8,676.6C667.0,677.4 668.0,679.0 668.0,680.4C668.0,681.6 667.2,683.4 666.2,684.2C665.3,685.1 661.8,686.7 658.5,688.0C655.2,689.2 649.4,690.8 645.5,691.6C641.6,692.4 631.3,693.3 622.5,693.6C611.9,694.0 604.0,694.9 599.1,696.1C595.0,697.1 589.9,698.0 587.9,698.0C585.8,698.0 583.9,698.4 583.5,698.9C583.2,699.4 583.9,700.1 585.0,700.5C586.1,700.9 587.8,702.3 588.7,703.6C590.2,706.0 590.2,706.2 588.3,708.2C587.2,709.3 583.2,711.1 579.4,712.2C573.7,713.8 567.9,714.3 546.3,714.9C531.8,715.3 519.7,716.0 519.3,716.3C519.0,716.7 519.6,717.9 520.8,719.0C522.0,720.2 523.0,721.7 523.0,722.5C523.0,723.3 522.1,724.4 521.0,725.0C520.0,725.6 514.3,726.5 508.4,727.2C500.3,728.0 493.1,728.0 479.6,727.1C469.6,726.5 459.1,726.0 456.2,726.0C453.4,726.0 451.0,726.4 451.0,726.8C451.0,727.2 453.0,728.6 455.5,729.8C458.0,731.0 460.4,732.8 460.7,733.7C461.1,734.7 460.4,736.1 458.7,737.6C457.2,738.9 453.6,740.7 450.7,741.6C447.1,742.7 440.7,743.3 430.0,743.5zM351.0,712.0C360.4,712.0 371.6,711.4 377.0,710.5C382.2,709.7 390.3,707.9 394.9,706.5C402.8,704.2 404.7,704.0 424.9,704.0C436.8,704.0 458.3,703.7 472.8,703.3C487.2,703.0 499.0,702.4 499.0,702.0C499.0,701.6 497.6,700.7 496.0,700.0C494.4,699.3 493.0,698.1 493.0,697.4C493.0,696.6 494.2,695.4 495.8,694.8C497.5,694.0 506.3,693.6 521.0,693.5C533.4,693.4 544.1,693.3 544.8,693.2C545.4,693.1 546.0,692.6 546.0,692.1C546.0,691.6 543.7,690.4 540.9,689.4C538.2,688.4 535.4,687.0 534.8,686.2C534.1,685.4 534.0,684.6 534.6,684.0C535.2,683.4 542.0,682.1 549.9,681.0C558.1,679.9 567.8,677.8 572.8,676.1C577.6,674.5 582.9,672.9 584.5,672.6C586.1,672.3 595.1,671.3 604.5,670.5C613.9,669.7 623.0,668.7 624.9,668.4C627.1,667.9 627.8,667.5 626.9,667.0C626.1,666.6 623.0,666.0 620.0,665.6C617.0,665.3 608.2,664.5 600.5,664.0C592.8,663.4 575.5,662.5 562.1,662.0C548.6,661.5 536.1,660.5 534.3,659.9C532.5,659.3 531.0,658.4 531.0,657.9C531.0,657.4 533.0,656.5 535.5,655.9C538.0,655.3 540.0,654.4 540.0,654.0C540.0,653.6 539.4,652.7 538.6,652.1C537.8,651.4 531.6,650.5 524.8,649.9C518.1,649.4 511.6,649.3 510.5,649.6C509.4,650.0 506.8,651.4 504.7,652.8C501.4,655.0 499.3,655.5 491.9,655.8C487.0,656.1 480.2,655.7 476.9,655.1C473.5,654.4 469.7,653.4 468.4,652.8C467.1,652.2 466.0,651.4 466.0,651.0C466.0,650.6 467.0,650.0 468.2,649.6C469.5,649.3 475.7,648.7 482.0,648.3C488.3,648.0 494.4,647.4 495.5,647.0C496.9,646.4 495.9,646.1 492.0,645.7C489.0,645.3 480.9,644.6 474.0,643.9C467.1,643.3 460.7,642.4 459.8,641.8C458.8,641.3 458.0,640.4 458.0,639.7C458.0,639.0 458.7,637.2 459.5,635.6C460.3,634.1 461.0,632.7 461.0,632.5C461.0,632.4 459.1,632.9 456.8,633.7C453.4,634.9 449.6,635.1 438.5,634.5C430.8,634.2 421.8,633.5 418.6,633.0C415.3,632.5 412.2,631.6 411.7,631.1C411.0,630.4 411.6,628.7 413.3,626.2C414.7,624.0 418.4,619.5 421.6,616.1C424.8,612.7 429.6,608.7 432.3,607.3C436.6,605.2 438.3,604.9 445.9,605.1C450.7,605.3 455.1,605.1 455.7,604.7C456.3,604.3 458.2,601.5 459.9,598.5C461.6,595.5 465.5,590.6 468.6,587.6C472.0,584.2 475.6,581.6 477.8,581.0C479.9,580.5 483.5,580.0 486.0,580.0C488.5,580.0 492.3,580.9 494.5,581.9C496.7,582.9 500.6,585.7 503.1,588.1C505.6,590.5 508.8,594.1 510.3,596.0C512.9,599.4 512.9,599.4 517.7,598.0C520.8,597.0 526.8,596.5 534.5,596.5C546.0,596.5 546.8,596.7 553.4,599.8C558.3,602.1 562.6,605.3 568.5,611.0C576.2,618.6 577.0,619.1 582.6,620.0C587.6,620.8 589.0,620.7 592.0,619.1C593.9,618.1 597.6,616.1 600.3,614.7C603.1,613.2 607.6,611.9 611.4,611.5C614.9,611.1 620.7,611.3 624.4,611.8C628.1,612.4 634.0,614.2 637.5,615.8C641.5,617.7 646.5,621.4 651.3,625.9C657.3,631.6 659.4,633.0 661.9,633.0C663.6,633.0 665.0,632.7 665.0,632.3C665.0,631.9 664.1,630.6 662.9,629.4C661.7,628.2 661.1,626.7 661.5,626.1C661.8,625.5 663.7,625.0 665.6,625.0C667.5,625.0 669.0,624.6 669.0,624.1C669.0,623.6 667.8,622.5 666.4,621.5C665.0,620.6 664.1,619.6 664.4,619.2C664.7,618.9 670.7,618.2 677.8,617.5C690.5,616.4 690.5,616.4 681.5,614.3C676.5,613.1 669.6,611.9 666.0,611.5C662.4,611.2 656.1,610.4 651.9,609.9C647.7,609.3 643.7,608.4 642.9,608.0C642.2,607.5 641.8,606.8 642.2,606.5C642.6,606.1 644.6,605.5 646.7,605.0C648.8,604.5 653.1,603.6 656.4,603.0C659.6,602.3 661.8,601.4 661.4,601.0C660.9,600.5 656.9,599.7 652.5,599.1C648.1,598.5 640.7,598.0 636.0,597.9C631.3,597.9 622.3,598.1 616.0,598.5C608.2,599.0 602.7,598.9 598.7,598.0C595.2,597.3 593.0,596.4 593.3,595.7C593.5,595.1 594.7,594.3 596.1,593.9C597.4,593.5 601.9,593.1 606.0,593.1C610.1,593.0 617.5,592.3 622.5,591.5C627.5,590.7 635.5,590.0 640.4,590.0C645.7,590.0 649.0,589.6 648.4,589.1C647.9,588.6 640.0,587.7 630.8,587.1C621.6,586.5 612.8,585.7 611.1,585.4C609.4,585.0 608.0,584.4 608.0,584.0C608.0,583.6 611.2,582.7 615.1,582.0C620.0,581.1 621.6,580.4 620.4,579.9C619.3,579.6 612.9,578.5 606.0,577.5C599.2,576.6 593.1,575.6 592.6,575.3C592.2,575.0 592.5,574.3 593.4,573.8C594.3,573.3 600.1,572.5 606.3,572.0C612.4,571.5 624.9,571.0 634.0,570.9C643.1,570.9 651.4,570.5 652.5,570.1C653.7,569.6 650.4,569.0 643.5,568.6C637.4,568.2 565.2,567.5 483.0,567.2C400.8,566.8 308.3,566.9 277.5,567.3C246.7,567.8 209.8,568.2 195.5,568.2C181.2,568.3 139.6,568.1 103.0,567.8C66.4,567.5 37.4,567.6 38.6,568.0C39.7,568.5 50.1,569.5 61.6,570.4C73.1,571.3 91.6,572.9 102.8,573.9C113.9,574.9 123.3,576.0 123.7,576.4C124.1,576.8 123.9,577.4 123.2,577.9C122.6,578.3 118.7,579.5 114.8,580.5C107.5,582.4 107.5,582.4 114.0,583.2C117.6,583.6 124.2,584.5 128.7,585.1C133.3,585.7 136.8,586.6 136.5,587.0C136.2,587.5 133.5,588.4 130.4,589.1C127.4,589.8 124.7,590.7 124.4,591.2C124.1,591.6 124.5,592.0 125.2,592.0C126.0,592.0 130.4,592.5 135.0,593.0C139.7,593.6 145.3,594.6 147.5,595.1C151.0,596.1 151.3,596.3 149.7,597.5C148.7,598.2 143.8,599.2 138.7,599.9C133.7,600.5 125.1,601.2 119.8,601.6C114.4,601.9 109.8,602.6 109.4,603.1C109.1,603.6 109.2,604.0 109.5,604.0C109.8,604.0 113.1,604.5 116.8,605.0C120.5,605.6 132.3,606.4 143.1,606.9C153.9,607.4 163.5,608.2 164.5,608.7C165.9,609.5 165.0,610.1 160.1,612.0C156.7,613.2 154.0,614.6 154.0,615.0C154.0,615.4 156.4,616.0 159.2,616.4C162.1,616.7 168.6,617.0 173.5,617.1C178.4,617.2 183.5,617.5 184.8,617.8C186.1,618.2 187.1,619.0 187.1,619.5C187.1,620.0 185.2,621.1 182.8,621.8C180.5,622.4 173.1,623.7 166.5,624.6C159.9,625.5 150.4,627.5 145.5,629.0C140.6,630.6 133.7,632.6 130.2,633.6C126.7,634.5 124.3,635.6 124.7,636.1C125.1,636.5 133.7,637.2 143.7,637.6C154.2,638.0 162.0,638.7 162.0,639.3C162.0,639.8 160.7,641.9 159.1,643.9C157.6,645.9 155.8,648.5 155.1,649.7C154.5,650.9 154.0,652.3 154.0,652.9C154.0,653.5 155.0,654.0 156.2,654.0C157.6,654.0 161.0,651.2 165.9,646.2C170.4,641.5 176.4,636.6 180.7,634.1C184.6,631.8 190.9,628.6 194.7,627.0C198.4,625.4 204.3,623.7 207.7,623.1C211.4,622.5 216.3,622.5 219.8,623.0C223.0,623.4 227.5,624.7 229.6,625.8C231.7,626.9 236.7,631.0 240.5,635.0C246.0,640.5 248.3,642.2 251.2,642.7C253.3,643.0 255.5,643.9 256.1,644.6C257.0,645.6 256.9,646.1 255.9,646.5C255.1,646.7 250.5,647.4 245.7,647.9C239.5,648.6 235.5,649.7 232.2,651.5C229.6,652.9 225.7,655.7 223.5,657.5C220.0,660.5 219.8,661.0 221.7,661.0C222.9,661.0 226.2,660.1 229.1,659.0C231.9,657.9 236.9,656.7 240.3,656.3C246.4,655.7 246.4,655.7 243.0,660.4C241.1,663.0 239.0,665.6 238.3,666.2C237.6,666.8 237.0,667.6 237.0,668.1C237.0,668.5 239.8,667.7 243.2,666.3C246.7,664.9 250.8,662.9 252.3,661.8C253.8,660.7 258.4,655.7 262.5,650.6C266.5,645.6 271.7,640.0 274.0,638.2C276.2,636.3 280.6,633.7 283.7,632.3C288.8,629.9 290.0,629.8 298.9,630.3C304.2,630.6 311.2,631.6 314.5,632.5C317.8,633.3 323.8,635.6 327.7,637.6C333.1,640.2 336.4,642.7 340.7,647.5C346.5,654.0 346.5,654.0 357.8,654.0C364.5,654.0 371.9,654.6 376.1,655.6C380.8,656.7 385.1,658.5 389.3,661.3C392.7,663.6 397.9,668.4 400.9,672.0C403.9,675.6 407.2,678.6 408.2,678.8C409.3,679.0 410.0,678.5 410.0,677.6C410.0,676.7 410.4,676.0 410.8,676.0C411.3,676.0 413.7,677.4 416.2,679.0C418.7,680.7 422.7,684.5 425.0,687.5C427.3,690.5 429.0,693.7 428.8,694.6C428.6,695.6 427.1,696.7 425.5,697.2C423.9,697.6 417.3,698.4 411.0,699.0C404.7,699.5 397.9,700.4 396.0,701.0C394.1,701.6 386.9,702.3 380.0,702.6C371.4,703.1 358.7,702.6 339.0,701.1C323.3,699.9 309.5,698.5 308.2,698.0C306.9,697.4 306.0,696.2 306.0,695.0C306.0,693.8 306.5,691.9 307.1,690.7C307.8,689.5 309.4,687.2 310.8,685.5C313.3,682.5 313.3,682.5 310.4,682.0C308.8,681.7 288.0,681.6 264.2,681.8C240.0,682.0 221.0,682.5 221.0,683.0C221.0,683.5 225.2,684.8 230.2,686.0C235.3,687.1 245.7,688.7 253.3,689.4C260.9,690.1 267.4,691.0 267.8,691.4C268.2,691.8 267.4,693.0 266.0,694.0C264.6,695.0 263.7,696.1 264.0,696.3C264.3,696.5 269.7,697.7 276.0,698.8C282.3,700.0 292.7,701.6 299.0,702.4C305.3,703.3 315.0,704.4 320.5,705.0C326.0,705.6 331.3,706.3 332.3,706.6C333.8,707.1 333.9,707.4 332.9,708.7C331.9,709.9 331.9,710.3 333.1,711.1C333.9,711.6 341.9,712.0 351.0,712.0zM477.1,692.5C472.9,692.7 466.7,692.5 463.2,692.0C459.7,691.5 455.3,690.6 453.4,690.0C451.5,689.3 450.1,688.3 450.3,687.7C450.5,687.0 451.7,686.0 453.1,685.3C454.4,684.7 461.4,683.6 468.6,683.0C475.8,682.3 485.8,681.9 490.8,682.1C495.8,682.3 500.2,682.8 500.6,683.3C501.0,683.7 500.7,684.7 499.8,685.6C499.0,686.4 495.2,688.3 491.5,689.6C487.3,691.1 481.8,692.2 477.1,692.5zM318.5,691.0C319.4,691.0 324.3,687.0 329.5,682.0C334.7,677.1 340.7,672.2 342.9,671.1C345.1,669.9 347.1,669.4 347.4,669.9C347.7,670.4 347.0,672.9 345.9,675.5C344.8,678.1 344.1,680.4 344.4,680.7C344.7,681.0 346.2,680.4 347.9,679.4C349.5,678.3 353.6,675.1 357.1,672.1C363.4,666.8 363.4,666.8 371.6,667.5C376.1,667.9 380.0,667.8 380.3,667.3C380.6,666.8 380.6,665.9 380.2,665.3C379.8,664.7 377.7,663.4 375.5,662.3C373.3,661.2 369.1,659.7 366.1,659.0C362.8,658.2 357.7,657.9 353.0,658.3C347.1,658.7 343.6,659.6 338.7,661.9C334.4,664.0 330.5,666.8 327.2,670.5C324.3,673.7 321.3,678.2 320.2,681.3C319.1,684.1 317.9,687.5 317.6,688.8C317.0,690.4 317.3,691.0 318.5,691.0zM291.5,689.9C289.3,689.8 286.4,689.5 285.0,689.1C283.6,688.7 282.5,687.8 282.5,687.0C282.5,686.1 284.1,685.2 286.7,684.6C289.0,684.1 292.9,684.1 295.4,684.4C298.9,685.0 300.0,685.5 300.0,686.9C300.0,688.0 299.0,689.0 297.8,689.4C296.5,689.7 293.7,689.9 291.5,689.9zM437.5,675.8C435.9,675.7 432.4,675.4 429.8,675.1C427.1,674.7 424.4,673.8 423.8,673.2C422.8,672.2 422.8,671.7 424.0,671.0C424.8,670.5 428.7,670.0 432.6,670.0C436.5,670.0 441.1,670.5 442.9,671.1C444.7,671.7 445.9,672.7 445.7,673.3C445.5,673.9 444.3,674.7 442.9,675.1C441.6,675.5 439.1,675.8 437.5,675.8zM458.2,665.8C454.1,666.0 450.6,665.6 449.1,664.8C447.7,664.1 446.5,663.0 446.3,662.4C446.1,661.8 446.7,660.9 447.7,660.6C448.6,660.2 452.9,659.9 457.3,659.9C462.0,659.9 465.7,660.4 466.6,661.1C467.9,662.2 467.9,662.5 466.5,663.9C465.5,664.9 462.7,665.5 458.2,665.8zM267.0,662.0C267.7,662.0 269.5,660.9 271.2,659.5C272.8,658.1 274.7,657.0 275.4,657.0C276.0,657.0 278.6,654.9 281.0,652.4C283.5,649.9 287.6,646.3 290.1,644.4C292.7,642.5 295.8,641.0 297.1,641.0C298.5,641.0 300.6,642.2 302.0,643.9C304.5,646.7 304.5,646.7 314.2,646.3C319.6,646.0 324.0,645.4 324.0,645.0C324.0,644.5 322.5,643.3 320.7,642.1C318.9,641.0 313.6,638.7 309.0,637.0C303.8,635.1 298.5,633.8 295.5,633.8C292.5,633.8 289.0,634.5 287.0,635.5C285.1,636.5 281.4,638.8 278.8,640.7C276.3,642.5 272.5,646.5 270.5,649.5C268.5,652.6 266.6,656.6 266.3,658.5C265.9,660.9 266.1,662.0 267.0,662.0zM171.2,652.4C171.9,651.9 175.0,650.0 178.2,648.0C181.3,646.0 185.2,643.7 186.9,643.0C188.7,642.3 190.3,642.0 190.7,642.4C191.0,642.7 190.6,644.8 189.7,647.0C188.9,649.2 188.5,651.0 188.9,651.0C189.2,651.0 190.7,650.3 192.0,649.3C193.4,648.4 196.8,646.0 199.5,643.9C202.2,641.9 207.5,638.8 211.2,637.1C216.5,634.5 218.6,634.1 221.8,634.6C224.2,635.0 226.0,634.8 226.4,634.2C226.8,633.6 226.1,632.2 224.9,631.1C223.7,630.0 221.1,628.5 219.2,627.9C217.3,627.3 213.0,627.0 209.7,627.2C204.6,627.6 201.1,628.8 190.8,633.9C181.5,638.5 177.0,641.3 174.1,644.6C171.8,647.0 170.0,649.9 170.0,651.0C170.0,652.4 170.4,652.9 171.2,652.4zM434.2,651.9C430.0,651.9 425.0,651.4 423.2,650.9C421.5,650.4 420.0,649.5 420.0,648.9C420.0,648.4 421.0,647.6 422.2,647.1C423.5,646.6 427.9,646.0 432.0,645.6C436.1,645.3 441.1,645.4 443.0,645.8C444.9,646.2 446.6,647.3 446.8,648.1C446.9,649.0 445.9,650.2 444.5,650.8C443.1,651.5 438.4,652.0 434.2,651.9zM549.1,644.9C552.2,644.4 559.0,641.6 566.8,637.4C573.8,633.8 581.0,629.7 582.8,628.3C585.0,626.6 585.8,625.4 585.2,624.8C584.5,624.1 581.5,624.3 576.3,625.4C572.0,626.3 565.8,628.3 562.5,629.9C559.2,631.6 553.7,635.2 550.2,638.0C546.8,640.8 544.0,643.7 544.0,644.4C544.0,645.4 545.2,645.5 549.1,644.9zM594.5,644.0C594.9,644.0 599.7,639.7 605.3,634.4C610.8,629.2 616.7,624.2 618.3,623.3C620.6,622.2 623.2,621.9 628.2,622.2C634.2,622.7 634.9,622.6 633.8,621.2C633.1,620.4 630.7,618.9 628.4,617.9C626.2,616.9 621.9,615.8 618.8,615.4C615.0,615.0 611.6,615.3 607.7,616.4C603.3,617.7 600.6,619.4 595.7,624.0C592.2,627.3 588.2,632.0 586.9,634.4C585.6,636.9 584.9,639.2 585.3,639.6C585.7,640.0 587.6,639.6 589.5,638.7C591.5,637.8 593.5,637.0 594.0,637.0C594.5,637.0 594.6,638.6 594.3,640.5C594.0,642.4 594.1,644.0 594.5,644.0zM471.3,633.0C472.0,633.0 475.0,631.4 478.0,629.5C481.0,627.6 484.0,626.0 484.7,626.0C485.8,626.0 485.7,626.7 484.5,629.0C483.2,631.5 483.2,632.0 484.3,632.0C485.1,632.0 488.0,630.3 490.7,628.2C493.5,626.2 498.1,622.6 501.0,620.2C503.8,617.9 507.3,615.7 508.6,615.4C510.0,615.0 511.3,615.0 511.7,615.3C512.0,615.6 511.2,617.5 510.0,619.5C508.8,621.5 508.0,623.3 508.2,623.6C508.5,623.8 509.9,623.6 511.3,623.1C512.8,622.5 516.9,621.5 520.6,620.9C525.7,620.0 528.8,618.7 534.7,614.8C542.0,609.9 542.3,609.8 547.6,610.4C550.6,610.7 553.0,610.6 553.0,610.1C553.0,609.6 551.3,607.8 549.3,606.0C547.3,604.2 544.2,602.2 542.5,601.4C540.8,600.7 537.1,599.8 534.4,599.5C530.9,599.0 527.8,599.4 523.2,600.8C519.8,601.9 513.9,604.7 510.2,606.9C506.5,609.2 501.4,612.4 498.8,614.1C495.7,616.1 491.9,617.4 488.2,618.0C484.9,618.4 480.9,619.5 479.2,620.4C477.6,621.2 474.8,623.8 473.1,626.2C471.4,628.5 470.0,631.0 470.0,631.7C470.0,632.4 470.6,633.0 471.3,633.0zM426.8,623.0C427.8,623.0 429.5,622.3 430.6,621.6C431.8,620.8 436.1,618.8 440.2,617.1C446.6,614.6 448.6,614.2 453.4,614.7C457.0,615.1 459.0,614.9 459.0,614.2C459.0,613.7 457.1,612.2 454.7,611.1C451.7,609.6 448.4,609.0 443.9,609.0C439.3,609.0 436.6,609.6 434.3,611.0C432.5,612.1 429.7,614.8 428.0,617.1C426.4,619.4 425.0,621.7 425.0,622.2C425.0,622.6 425.8,623.0 426.8,623.0zM524.0,613.0C523.4,613.0 523.0,612.5 523.0,612.0C523.0,611.4 524.5,610.1 526.2,609.0C528.0,607.9 530.5,607.0 531.7,607.0C533.2,607.0 533.8,607.5 533.4,608.4C533.1,609.2 531.1,610.6 528.9,611.4C526.7,612.3 524.5,613.0 524.0,613.0zM230.8,606.9C222.4,606.8 214.5,606.5 213.2,606.3C212.0,606.1 211.0,605.3 211.0,604.6C211.0,603.9 212.6,601.2 214.6,598.6C216.5,596.1 220.4,592.6 223.3,591.0C226.3,589.3 230.0,588.0 232.0,588.0C233.9,588.0 237.1,588.8 239.0,589.8C240.9,590.7 244.2,593.8 246.2,596.5C248.3,599.2 250.0,602.3 250.0,603.2C250.0,604.2 249.1,605.4 248.1,606.0C246.9,606.6 239.7,606.9 230.8,606.9zM470.4,599.6C472.7,597.6 475.0,596.0 475.4,596.0C475.7,596.0 476.0,597.1 476.0,598.5C476.0,599.9 476.3,601.0 476.8,601.0C477.2,601.0 479.4,598.3 481.8,595.0C484.2,591.8 487.0,588.8 488.0,588.5C489.1,588.1 490.0,587.5 490.0,587.1C490.0,586.6 489.4,585.7 488.7,585.1C487.9,584.5 486.0,583.8 484.4,583.4C482.3,583.0 480.3,583.6 476.9,585.8C474.4,587.4 470.9,590.9 469.2,593.5C467.4,596.2 466.0,599.4 466.0,600.7C466.0,603.1 466.1,603.1 470.4,599.6zM340.0,601.9C329.8,601.8 318.6,601.4 315.1,600.9C311.6,600.5 308.1,599.9 307.3,599.6C306.6,599.3 306.0,598.0 306.0,596.7C306.0,595.4 308.2,591.2 310.9,587.3C313.6,583.5 317.2,579.1 319.0,577.7C320.7,576.2 322.5,575.0 323.0,575.0C323.4,575.0 322.2,578.1 320.3,581.8C318.4,585.6 317.0,589.5 317.2,590.6C317.6,592.1 319.2,591.0 325.7,584.2C330.2,579.7 334.3,576.0 334.9,576.0C335.6,576.0 337.0,577.6 338.1,579.5C339.3,581.4 340.6,583.0 341.0,583.0C341.4,583.0 342.1,582.3 342.4,581.4C342.8,580.5 342.8,578.2 342.4,576.4C342.1,574.5 342.2,573.0 342.7,573.0C343.2,573.0 345.6,574.3 348.1,575.8C350.6,577.4 354.3,580.7 356.4,583.1C358.4,585.5 361.5,589.5 363.1,591.9C364.7,594.4 366.0,597.1 366.0,598.1C366.0,599.3 364.8,600.2 362.2,600.9C360.2,601.5 350.2,601.9 340.0,601.9zM224.3,599.0C225.4,599.0 227.8,597.9 229.7,596.4C231.5,595.0 233.0,593.2 233.0,592.4C233.0,591.7 232.1,591.0 231.0,591.0C229.8,591.0 227.6,591.7 226.0,592.5C224.4,593.3 222.6,594.9 222.1,595.9C221.5,596.9 221.4,598.0 221.7,598.4C222.0,598.7 223.2,599.0 224.3,599.0zM155.8,558.3C156.7,558.0 160.4,554.9 164.0,551.5C167.6,548.1 171.9,544.6 173.7,543.7C175.5,542.7 178.0,542.0 179.5,542.0C180.9,542.0 182.0,542.2 182.0,542.5C182.0,542.8 181.1,544.8 180.0,547.0C178.9,549.2 178.0,551.4 178.0,552.0C178.0,552.5 178.4,553.0 178.9,553.0C179.5,553.0 182.0,551.2 184.5,549.0C187.0,546.8 190.1,544.5 191.3,543.8C193.3,542.8 193.2,543.0 190.7,546.3C189.2,548.2 188.0,550.1 188.0,550.4C188.0,550.7 188.7,551.0 189.6,551.0C190.5,551.0 194.4,549.6 198.3,548.0C202.3,546.3 207.2,544.1 209.2,543.0C211.5,541.7 214.8,541.0 218.1,541.0C223.3,541.0 223.3,541.0 221.5,539.0C220.5,537.9 216.7,536.1 213.1,535.0C209.5,534.0 202.8,532.6 198.2,531.9C193.6,531.3 187.4,531.0 184.5,531.3C181.3,531.6 176.9,533.0 173.9,534.6C171.1,536.2 166.4,540.0 163.4,543.3C160.4,546.5 157.1,550.9 156.0,553.0C154.9,555.2 154.0,557.4 154.0,557.9C154.0,558.5 154.8,558.7 155.8,558.3zM249.8,551.1C250.8,550.6 252.3,549.4 253.0,548.5C253.7,547.6 255.6,546.0 257.2,544.8C259.1,543.5 262.7,542.5 267.2,542.0C271.0,541.6 274.7,540.7 275.3,540.1C276.1,539.3 275.5,538.7 273.2,537.9C271.4,537.3 270.0,536.4 270.0,536.0C270.0,535.5 271.3,534.2 273.0,533.0C274.6,531.9 278.5,530.5 281.7,530.0C284.9,529.4 287.9,529.0 288.4,529.0C288.9,529.0 288.3,527.9 287.0,526.5C284.9,524.2 284.8,524.0 286.5,523.4C287.5,523.0 292.5,523.2 297.7,523.9C302.9,524.6 307.4,525.0 307.6,524.7C307.9,524.5 307.5,523.8 306.8,523.2C306.1,522.7 302.4,521.2 298.5,520.0C294.6,518.8 287.6,517.6 282.9,517.3C275.8,516.8 273.0,517.1 267.3,518.8C263.5,520.0 257.7,522.7 254.5,524.8C251.2,527.0 247.2,530.1 245.6,531.9C242.6,535.0 242.6,535.0 249.3,535.0C256.1,535.0 256.1,535.0 252.0,542.3C249.8,546.4 248.0,550.2 248.0,550.9C248.0,551.7 248.5,551.8 249.8,551.1zM437.5,552.0C437.8,552.0 441.1,549.8 444.8,547.1C448.5,544.5 453.0,541.5 454.8,540.6C456.5,539.7 458.0,538.5 458.0,537.9C458.0,537.3 456.6,536.3 455.0,535.7C453.4,535.1 452.0,534.2 452.0,533.9C452.0,533.5 453.5,532.7 455.2,532.1C457.0,531.6 462.8,530.6 468.0,529.9C477.2,528.8 477.7,528.8 483.5,531.3C486.8,532.7 491.3,534.2 493.5,534.6C497.2,535.3 497.4,535.2 496.1,533.6C495.3,532.7 492.8,530.8 490.5,529.5C488.3,528.1 484.5,526.4 482.0,525.5C479.6,524.7 474.5,523.5 470.7,522.9C465.8,522.1 462.1,522.1 457.6,522.9C454.2,523.5 447.4,525.5 442.6,527.4C437.8,529.3 431.9,532.5 429.5,534.5C427.1,536.4 424.1,539.5 422.9,541.2C420.8,544.1 420.7,544.3 422.6,543.6C423.6,543.1 425.5,542.5 426.8,542.3C428.4,541.9 429.0,542.2 429.0,543.4C429.0,544.3 429.2,545.0 429.5,545.0C429.8,545.0 432.2,543.9 434.8,542.5C438.6,540.5 439.6,540.3 439.8,541.4C440.0,542.2 439.4,544.2 438.6,545.9C437.7,547.5 437.0,549.6 437.0,550.5C437.0,551.3 437.2,552.0 437.5,552.0zM341.8,551.0C342.3,551.0 345.1,549.1 348.1,546.9C351.1,544.6 355.5,541.9 357.9,540.8C360.9,539.4 362.5,539.1 363.3,539.9C364.0,540.6 363.8,542.2 362.7,545.1C361.8,547.5 361.2,549.5 361.4,549.8C361.6,550.0 364.2,548.5 367.0,546.6C371.4,543.6 373.1,543.0 377.6,543.0C380.6,543.0 383.0,542.6 383.0,542.1C383.0,541.7 381.0,540.5 378.5,539.5C374.5,538.0 374.1,537.6 375.2,536.2C375.9,535.4 377.9,534.1 379.7,533.4C381.4,532.6 386.7,531.7 391.4,531.4C398.0,530.9 399.8,530.4 399.0,529.5C398.4,528.8 395.4,527.5 392.4,526.5C388.3,525.2 385.1,524.9 380.6,525.3C377.3,525.7 372.7,526.2 370.5,526.6C366.5,527.2 366.5,527.2 368.9,525.2C370.2,524.1 374.3,521.6 377.9,519.7C383.4,516.7 385.8,516.1 392.3,515.7C396.6,515.4 400.4,515.0 400.7,514.7C401.0,514.4 399.3,513.2 397.1,512.0C394.8,510.9 390.2,509.3 386.9,508.4C381.9,507.1 379.9,507.0 376.1,508.0C373.6,508.6 366.8,512.2 361.0,515.9C355.2,519.6 348.1,524.0 345.2,525.5C342.3,527.1 338.1,529.9 335.9,531.8C333.7,533.7 330.3,537.5 328.5,540.3C326.6,543.1 325.2,545.6 325.5,545.8C325.7,546.1 328.0,544.4 330.6,542.2C333.1,539.9 337.7,537.2 340.6,536.0C343.6,534.9 346.7,534.0 347.5,534.0C348.3,534.0 349.0,534.2 349.0,534.6C349.0,534.9 347.2,538.1 345.0,541.7C342.8,545.4 341.0,549.0 341.0,549.7C341.0,550.4 341.4,551.0 341.8,551.0zM53.8,541.9C57.5,538.4 62.8,534.3 65.5,532.9C68.3,531.4 71.7,530.0 73.2,529.6C75.0,529.2 76.0,529.4 76.0,530.1C76.0,530.6 74.6,533.1 72.9,535.6C71.3,538.0 69.2,541.6 68.4,543.6C67.6,545.6 67.1,547.4 67.4,547.7C67.7,548.0 70.9,545.7 74.5,542.6C79.4,538.5 81.9,537.0 84.1,537.0C85.8,537.0 90.8,535.4 95.1,533.5C99.5,531.6 104.5,530.0 106.1,530.0C109.0,530.0 109.1,530.1 107.6,532.2C106.7,533.4 106.0,534.8 106.0,535.2C106.0,535.7 106.8,536.0 107.8,536.0C108.7,536.0 111.5,535.1 113.8,534.0C116.3,532.9 118.4,531.1 118.7,530.0C119.1,528.6 120.1,528.0 122.0,528.0C123.5,528.0 126.9,528.7 129.6,529.5C132.3,530.3 135.7,531.0 137.2,531.0C138.8,531.0 140.0,530.6 140.0,530.1C140.0,529.6 136.9,527.6 133.1,525.6C129.3,523.6 123.4,521.3 119.9,520.4C115.2,519.2 111.6,518.9 106.5,519.5C102.7,519.8 94.8,520.1 89.2,520.0C81.0,519.9 77.4,520.4 72.3,522.1C67.3,523.7 64.4,525.6 59.3,530.3C55.7,533.7 51.5,538.7 49.9,541.5C48.3,544.2 47.0,546.9 47.0,547.4C47.0,547.9 50.1,545.4 53.8,541.9zM420.4,528.0C421.2,528.0 425.2,526.7 429.3,525.0C433.4,523.4 438.9,521.6 441.6,521.0C444.3,520.4 447.2,519.5 448.0,518.9C449.3,518.1 449.1,517.6 446.7,515.5C444.5,513.6 442.8,513.0 439.1,513.0C435.5,513.0 433.3,513.7 429.7,516.1C427.1,517.8 423.7,520.9 422.0,523.0C420.4,525.1 419.0,527.1 419.0,527.4C419.0,527.7 419.6,528.0 420.4,528.0zM196.2,526.7C200.4,526.4 204.7,525.7 205.8,525.1C207.0,524.5 212.3,524.0 217.6,524.0C226.1,524.0 227.2,523.8 226.0,522.6C225.2,521.8 222.2,520.4 219.5,519.5C216.8,518.6 211.8,517.6 208.5,517.3C203.3,516.9 201.8,517.2 197.1,519.7C194.2,521.2 191.0,523.6 190.1,524.9C188.5,527.3 188.5,527.3 196.2,526.7zM182.4,502.6C185.3,501.9 190.8,499.6 194.6,497.6C198.4,495.5 202.5,492.9 203.9,491.9C206.3,490.0 206.3,490.0 203.4,490.0C201.8,490.0 199.9,489.6 199.1,489.1C198.1,488.5 198.7,487.5 201.6,485.2C203.8,483.5 208.7,479.8 212.6,476.8C216.6,473.9 227.3,464.4 236.4,455.8C245.5,447.2 255.3,438.8 258.0,437.1C261.6,434.9 263.0,434.4 263.0,435.5C263.0,436.2 262.6,437.2 262.0,437.5C261.4,437.8 261.0,439.0 261.0,440.1C261.0,441.1 261.4,442.0 262.0,442.0C262.5,442.0 261.6,444.3 259.9,447.1C258.3,449.9 257.1,452.5 257.4,452.8C257.7,453.0 259.4,452.7 261.2,452.0C263.0,451.2 266.3,449.4 268.6,447.9C270.8,446.4 276.5,442.2 281.3,438.7C286.0,435.1 290.8,431.9 292.0,431.5C293.2,431.1 294.4,431.1 294.8,431.4C295.1,431.8 294.5,433.7 293.5,435.8C292.4,437.8 288.1,442.9 284.0,447.1C277.6,453.6 275.3,455.2 268.5,457.9C264.1,459.7 258.7,462.0 256.4,463.1C254.2,464.2 249.5,467.6 246.1,470.6C242.7,473.7 240.1,476.4 240.2,476.6C240.4,476.7 243.9,476.0 248.0,474.9C252.0,473.9 257.2,473.0 259.3,473.0C263.3,473.0 263.3,473.0 261.5,475.0C260.5,476.2 258.0,478.0 256.1,479.2C254.1,480.4 248.3,484.0 243.2,487.4C238.2,490.7 234.0,493.7 234.0,494.2C234.0,494.6 235.4,495.0 237.0,495.0C238.7,495.0 242.8,494.1 246.0,493.0C249.3,491.9 255.2,489.1 259.1,486.7C263.0,484.4 268.7,480.5 271.8,478.0C275.0,475.5 282.6,467.2 288.8,459.5C295.0,451.8 304.5,439.4 309.9,432.0C315.3,424.6 323.1,413.1 327.2,406.5C331.4,399.9 337.2,389.6 340.2,383.5C343.3,377.4 347.4,368.3 349.4,363.3C351.4,358.2 353.0,353.3 353.0,352.5C353.0,351.7 352.1,351.0 350.9,351.0C349.8,351.0 348.0,351.4 347.0,352.0C346.0,352.5 343.5,355.3 341.5,358.2C339.4,361.1 335.3,366.5 332.4,370.1C329.4,373.8 325.2,378.0 323.0,379.5C320.8,381.0 318.8,382.1 318.6,381.9C318.4,381.7 320.0,377.7 322.1,373.1C324.3,368.4 325.9,364.2 325.7,363.6C325.5,363.0 323.0,364.8 320.0,367.5C317.1,370.3 311.6,376.1 307.7,380.5C303.9,384.9 297.4,392.0 293.3,396.3C289.2,400.5 274.8,413.8 261.3,425.8C247.8,437.7 231.5,451.3 225.1,455.9C218.7,460.6 208.8,467.8 203.0,472.0C197.2,476.3 187.6,483.0 181.7,486.9C175.8,490.9 171.2,494.5 171.5,494.9C171.8,495.4 174.7,495.6 178.0,495.3C181.5,494.9 184.0,495.1 184.0,495.7C184.0,496.2 182.2,497.9 180.1,499.6C177.9,501.2 176.4,502.8 176.6,503.2C176.8,503.5 179.4,503.3 182.4,502.6zM310.5,503.0C311.4,503.0 313.7,502.1 315.8,501.1C317.8,500.0 322.3,496.3 325.6,492.8C329.0,489.3 333.5,483.8 335.7,480.5C337.9,477.2 342.2,470.0 345.3,464.4C348.4,458.8 351.6,453.7 352.5,453.0C353.8,451.9 354.0,452.4 354.0,456.6C354.0,459.3 354.4,462.2 355.0,463.0C355.5,463.8 356.2,464.2 356.5,463.9C356.8,463.5 358.0,460.7 359.0,457.6C360.1,454.5 362.1,444.9 363.5,436.2C364.8,427.6 366.3,414.9 366.9,408.0C367.5,401.1 368.7,386.1 369.5,374.6C370.5,361.3 370.7,353.3 370.1,352.7C369.6,352.2 368.7,352.0 368.2,352.4C367.6,352.7 363.9,358.9 359.9,366.1C356.0,373.3 350.9,383.3 348.7,388.3C346.6,393.4 341.7,406.9 337.8,418.4C334.0,429.9 331.1,439.4 331.3,439.7C331.5,439.9 334.1,438.4 337.1,436.5C340.1,434.5 344.5,431.0 346.9,428.7C351.2,424.5 351.2,424.5 350.7,431.0C350.3,436.1 349.1,439.6 345.0,447.7C341.2,455.4 338.4,459.5 334.2,463.6C331.0,466.8 328.4,468.7 328.2,468.0C327.9,467.3 328.3,464.1 329.0,460.9C329.7,457.6 330.0,454.7 329.6,454.3C329.3,453.9 327.8,454.7 326.4,456.1C325.0,457.4 321.5,461.9 318.6,466.0C315.7,470.1 308.9,478.4 303.6,484.5C298.3,490.6 293.4,496.3 292.9,497.4C292.3,498.4 292.2,499.0 292.7,498.7C293.1,498.4 298.2,496.4 303.9,494.1C309.6,491.8 314.6,490.0 315.1,490.0C315.6,490.0 316.0,490.4 316.0,490.9C316.0,491.4 314.4,494.1 312.5,497.0C310.6,499.9 309.0,502.4 309.0,502.6C309.0,502.8 309.7,503.0 310.5,503.0zM578.2,501.0C578.7,501.0 579.0,500.6 579.0,500.1C579.0,499.6 575.5,496.3 571.2,492.9C567.0,489.5 559.8,484.2 555.3,481.3C550.8,478.3 544.6,474.8 541.5,473.4C538.4,471.9 535.6,471.1 535.2,471.5C534.8,471.9 538.4,475.9 543.1,480.3C548.1,485.1 554.9,490.4 559.5,493.0C563.8,495.4 569.6,498.2 572.4,499.2C575.2,500.1 577.8,500.9 578.2,501.0zM125.2,491.5C127.6,491.1 132.8,489.9 136.9,488.9C142.6,487.4 148.3,484.6 161.6,476.7C171.1,471.1 181.5,465.0 184.7,463.2C187.9,461.4 196.8,455.4 204.5,449.9C212.2,444.4 222.1,437.9 226.5,435.3C230.9,432.8 239.5,426.7 245.6,421.9C251.7,417.1 259.2,411.7 262.1,409.9C265.1,408.1 270.0,404.8 273.0,402.6C276.0,400.4 279.7,397.5 281.2,396.2C282.7,394.8 283.7,393.3 283.4,392.9C283.1,392.4 289.4,385.6 297.3,377.8C305.2,369.9 312.2,362.5 312.9,361.2C314.1,358.9 314.1,358.9 311.8,360.1C310.5,360.8 307.0,363.1 304.0,365.3C301.0,367.6 291.8,374.8 283.5,381.5C275.2,388.2 265.1,396.3 261.0,399.6C256.9,402.9 250.3,407.9 246.4,410.7C242.5,413.5 232.2,420.4 223.4,426.0C214.7,431.7 200.5,440.6 192.0,445.8C183.5,451.1 167.7,460.4 156.9,466.6C146.2,472.7 135.6,479.0 133.4,480.6C131.2,482.2 127.5,485.0 125.2,486.9C122.9,488.8 121.0,490.7 121.0,491.3C121.0,491.8 122.8,491.9 125.2,491.5zM513.2,486.0C513.7,486.0 514.0,485.5 514.0,484.9C514.0,484.3 509.1,478.8 503.1,472.6C497.1,466.5 485.8,455.2 478.0,447.5C470.2,439.8 460.2,429.1 455.8,423.8C450.1,416.9 447.0,414.0 445.5,414.0C444.3,414.0 442.4,413.1 441.2,412.0C440.0,410.9 437.3,407.6 435.1,404.7C433.0,401.8 428.6,394.6 425.5,388.5C422.4,382.4 418.6,375.6 417.2,373.3C415.7,370.9 414.1,369.0 413.6,369.0C413.1,369.0 413.0,371.0 413.3,373.3C413.6,375.7 413.6,379.0 413.1,380.6C412.3,383.5 412.3,383.5 410.3,380.2C409.2,378.4 406.3,371.2 404.0,364.3C400.0,352.8 399.6,351.9 398.2,353.6C397.1,355.2 396.9,359.4 397.3,377.5C397.6,390.6 398.5,403.7 399.5,410.0C400.4,415.7 402.5,424.6 404.1,429.7C405.7,434.8 407.5,439.2 408.0,439.5C408.6,439.9 409.0,435.4 409.0,427.6C409.0,420.7 409.3,415.0 409.8,415.0C410.2,415.0 411.1,416.0 411.9,417.2C412.7,418.5 416.1,425.8 419.5,433.6C422.9,441.4 426.8,449.4 428.2,451.4C429.6,453.4 431.0,454.7 431.3,454.3C431.7,453.9 431.8,451.4 431.5,448.6C430.9,443.5 430.9,443.5 436.0,449.0C441.2,454.5 441.2,454.5 440.5,450.5C440.1,448.3 438.3,442.3 436.3,437.2C434.4,432.0 432.6,426.3 432.3,424.4C431.9,422.3 432.1,421.0 432.8,421.0C433.4,421.0 438.5,426.1 444.2,432.3C449.9,438.5 461.0,450.7 468.8,459.3C476.7,467.8 483.9,475.1 484.7,475.5C485.6,475.8 486.5,475.9 486.7,475.6C487.0,475.4 486.4,473.8 485.6,472.1C484.7,470.5 484.0,468.6 484.0,468.0C484.0,467.5 484.3,467.0 484.8,467.0C485.2,467.0 489.8,470.4 495.0,474.6C500.2,478.8 506.3,483.1 508.5,484.1C510.7,485.1 512.8,486.0 513.2,486.0zM578.2,471.9C578.7,472.0 579.0,471.6 579.0,471.2C579.0,470.8 577.0,468.7 574.4,466.6C571.9,464.5 566.6,460.2 562.6,457.0C558.5,453.8 549.4,447.3 542.4,442.7C535.3,438.0 518.9,425.5 506.0,415.0C493.1,404.4 477.2,391.3 470.7,385.8C464.2,380.3 458.7,376.0 458.5,376.2C458.2,376.4 460.0,379.5 462.4,383.1C464.8,386.6 469.8,393.4 473.6,398.1C477.4,402.8 484.8,412.0 490.1,418.6C495.4,425.1 504.8,435.5 511.1,441.5C517.4,447.6 524.1,453.5 526.0,454.7C527.9,455.8 530.5,457.1 531.8,457.5C534.1,458.2 534.1,458.2 532.5,455.0C530.9,451.8 530.9,451.8 533.1,452.5C534.4,452.9 539.8,455.9 545.2,459.1C550.6,462.3 557.6,465.9 560.8,467.0C564.0,468.2 569.1,469.7 572.1,470.5C575.1,471.2 577.8,471.8 578.2,471.9zM460.2,400.0C460.7,400.0 461.0,399.6 461.0,399.1C461.0,398.6 457.8,393.3 453.9,387.3C450.0,381.4 442.7,371.0 437.8,364.2C432.9,357.5 428.0,351.5 426.9,350.9C425.4,350.2 424.8,350.3 424.4,351.4C424.1,352.2 426.6,358.3 430.0,364.9C433.6,371.9 438.7,379.9 442.2,384.0C445.5,387.9 450.8,393.1 453.9,395.6C457.0,398.0 459.8,400.0 460.2,400.0zM626.5,370.0C623.4,370.0 619.9,369.2 617.5,368.0C614.5,366.5 612.5,366.1 608.9,366.6C606.2,367.0 602.7,366.7 600.6,366.0C597.7,365.1 597.0,364.4 597.2,362.7C597.4,361.0 598.8,360.1 602.7,358.8C605.6,357.9 609.0,356.4 610.2,355.6C611.4,354.7 614.2,354.0 616.2,354.0C620.1,354.0 620.1,354.0 618.4,357.1C617.1,359.7 617.0,360.4 618.2,361.1C618.9,361.6 621.3,361.7 623.5,361.3C626.2,360.9 628.2,359.8 629.8,357.9C631.2,356.1 633.1,355.0 634.6,355.0C636.2,355.0 637.4,355.8 638.2,357.5C638.9,359.1 640.7,360.4 643.3,361.2C645.4,361.8 647.4,363.0 647.7,363.8C648.0,364.5 647.6,365.8 646.9,366.5C646.1,367.3 642.3,368.4 638.5,368.9C634.6,369.5 629.2,370.0 626.5,370.0zM177.3,358.9C174.1,358.9 170.6,358.5 169.5,358.0C168.4,357.6 163.5,357.5 158.7,357.8C150.7,358.3 149.3,358.1 144.2,355.7C141.1,354.3 135.3,352.8 131.5,352.3C125.4,351.6 124.5,351.2 124.5,349.5C124.5,348.0 126.4,346.5 131.5,343.8C135.3,341.7 139.3,340.0 140.2,340.0C141.5,340.0 142.0,340.8 142.0,343.0C142.0,345.6 142.4,346.0 144.8,346.0C146.3,346.0 148.7,345.2 150.0,344.3C151.4,343.4 154.4,340.9 156.7,338.8C160.4,335.5 161.6,335.0 165.8,335.0C169.3,335.0 171.5,335.6 173.4,337.1C174.8,338.2 176.0,339.9 176.0,340.9C176.0,341.9 174.9,343.7 173.5,345.0C172.1,346.3 171.0,348.0 171.0,348.8C171.0,350.0 172.1,350.1 177.2,349.5C180.7,349.1 184.8,348.8 186.5,348.9C188.1,349.0 190.1,349.7 190.8,350.4C191.9,351.4 191.9,352.3 191.1,353.8C190.5,354.8 188.5,356.5 186.6,357.4C184.6,358.3 180.8,359.0 177.3,358.9zM452.7,331.6C449.7,332.0 448.0,331.9 448.0,331.3C448.0,330.7 449.7,328.7 451.8,326.9C453.9,325.0 459.1,321.0 463.4,318.0C469.2,313.9 470.6,312.4 469.2,312.2C468.1,312.0 461.0,315.0 453.3,318.8C445.7,322.6 438.3,326.0 436.8,326.4C435.2,326.7 434.0,326.6 434.0,326.1C434.0,325.6 436.1,322.4 438.6,319.0C441.1,315.6 442.9,312.6 442.7,312.3C442.4,312.1 440.5,312.9 438.3,314.3C436.2,315.6 433.4,317.3 432.1,317.9C430.2,319.0 429.9,319.0 430.6,317.8C431.0,317.1 433.1,314.3 435.2,311.7C437.3,309.0 439.0,306.4 439.0,305.9C439.0,305.4 438.6,305.0 438.1,305.0C437.7,305.0 436.0,306.0 434.4,307.2C432.8,308.4 426.7,314.0 420.9,319.7C415.1,325.4 409.8,330.0 409.1,330.0C408.5,330.0 408.0,329.1 408.0,327.9C408.0,326.7 408.7,323.0 409.5,319.6C410.4,316.3 412.0,311.1 413.2,308.2C414.3,305.3 415.0,302.6 414.6,302.3C414.3,301.9 411.9,303.6 409.4,306.1C406.9,308.5 402.3,314.2 399.3,318.8C396.2,323.3 393.3,327.0 393.0,327.0C392.6,327.0 392.0,324.6 391.6,321.8C391.3,318.9 391.0,312.9 391.0,308.5C390.9,300.5 390.9,300.5 389.0,304.0C387.9,305.9 386.4,309.6 385.5,312.2C384.6,314.9 383.5,317.0 383.1,317.0C382.6,317.0 380.6,314.3 378.6,311.0C376.5,307.7 374.7,305.0 374.4,305.0C374.2,305.0 374.3,309.8 374.7,315.7C375.1,323.2 375.0,326.1 374.2,325.6C373.6,325.3 370.7,321.5 367.7,317.2C364.7,313.0 361.3,308.6 360.1,307.6C359.0,306.5 358.0,306.0 358.0,306.4C358.0,306.9 358.7,309.6 359.6,312.6C360.4,315.6 361.0,319.1 360.8,320.5C360.5,323.0 360.3,322.9 353.7,317.1C350.0,313.8 346.1,310.6 345.0,310.0C343.9,309.4 343.0,309.2 343.0,309.5C343.0,309.8 344.6,313.2 346.6,317.1C348.5,321.0 350.0,324.8 349.8,325.6C349.6,326.6 346.7,325.0 340.5,320.4C335.6,316.8 329.8,312.9 327.8,311.9C325.7,310.8 324.0,310.2 324.0,310.4C324.0,310.7 326.3,313.9 329.0,317.5C331.8,321.1 334.0,324.5 334.0,325.1C334.0,325.6 333.6,326.0 333.2,326.0C332.8,326.0 328.6,324.0 323.9,321.5C319.3,319.1 312.2,315.4 308.2,313.4C304.2,311.4 300.6,310.0 300.3,310.4C300.0,310.7 302.7,314.1 306.3,317.9C310.0,321.7 313.0,325.3 313.0,325.9C313.0,326.5 311.0,326.2 308.0,325.0C305.2,323.9 298.3,320.6 292.7,317.6C287.1,314.6 281.5,311.9 280.2,311.5C279.0,311.2 278.0,311.3 278.0,311.8C278.0,312.2 281.9,314.8 286.6,317.5C291.3,320.1 296.5,323.4 298.2,324.8C300.2,326.5 300.8,327.6 300.1,328.3C299.4,329.0 297.1,328.6 293.0,327.1C289.6,325.8 286.6,325.0 286.4,325.3C286.1,325.5 287.2,326.6 288.7,327.6C291.5,329.4 291.5,329.4 288.4,330.0C286.7,330.4 279.8,330.3 272.9,329.9C266.1,329.4 256.0,328.6 250.5,328.0C245.0,327.4 233.3,325.8 224.5,324.3C215.7,322.9 205.6,320.9 202.0,319.8C198.4,318.7 193.5,316.7 191.0,315.5C188.5,314.2 185.3,311.9 183.8,310.3C182.3,308.8 180.4,305.8 179.6,303.8C178.7,301.7 178.0,298.6 178.0,296.8C178.0,295.0 178.9,291.7 179.9,289.5C180.9,287.3 183.5,283.8 185.6,281.6C187.8,279.5 192.4,276.3 196.0,274.5C199.6,272.7 204.9,270.5 207.9,269.6C210.9,268.7 215.6,268.0 218.2,268.0C220.9,268.0 224.0,267.5 225.1,267.0C226.1,266.4 227.0,265.3 227.0,264.5C227.0,263.7 226.1,262.5 225.0,261.7C224.0,261.0 222.6,259.1 222.0,257.6C221.5,256.1 221.0,253.0 221.0,250.7C221.0,248.4 222.0,244.5 223.1,242.0C224.2,239.5 227.4,235.4 230.2,232.8C233.5,229.6 236.9,227.5 240.3,226.5C243.1,225.7 247.1,225.0 249.2,225.0C251.3,225.0 253.0,225.4 253.0,225.9C253.0,226.4 250.9,227.3 248.3,227.9C245.8,228.6 241.7,230.3 239.2,231.7C236.8,233.1 233.5,236.1 232.0,238.2C230.4,240.4 228.8,243.4 228.5,245.1C228.1,246.7 228.1,249.3 228.5,251.0C228.9,252.7 229.7,254.0 230.3,254.0C230.9,254.0 233.1,252.1 235.2,249.8C238.6,246.0 239.1,245.7 240.0,247.2C240.6,248.2 241.6,249.0 242.3,249.0C243.0,249.0 246.0,247.4 249.0,245.4C252.0,243.5 256.2,241.5 258.2,240.9C260.3,240.4 262.0,239.5 262.0,239.1C262.0,238.6 260.9,235.8 259.5,232.8C257.7,229.1 257.0,225.8 257.0,221.6C257.0,217.7 257.7,214.2 259.0,211.6C260.1,209.3 262.7,205.3 264.9,202.7C268.9,197.9 268.9,197.9 266.7,193.7C265.0,190.5 264.5,187.8 264.5,182.0C264.5,175.7 264.9,173.8 267.2,169.9C268.7,167.4 271.9,163.5 274.5,161.1C277.1,158.7 281.1,156.0 283.4,154.9C285.8,153.9 290.6,152.6 294.2,152.1C297.7,151.6 301.8,151.4 303.3,151.7C305.6,152.2 306.8,151.3 312.0,145.8C315.3,142.2 319.7,138.6 321.7,137.7C323.8,136.8 327.3,135.6 329.6,135.0C332.8,134.2 334.6,132.9 337.6,128.8C339.7,125.9 343.6,122.3 346.2,120.7C349.6,118.6 353.1,117.5 359.3,116.6C367.3,115.6 367.9,115.3 373.0,110.7C376.0,108.0 380.7,104.7 383.5,103.2C387.2,101.4 390.6,100.5 396.2,100.2C401.9,99.9 406.4,100.3 413.3,101.9C418.4,103.1 425.4,105.4 428.8,107.0C432.2,108.6 437.3,112.1 440.1,114.7C442.9,117.3 445.9,120.8 446.8,122.5C447.7,124.1 449.3,128.1 450.4,131.3C452.5,137.1 452.5,137.2 459.7,140.2C465.2,142.4 468.1,144.4 471.5,148.2C473.9,150.9 476.4,154.8 477.0,156.8C477.5,158.8 478.0,163.5 478.0,167.2C478.0,174.0 478.0,174.0 483.2,176.6C486.1,178.1 490.4,180.8 492.7,182.6C495.1,184.6 498.0,188.4 499.6,191.6C501.6,195.8 502.3,198.6 502.3,202.9C502.2,206.0 501.6,210.1 500.7,212.0C499.9,213.9 497.2,218.0 494.6,221.1C492.1,224.2 490.0,227.2 490.0,227.7C490.0,228.3 490.7,229.3 491.5,230.0C492.3,230.7 493.2,232.8 493.6,234.9C493.9,236.9 494.8,239.4 495.5,240.6C496.3,241.9 498.3,243.0 500.5,243.3C502.5,243.6 505.7,245.1 507.5,246.5C509.4,247.9 512.0,249.0 513.4,249.0C515.4,249.0 516.0,248.5 516.0,246.8C516.0,245.5 515.1,243.1 514.0,241.3C513.0,239.5 510.8,237.5 509.3,236.7C507.8,235.9 504.1,234.5 501.2,233.6C498.4,232.6 496.0,231.4 496.0,230.9C496.0,230.4 498.5,230.0 501.5,230.0C504.5,230.0 509.3,230.9 512.4,232.0C515.9,233.4 519.2,235.6 521.8,238.4C524.4,241.2 526.4,244.8 527.4,248.1C528.3,251.0 529.0,253.9 529.0,254.6C529.0,255.3 529.7,256.6 530.6,257.4C531.7,258.5 534.0,259.0 538.3,259.0C541.7,259.0 546.2,259.5 548.2,260.0C550.6,260.7 554.1,263.2 557.8,266.9C563.2,272.2 564.1,272.7 569.4,273.4C572.6,273.7 576.6,274.6 578.4,275.4C580.2,276.1 583.3,278.2 585.4,280.0C587.4,281.8 590.1,285.2 591.2,287.4C592.5,289.8 593.3,293.4 593.4,296.0C593.4,298.5 592.5,302.3 591.5,304.5C590.4,306.7 587.7,310.3 585.5,312.5C583.3,314.7 578.2,318.2 574.2,320.3C570.2,322.5 565.4,324.6 563.7,325.1C561.9,325.6 557.1,326.7 553.0,327.5C548.9,328.3 540.8,329.4 535.1,330.0C529.4,330.5 522.2,331.0 519.0,331.0C515.7,331.0 512.8,330.6 512.5,330.0C512.2,329.5 515.1,327.0 519.0,324.4C522.9,321.9 525.9,319.6 525.6,319.3C525.3,319.0 522.2,319.7 518.8,321.0C515.3,322.2 509.2,325.0 505.1,327.3C497.7,331.3 497.6,331.3 484.7,331.8C474.0,332.2 471.8,332.0 472.2,330.9C472.4,330.1 476.8,327.4 481.8,324.8C486.9,322.3 493.4,318.7 496.2,316.9C499.6,314.7 500.9,313.4 499.8,313.2C498.9,313.0 493.1,315.0 486.8,317.5C480.6,320.1 471.4,324.1 466.4,326.6C461.4,329.0 455.2,331.3 452.7,331.6zM188.7,300.3C189.7,300.0 191.7,298.9 193.1,297.9C194.6,296.9 196.9,295.6 198.4,295.0C200.8,294.1 201.2,294.3 202.0,296.5C202.5,297.9 203.4,299.0 203.9,299.0C204.4,299.0 207.2,297.4 210.1,295.3C213.1,293.3 216.6,290.9 217.9,289.8C219.2,288.8 221.1,288.0 222.1,288.0C223.1,288.0 224.4,288.9 225.0,290.1C225.7,291.2 227.7,292.8 229.5,293.6C231.4,294.4 233.8,295.0 234.8,295.0C235.8,295.0 238.6,293.3 241.0,291.3C244.5,288.3 246.1,287.6 249.9,287.4C252.4,287.3 256.3,286.5 258.4,285.6C261.3,284.3 263.6,284.0 267.1,284.5C270.3,285.0 272.0,284.8 272.0,284.1C272.0,283.6 271.0,282.2 269.9,281.1C268.7,280.0 265.3,278.2 262.4,277.0C259.4,275.8 257.0,274.3 257.0,273.8C257.0,273.3 259.1,272.0 261.6,270.9C264.1,269.7 267.2,269.1 268.3,269.4C270.0,269.8 272.0,268.6 276.5,264.5C279.8,261.5 284.1,258.5 286.0,257.9C287.9,257.3 290.0,256.7 290.7,256.5C291.5,256.2 291.6,255.2 290.8,252.8C290.0,250.2 290.2,248.6 291.4,245.5C292.7,242.4 292.8,241.5 291.8,240.8C291.1,240.3 285.6,240.1 279.5,240.2C271.3,240.5 267.5,241.0 264.6,242.5C262.5,243.5 256.9,248.0 252.1,252.5C247.4,256.9 240.1,263.4 235.9,266.8C228.3,273.0 228.3,273.0 220.0,273.0C212.5,273.0 210.9,273.4 202.4,277.1C196.3,279.8 192.0,282.4 190.1,284.6C188.4,286.4 186.5,289.8 185.9,292.0C185.0,295.0 185.0,296.6 185.8,298.5C186.6,300.3 187.4,300.8 188.7,300.3zM554.6,294.6C555.6,294.1 557.7,293.3 559.2,292.7C561.4,291.8 562.3,291.9 563.8,293.3C565.4,294.8 566.2,294.9 568.4,293.9C570.4,293.0 571.9,292.9 574.7,293.8C578.1,294.9 578.6,294.7 581.2,292.2C582.7,290.7 584.0,288.8 584.0,287.9C584.0,287.0 582.0,284.4 579.6,282.2C577.1,279.9 573.9,277.7 572.3,277.3C570.8,276.9 567.7,276.6 565.5,276.6C563.3,276.6 560.3,276.9 558.9,277.4C556.5,278.1 555.9,277.6 552.6,273.1C549.9,269.4 547.9,267.8 545.2,267.0C543.2,266.5 539.9,266.0 538.0,266.0C536.1,266.0 531.3,265.1 527.5,264.0C523.4,262.8 517.5,262.0 513.2,262.0C509.0,262.0 504.4,262.6 502.4,263.5C500.4,264.3 495.6,267.4 491.6,270.4C487.7,273.4 482.7,277.7 480.5,280.0C476.5,284.2 476.5,284.2 484.1,283.5C489.5,283.0 492.0,283.1 492.5,283.9C492.9,284.6 492.4,286.2 491.5,287.6C490.6,289.0 490.0,290.3 490.2,290.5C490.4,290.7 492.3,290.5 494.5,290.0C496.7,289.5 502.4,289.0 507.2,289.0C513.7,289.0 516.2,288.6 517.4,287.4C518.3,286.6 519.0,285.3 519.0,284.7C519.0,284.0 520.6,282.2 522.5,280.7C524.6,279.0 526.0,277.0 526.0,275.7C526.0,274.4 525.5,272.9 524.8,272.2C523.9,271.3 523.9,271.0 525.1,271.0C525.9,271.0 528.0,272.5 529.7,274.2C531.4,276.0 533.3,278.5 533.9,279.7C534.5,280.9 535.0,283.2 535.0,284.9C535.0,286.6 535.5,288.0 536.0,288.0C536.6,288.0 539.3,286.9 542.0,285.5C544.7,284.1 548.0,283.0 549.4,283.0C550.7,283.0 552.6,283.7 553.5,284.7C554.5,285.7 555.0,287.3 554.7,288.9C554.5,290.3 553.9,292.4 553.5,293.4C552.8,295.0 553.0,295.2 554.6,294.6zM289.4,284.3C292.7,284.0 298.0,282.9 301.0,281.8C304.0,280.8 307.3,279.7 308.2,279.3C309.7,278.9 310.0,279.4 310.0,281.9C310.0,284.8 310.1,284.9 312.8,283.9C314.3,283.3 318.0,280.7 321.0,278.1C324.0,275.4 328.4,272.3 330.7,271.2C333.0,270.0 336.9,267.6 339.5,265.9C342.0,264.2 345.9,262.6 348.0,262.3C350.2,262.0 352.0,262.1 352.0,262.6C352.0,263.1 350.9,265.3 349.5,267.5C348.2,269.7 347.0,272.1 347.0,272.9C347.0,274.0 348.3,274.1 353.5,273.5C360.0,272.8 360.0,272.8 360.0,276.1C360.0,279.2 360.1,279.3 363.8,278.6C365.8,278.3 368.4,278.0 369.5,278.0C370.6,278.0 374.0,276.2 377.0,273.9C380.0,271.6 384.8,267.7 387.5,265.1C390.2,262.5 394.1,259.5 396.0,258.3C397.9,257.1 400.7,255.8 402.2,255.5C404.8,254.8 405.0,255.0 405.0,257.9C405.0,259.6 405.2,261.0 405.5,261.0C405.7,261.0 408.5,260.3 411.6,259.5C414.7,258.7 418.3,258.3 419.6,258.6C420.9,259.0 422.0,259.3 422.0,259.5C422.0,259.7 420.4,262.2 418.5,265.0C416.5,267.9 415.1,270.8 415.3,271.4C415.5,272.0 417.7,272.5 420.1,272.5C422.5,272.4 427.6,271.2 431.4,269.7C435.2,268.1 438.5,267.2 438.8,267.5C439.1,267.8 438.8,269.5 438.1,271.3C437.4,273.1 436.6,275.3 436.3,276.2C436.0,277.4 436.3,278.0 437.3,278.0C438.2,278.0 439.2,277.5 439.5,277.0C439.9,276.4 442.5,274.6 445.3,273.0C449.4,270.7 451.7,270.0 456.1,270.0C460.6,270.0 462.1,269.6 463.9,267.6C465.6,265.8 467.5,265.1 471.6,264.8C476.4,264.4 477.5,263.8 480.5,260.6C483.7,257.0 484.1,256.9 488.5,257.5C492.9,258.2 493.0,258.2 492.2,255.9C491.7,254.6 489.4,252.0 487.1,250.3C484.8,248.5 480.0,246.1 476.4,245.0C472.7,243.9 467.7,243.0 465.1,243.0C462.6,243.0 457.4,243.9 453.6,245.0C446.7,246.9 446.7,246.9 439.6,239.4C435.8,235.2 431.2,231.1 429.5,230.2C427.5,229.2 423.7,228.6 418.0,228.6C410.2,228.5 409.0,228.8 403.3,231.8C399.6,233.8 394.7,235.5 391.0,236.0C387.0,236.6 383.3,237.9 380.2,239.9C377.6,241.6 372.4,246.1 368.5,250.0C364.7,253.8 360.8,257.0 359.9,257.0C359.0,257.0 356.5,256.3 354.4,255.4C352.2,254.5 346.4,253.1 341.5,252.4C336.6,251.6 329.0,251.0 324.7,251.0C319.5,251.0 314.9,251.7 310.7,253.1C307.3,254.2 301.5,257.2 297.8,259.7C294.0,262.1 289.6,265.6 287.9,267.3C286.1,269.0 284.1,271.9 283.4,273.7C282.6,275.5 282.0,278.5 282.0,280.3C282.0,282.2 282.3,284.0 282.6,284.3C283.0,284.7 286.0,284.7 289.4,284.3zM301.4,248.5C302.5,248.1 310.6,246.6 319.2,245.2C332.4,242.9 335.3,242.1 337.1,240.1C338.6,238.5 339.9,238.0 341.6,238.4C342.9,238.7 345.0,239.2 346.2,239.6C347.8,239.9 349.5,239.2 352.0,237.2C355.5,234.2 355.5,234.2 353.6,232.1C352.5,230.9 348.7,228.5 345.1,226.7C339.2,223.8 337.6,223.5 329.5,223.5C322.6,223.5 319.7,223.9 317.0,225.4C315.1,226.4 311.2,229.2 308.3,231.7C305.1,234.4 302.1,238.1 300.5,241.5C299.0,244.5 298.1,247.4 298.5,248.0C298.9,248.7 300.1,248.9 301.4,248.5zM364.6,238.0C365.4,238.0 369.7,235.9 374.2,233.4C378.8,230.9 384.3,228.6 386.5,228.3C388.7,228.0 391.7,227.1 393.2,226.3C394.8,225.6 396.0,224.5 396.0,224.0C396.0,223.4 394.5,222.1 392.8,221.0C391.0,219.9 387.3,218.5 384.5,217.9C380.7,217.1 378.4,217.1 375.0,218.0C371.7,218.9 369.1,220.7 365.2,224.6C362.4,227.5 360.0,230.7 360.0,231.5C360.0,232.4 360.7,234.2 361.6,235.5C362.5,236.9 363.8,238.0 364.6,238.0zM448.8,234.0C450.0,234.0 453.4,232.7 456.3,231.0C459.3,229.3 462.7,228.0 463.9,228.0C465.2,228.0 467.4,228.7 469.0,229.6C470.5,230.6 472.5,231.0 473.4,230.7C474.4,230.3 475.0,228.9 475.0,226.9C475.0,223.9 475.1,223.8 478.5,224.4C480.5,224.8 482.0,224.7 482.0,224.2C482.0,223.7 480.5,222.1 478.8,220.8C477.0,219.4 473.9,217.5 472.0,216.5C470.1,215.5 466.2,214.1 463.5,213.4C460.8,212.6 456.5,212.0 454.1,212.0C451.6,212.0 447.7,212.9 445.4,214.0C443.1,215.2 439.1,218.1 436.5,220.5C433.9,222.9 432.1,225.3 432.5,225.9C432.8,226.6 436.2,228.6 439.8,230.5C443.5,232.4 447.5,233.9 448.8,234.0zM265.8,227.0C266.1,227.0 269.2,225.8 272.8,224.4C276.3,223.0 281.4,220.3 284.1,218.4C286.8,216.4 289.4,215.1 290.0,215.5C290.5,215.8 291.0,217.7 291.0,219.6C291.0,221.8 291.5,223.0 292.4,223.0C293.1,223.0 295.5,221.6 297.6,219.9C299.8,218.1 303.8,215.7 306.5,214.4C309.2,213.1 312.6,212.0 314.0,212.0C315.4,212.0 317.0,211.6 317.6,211.2C318.2,210.8 319.0,208.3 319.4,205.7C319.8,203.1 320.8,199.3 321.6,197.3C322.5,195.4 322.9,193.1 322.6,192.3C322.1,191.2 321.2,191.0 319.2,191.5C317.7,191.9 310.0,192.6 302.0,192.9C288.7,193.5 287.1,193.7 282.0,196.4C279.0,197.9 275.0,200.6 273.1,202.4C271.3,204.1 268.4,207.5 266.9,209.9C265.2,212.5 264.0,215.8 264.0,217.6C264.0,219.3 264.3,222.2 264.6,223.9C265.0,225.6 265.5,227.0 265.8,227.0zM328.8,211.0C329.0,211.0 331.0,209.4 333.2,207.4C337.1,203.9 337.1,203.9 339.6,206.5C341.4,208.5 342.6,209.0 344.3,208.4C345.5,208.1 348.9,206.9 351.8,205.8C354.7,204.7 361.4,200.9 366.8,197.3C376.5,190.8 376.5,190.8 377.5,194.3C378.3,197.2 378.8,197.7 380.1,197.0C381.0,196.5 384.9,194.9 388.9,193.5C394.9,191.3 396.6,191.1 399.8,191.9C401.8,192.5 405.4,193.0 407.8,193.0C410.8,193.0 412.2,193.5 412.7,194.6C413.0,195.5 412.3,198.0 411.0,200.2C408.7,204.3 408.7,204.3 413.3,203.6C416.2,203.1 418.7,203.3 420.1,204.0C421.9,205.0 422.7,204.8 425.2,203.0C427.8,201.1 428.9,200.9 435.6,201.5C440.3,202.0 443.0,201.9 443.0,201.2C443.0,200.7 441.3,198.7 439.2,196.8C437.2,195.0 433.0,192.4 429.9,191.2C426.1,189.6 423.2,187.5 420.6,184.4C418.5,181.9 413.6,177.8 409.6,175.3C405.7,172.7 400.1,169.6 397.1,168.2C392.8,166.2 389.5,165.6 382.1,165.2C376.5,165.0 370.7,165.2 368.3,165.9C365.9,166.6 361.4,169.0 358.1,171.3C354.9,173.6 349.8,177.4 346.9,179.7C343.9,182.0 339.5,185.4 337.0,187.2C334.6,189.1 331.3,192.4 329.7,194.7C327.9,197.2 326.6,200.6 326.3,203.4C325.9,206.3 326.2,208.5 327.0,209.5C327.7,210.3 328.5,211.0 328.8,211.0zM482.8,201.0C483.0,201.0 484.7,199.8 486.5,198.2C488.2,196.7 490.5,195.0 491.5,194.5C492.8,193.7 493.1,192.8 492.5,191.1C492.1,189.9 490.4,187.2 488.7,185.3C486.9,183.3 483.5,180.4 481.1,178.8C478.6,177.3 475.5,176.0 474.1,176.0C472.6,176.1 469.8,176.7 467.8,177.4C465.7,178.2 462.8,179.6 461.3,180.5C458.6,182.3 458.6,182.3 464.1,185.1C467.1,186.6 470.1,187.9 470.8,188.0C471.5,188.0 473.6,189.1 475.4,190.5C477.2,191.9 479.5,194.8 480.5,197.0C481.5,199.2 482.5,201.0 482.8,201.0zM275.0,187.0C276.0,187.0 277.3,186.4 277.9,185.6C278.5,184.8 280.7,183.9 282.8,183.5C284.8,183.2 288.6,182.7 291.2,182.6C294.8,182.4 296.7,181.6 299.5,179.1C301.6,177.3 304.8,175.1 306.7,174.2C309.7,172.8 310.2,172.8 311.0,174.0C311.6,174.8 312.0,176.5 312.0,177.8C312.0,179.1 312.6,180.0 313.5,180.0C314.3,180.0 316.7,178.5 318.7,176.7C320.8,174.9 326.6,171.0 331.5,168.0C336.4,165.1 341.3,162.0 342.3,161.2C343.2,160.3 343.8,158.9 343.5,158.0C343.2,157.0 343.5,155.8 344.2,155.3C344.9,154.7 346.6,153.9 348.0,153.5C349.4,153.1 351.3,152.1 352.2,151.3C353.1,150.4 357.0,148.9 360.7,147.9C364.4,146.9 368.5,145.7 369.7,145.4C371.5,144.9 371.9,145.3 372.2,147.7C372.4,149.9 373.0,150.5 374.7,150.3C375.9,150.1 379.2,148.6 382.0,146.9C386.7,144.0 387.2,143.9 388.9,145.4C389.9,146.3 391.2,147.0 391.9,147.0C392.6,147.0 395.6,144.9 398.5,142.2C401.3,139.6 406.2,136.0 409.3,134.1C413.5,131.6 415.6,130.9 417.5,131.4C419.5,131.9 420.0,132.5 419.5,134.0C419.2,135.1 419.1,136.4 419.4,136.9C419.7,137.4 422.3,137.1 425.2,136.3C428.6,135.4 431.4,133.8 433.1,131.9C435.2,129.5 436.2,129.0 438.4,129.6C440.1,130.0 441.0,129.8 441.0,129.1C441.0,128.4 440.4,126.4 439.6,124.6C438.9,122.8 436.5,119.6 434.4,117.6C432.2,115.5 428.9,113.0 427.0,112.0C425.1,111.0 417.8,108.8 410.8,107.0C402.0,104.8 397.0,104.1 394.8,104.5C393.0,104.9 389.3,106.4 386.6,107.8C384.0,109.3 379.8,112.8 377.3,115.7C372.8,121.0 372.8,121.0 366.1,121.0C362.5,121.0 357.7,121.5 355.5,122.1C353.3,122.7 350.0,124.6 348.2,126.3C346.3,128.1 343.7,131.4 342.3,133.7C341.0,136.0 339.1,138.1 338.2,138.4C337.3,138.6 334.2,139.4 331.3,140.0C328.5,140.6 324.8,142.1 323.2,143.3C321.6,144.5 318.2,148.0 315.8,151.0C311.3,156.4 311.3,156.4 301.4,156.5C293.0,156.5 290.8,156.9 287.0,158.9C284.5,160.1 281.2,162.4 279.6,163.8C278.0,165.3 275.5,168.3 273.9,170.4C271.9,173.1 271.0,175.5 271.0,178.1C271.0,180.2 271.5,183.1 272.2,184.5C272.8,185.9 274.1,187.0 275.0,187.0zM423.9,167.1C427.9,165.8 428.4,165.9 429.5,167.4C430.2,168.3 431.3,169.0 431.9,169.0C432.6,169.0 435.2,167.9 437.8,166.5C440.4,165.1 443.1,164.0 443.8,164.0C444.5,164.0 445.6,165.1 446.2,166.5C447.3,169.0 447.7,169.1 452.9,168.5C456.0,168.1 459.3,167.6 460.2,167.4C461.2,167.1 462.0,166.0 462.0,165.0C462.0,164.0 463.1,162.5 464.5,161.6C466.9,160.0 466.9,159.8 465.5,157.1C464.7,155.5 462.7,153.1 461.0,151.6C459.2,150.2 456.8,148.7 455.5,148.4C454.2,148.1 450.7,148.6 447.6,149.6C442.6,151.2 440.8,151.3 433.0,150.3C427.5,149.6 422.8,149.5 421.0,150.0C419.3,150.5 416.5,151.8 414.7,152.9C412.9,154.0 410.1,156.4 408.4,158.2C406.8,160.0 404.8,162.3 404.1,163.2C403.1,164.6 403.2,165.0 405.0,166.0C406.2,166.6 409.9,167.5 413.3,167.9C417.7,168.4 420.8,168.2 423.9,167.1z" />

</svg>